Model Small Pro_CONVERTED.ufo
<glyph name="asterisk" format="2">
  <advance width="387"/>
  <unicode hex="002A"/>
  <outline>
    <contour>
      <point x="317" y="489" type="line"/>
      <point x="319" y="487"/>
      <point x="323" y="488"/>
      <point x="327" y="492" type="curve" smooth="yes"/>
      <point x="331" y="496"/>
      <point x="330" y="501"/>
      <point x="327" y="505" type="curve"/>
      <point x="256" y="568" type="line"/>
      <point x="351" y="563" type="line"/>
      <point x="357" y="564"/>
      <point x="361" y="568"/>
      <point x="361" y="573" type="curve" smooth="yes"/>
      <point x="361" y="579"/>
      <point x="357" y="582"/>
      <point x="352" y="582" type="curve" smooth="yes"/>
      <point x="321" y="581"/>
      <point x="288" y="578"/>
      <point x="256" y="577" type="curve"/>
      <point x="327" y="641" type="line"/>
      <point x="331" y="645"/>
      <point x="330" y="650"/>
      <point x="327" y="654" type="curve"/>
      <point x="323" y="658"/>
      <point x="319" y="657"/>
      <point x="317" y="656" type="curve"/>
      <point x="246" y="577" type="line"/>
      <point x="177" y="654" type="line"/>
      <point x="174" y="657"/>
      <point x="169" y="658"/>
      <point x="164" y="654" type="curve"/>
      <point x="161" y="650"/>
      <point x="160" y="645"/>
      <point x="162" y="643" type="curve"/>
      <point x="236" y="577" type="line"/>
      <point x="141" y="583" type="line"/>
      <point x="136" y="582"/>
      <point x="132" y="578"/>
      <point x="132" y="573" type="curve" smooth="yes"/>
      <point x="132" y="567"/>
      <point x="136" y="564"/>
      <point x="141" y="564" type="curve" smooth="yes"/>
      <point x="236" y="568" type="line"/>
      <point x="162" y="503" type="line"/>
      <point x="160" y="500"/>
      <point x="161" y="495"/>
      <point x="164" y="491" type="curve"/>
      <point x="169" y="488"/>
      <point x="174" y="489"/>
      <point x="177" y="492" type="curve" smooth="yes"/>
      <point x="199" y="515"/>
      <point x="224" y="544"/>
      <point x="246" y="568" type="curve"/>
    </contour>
  </outline>
</glyph>
<glyph name="plus" format="2">
  <advance width="472"/>
  <unicode hex="002B"/>
  <outline>
    <contour>
      <point x="297" y="486" type="line"/>
      <point x="277" y="433"/>
      <point x="254" y="376"/>
      <point x="233" y="323" type="curve"/>
      <point x="79" y="323" type="line"/>
      <point x="79" y="314" type="line"/>
      <point x="230" y="314" type="line"/>
      <point x="168" y="154" type="line"/>
      <point x="178" y="154" type="line"/>
      <point x="197" y="206"/>
      <point x="220" y="262"/>
      <point x="240" y="314" type="curve"/>
      <point x="411" y="314" type="line"/>
      <point x="411" y="323" type="line"/>
      <point x="243" y="323" type="line"/>
      <point x="307" y="486" type="line"/>
    </contour>
  </outline>
</glyph>
<glyph name="period" format="2">
  <advance width="229"/>
  <unicode hex="002E"/>
  <outline>
    <contour>
      <point x="8" y="15" type="line"/>
      <point x="6" y="5"/>
      <point x="11" y="-5"/>
      <point x="23" y="-5" type="curve" smooth="yes"/>
      <point x="34" y="-5"/>
      <point x="46" y="2"/>
      <point x="49" y="14" type="curve"/>
      <point x="54" y="27"/>
      <point x="47" y="36"/>
      <point x="35" y="36" type="curve" smooth="yes"/>
      <point x="23" y="36"/>
      <point x="12" y="28"/>
      <point x="8" y="16" type="curve"/>
    </contour>
  </outline>
</glyph>
<glyph name="seven" format="2">
  <advance width="302"/>
  <unicode hex="0037"/>
  <outline>
    <contour>
      <point x="453" y="650" type="curve" smooth="yes"/>
      <point x="454" y="659"/>
      <point x="447" y="665"/>
      <point x="434" y="665" type="curve" smooth="yes"/>
      <point x="419" y="665"/>
      <point x="399" y="653"/>
      <point x="377" y="635" type="curve"/>
      <point x="361" y="638"/>
      <point x="339" y="646"/>
      <point x="322" y="653" type="curve" smooth="yes"/>
      <point x="298" y="663"/>
      <point x="270" y="673"/>
      <point x="242" y="673" type="curve" smooth="yes"/>
      <point x="213" y="673"/>
      <point x="186" y="657"/>
      <point x="174" y="642" type="curve"/>
      <point x="183" y="640" type="line"/>
      <point x="191" y="651"/>
      <point x="208" y="661"/>
      <point x="226" y="661" type="curve" smooth="yes"/>
      <point x="251" y="661"/>
      <point x="278" y="652"/>
      <point x="304" y="642" type="curve" smooth="yes"/>
      <point x="323" y="634"/>
      <point x="342" y="626"/>
      <point x="365" y="623" type="curve"/>
      <point x="255" y="524"/>
      <point x="73" y="255"/>
      <point x="-23" y="-1" type="curve"/>
      <point x="0" y="-1" type="line"/>
      <point x="97" y="260"/>
      <point x="273" y="531"/>
      <point x="374" y="623" type="curve"/>
      <point x="378" y="622"/>
      <point x="386" y="621"/>
      <point x="390" y="621" type="curve" smooth="yes"/>
      <point x="407" y="621"/>
      <point x="451" y="629"/>
    </contour>
    <contour>
      <point x="387" y="633" type="curve"/>
      <point x="403" y="645"/>
      <point x="417" y="653"/>
      <point x="427" y="653" type="curve" smooth="yes"/>
      <point x="436" y="653"/>
      <point x="438" y="650"/>
      <point x="438" y="647" type="curve" smooth="yes"/>
      <point x="438" y="636"/>
      <point x="396" y="631"/>
    </contour>
  </outline>
</glyph>
<glyph name="nine" format="2">
  <advance width="498"/>
  <unicode hex="0039"/>
  <outline>
    <contour>
      <point x="-146" y="-186" type="line"/>
      <point x="-136" y="-189"/>
      <point x="-123" y="-190"/>
      <point x="-109" y="-190" type="curve" smooth="yes"/>
      <point x="-44" y="-190"/>
      <point x="55" y="-155"/>
      <point x="139" y="-101" type="curve" smooth="yes"/>
      <point x="340" y="32"/>
      <point x="561" y="278"/>
      <point x="561" y="513" type="curve" smooth="yes"/>
      <point x="561" y="598"/>
      <point x="529" y="686"/>
      <point x="404" y="686" type="curve" smooth="yes"/>
      <point x="249" y="686"/>
      <point x="30" y="492"/>
      <point x="30" y="296" type="curve" smooth="yes"/>
      <point x="30" y="202"/>
      <point x="87" y="139"/>
      <point x="166" y="139" type="curve" smooth="yes"/>
      <point x="247" y="139"/>
      <point x="315" y="178"/>
      <point x="371" y="239" type="curve" smooth="yes"/>
      <point x="414" y="287"/>
      <point x="450" y="346"/>
      <point x="463" y="427" type="curve"/>
      <point x="455" y="427" type="line"/>
      <point x="442" y="345"/>
      <point x="402" y="282"/>
      <point x="367" y="244" type="curve" smooth="yes"/>
      <point x="284" y="155"/>
      <point x="198" y="148"/>
      <point x="170" y="148" type="curve" smooth="yes"/>
      <point x="99" y="148"/>
      <point x="47" y="194"/>
      <point x="47" y="279" type="curve" smooth="yes"/>
      <point x="47" y="437"/>
      <point x="214" y="677"/>
      <point x="404" y="677" type="curve" smooth="yes"/>
      <point x="513" y="677"/>
      <point x="543" y="595"/>
      <point x="543" y="515" type="curve" smooth="yes"/>
      <point x="543" y="276"/>
      <point x="321" y="31"/>
      <point x="136" y="-93" type="curve" smooth="yes"/>
      <point x="63" y="-139"/>
      <point x="-37" y="-181"/>
      <point x="-110" y="-181" type="curve" smooth="yes"/>
      <point x="-123" y="-181"/>
      <point x="-136" y="-180"/>
      <point x="-146" y="-178" type="curve"/>
    </contour>
  </outline>
</glyph>
<glyph name="bracketright" format="2">
  <advance width="402"/>
  <unicode hex="005D"/>
  <outline>
    <contour>
      <point x="449" y="897" type="line"/>
      <point x="296" y="897" type="line"/>
      <point x="294" y="889" type="line"/>
      <point x="424" y="889" type="line"/>
      <point x="-95" y="-289" type="line"/>
      <point x="-226" y="-289" type="line"/>
      <point x="-228" y="-297" type="line"/>
      <point x="-76" y="-297" type="line"/>
    </contour>
  </outline>
</glyph>
<glyph name="a" format="2">
  <advance width="444"/>
  <unicode hex="0061"/>
  <outline>
    <contour>
      <point x="259" y="556" type="curve" smooth="yes"/>
      <point x="307" y="556"/>
      <point x="320" y="523"/>
      <point x="314" y="485" type="curve" smooth="yes"/>
      <point x="309" y="449"/>
      <point x="289" y="408"/>
      <point x="262" y="382" type="curve"/>
      <point x="263" y="375" type="line"/>
      <point x="296" y="405"/>
      <point x="321" y="449"/>
      <point x="326" y="485" type="curve" smooth="yes"/>
      <point x="331" y="527"/>
      <point x="310" y="565"/>
      <point x="259" y="565" type="curve" smooth="yes"/>
      <point x="180" y="565"/>
      <point x="62" y="440"/>
      <point x="-5" y="281" type="curve" smooth="yes"/>
      <point x="-44" y="188"/>
      <point x="-94" y="-14"/>
      <point x="16" y="-14" type="curve" smooth="yes"/>
      <point x="60" y="-14"/>
      <point x="132" y="40"/>
      <point x="183" y="120" type="curve"/>
      <point x="179" y="103"/>
      <point x="177" y="85"/>
      <point x="177" y="69" type="curve" smooth="yes"/>
      <point x="177" y="26"/>
      <point x="195" y="-2"/>
      <point x="222" y="-2" type="curve" smooth="yes"/>
      <point x="292" y="-2"/>
      <point x="388" y="146"/>
      <point x="450" y="282" type="curve"/>
      <point x="442" y="284" type="line"/>
      <point x="383" y="156"/>
      <point x="288" y="6"/>
      <point x="222" y="6" type="curve" smooth="yes"/>
      <point x="201" y="6"/>
      <point x="189" y="27"/>
      <point x="189" y="60" type="curve" smooth="yes"/>
      <point x="189" y="83"/>
      <point x="197" y="119"/>
      <point x="212" y="151" type="curve" smooth="yes"/>
      <point x="404" y="552" type="line"/>
      <point x="378" y="552" type="line"/>
      <point x="211" y="188" type="line" smooth="yes"/>
      <point x="157" y="71"/>
      <point x="68" y="-4"/>
      <point x="18" y="-4" type="curve" smooth="yes"/>
      <point x="-15" y="-4"/>
      <point x="-30" y="27"/>
      <point x="-30" y="79" type="curve" smooth="yes"/>
      <point x="-30" y="91"/>
      <point x="-29" y="108"/>
      <point x="-27" y="123" type="curve" smooth="yes"/>
      <point x="-20" y="171"/>
      <point x="-8" y="222"/>
      <point x="14" y="274" type="curve" smooth="yes"/>
      <point x="78" y="425"/>
      <point x="193" y="556"/>
    </contour>
  </outline>
</glyph>
<glyph name="b" format="2">
  <advance width="386"/>
  <unicode hex="0062"/>
  <outline>
    <contour>
      <point x="-8" y="-2" type="curve" smooth="yes"/>
      <point x="60" y="-2"/>
      <point x="135" y="72"/>
      <point x="201" y="174" type="curve"/>
      <point x="211" y="170"/>
      <point x="221" y="169"/>
      <point x="234" y="169" type="curve" smooth="yes"/>
      <point x="274" y="169"/>
      <point x="349" y="213"/>
      <point x="393" y="282" type="curve"/>
      <point x="385" y="284" type="line"/>
      <point x="345" y="221"/>
      <point x="274" y="177"/>
      <point x="237" y="177" type="curve" smooth="yes"/>
      <point x="226" y="177"/>
      <point x="214" y="179"/>
      <point x="206" y="182" type="curve"/>
      <point x="246" y="245"/>
      <point x="282" y="322"/>
      <point x="310" y="391" type="curve" smooth="yes"/>
      <point x="324" y="424"/>
      <point x="332" y="462"/>
      <point x="332" y="493" type="curve" smooth="yes"/>
      <point x="332" y="526"/>
      <point x="322" y="550"/>
      <point x="300" y="550" type="curve" smooth="yes"/>
      <point x="247" y="550"/>
      <point x="163" y="415"/>
      <point x="151" y="305" type="curve" smooth="yes"/>
      <point x="150" y="295"/>
      <point x="149" y="285"/>
      <point x="149" y="276" type="curve" smooth="yes"/>
      <point x="149" y="239"/>
      <point x="161" y="203"/>
      <point x="184" y="183" type="curve"/>
      <point x="118" y="73"/>
      <point x="57" y="7"/>
      <point x="-7" y="7" type="curve" smooth="yes"/>
      <point x="-47" y="7"/>
      <point x="-61" y="53"/>
      <point x="-61" y="79" type="curve" smooth="yes"/>
      <point x="-61" y="99"/>
      <point x="-56" y="125"/>
      <point x="-44" y="151" type="curve" smooth="yes"/>
      <point x="339" y="973" type="line"/>
      <point x="314" y="973" type="line"/>
      <point x="-57" y="162" type="line" smooth="yes"/>
      <point x="-69" y="135"/>
      <point x="-74" y="109"/>
      <point x="-74" y="86" type="curve" smooth="yes"/>
      <point x="-74" y="43"/>
      <point x="-52" y="-2"/>
    </contour>
    <contour>
      <point x="161" y="301" type="curve" smooth="yes"/>
      <point x="173" y="411"/>
      <point x="254" y="541"/>
      <point x="300" y="541" type="curve" smooth="yes"/>
      <point x="313" y="541"/>
      <point x="318" y="529"/>
      <point x="318" y="510" type="curve" smooth="yes"/>
      <point x="318" y="479"/>
      <point x="303" y="427"/>
      <point x="282" y="378" type="curve" smooth="yes"/>
      <point x="250" y="308"/>
      <point x="220" y="244"/>
      <point x="188" y="192" type="curve"/>
      <point x="160" y="213"/>
      <point x="156" y="260"/>
    </contour>
  </outline>
</glyph>
<glyph name="c" format="2">
  <advance width="344"/>
  <unicode hex="0063"/>
  <outline>
    <contour>
      <point x="183" y="438" type="line"/>
      <point x="162" y="420"/>
      <point x="154" y="397"/>
      <point x="154" y="379" type="curve" smooth="yes"/>
      <point x="154" y="349"/>
      <point x="173" y="333"/>
      <point x="197" y="333" type="curve" smooth="yes"/>
      <point x="264" y="333"/>
      <point x="327" y="439"/>
      <point x="327" y="496" type="curve" smooth="yes"/>
      <point x="327" y="531"/>
      <point x="305" y="565"/>
      <point x="266" y="565" type="curve" smooth="yes"/>
      <point x="175" y="565"/>
      <point x="3" y="380"/>
      <point x="-33" y="175" type="curve" smooth="yes"/>
      <point x="-36" y="156"/>
      <point x="-38" y="134"/>
      <point x="-38" y="117" type="curve" smooth="yes"/>
      <point x="-38" y="35"/>
      <point x="-2" y="-14"/>
      <point x="55" y="-14" type="curve" smooth="yes"/>
      <point x="171" y="-14"/>
      <point x="282" y="140"/>
      <point x="350" y="282" type="curve"/>
      <point x="342" y="284" type="line"/>
      <point x="277" y="147"/>
      <point x="167" y="-4"/>
      <point x="55" y="-4" type="curve" smooth="yes"/>
      <point x="10" y="-4"/>
      <point x="-20" y="37"/>
      <point x="-20" y="111" type="curve" smooth="yes"/>
      <point x="-20" y="128"/>
      <point x="-18" y="147"/>
      <point x="-15" y="167" type="curve" smooth="yes"/>
      <point x="19" y="363"/>
      <point x="179" y="556"/>
      <point x="265" y="556" type="curve" smooth="yes"/>
      <point x="296" y="556"/>
      <point x="310" y="530"/>
      <point x="310" y="501" type="curve" smooth="yes"/>
      <point x="310" y="448"/>
      <point x="253" y="341"/>
      <point x="196" y="341" type="curve" smooth="yes"/>
      <point x="179" y="341"/>
      <point x="168" y="356"/>
      <point x="168" y="382" type="curve" smooth="yes"/>
      <point x="168" y="397"/>
      <point x="173" y="417"/>
      <point x="187" y="437" type="curve"/>
    </contour>
  </outline>
</glyph>
<glyph name="g" format="2">
  <advance width="444"/>
  <unicode hex="0067"/>
  <outline>
    <contour>
      <point x="271" y="556" type="curve" smooth="yes"/>
      <point x="315" y="556"/>
      <point x="328" y="528"/>
      <point x="322" y="495" type="curve"/>
      <point x="326" y="495" type="line"/>
      <point x="334" y="533"/>
      <point x="322" y="565"/>
      <point x="271" y="565" type="curve" smooth="yes"/>
      <point x="186" y="565"/>
      <point x="60" y="440"/>
      <point x="-5" y="281" type="curve" smooth="yes"/>
      <point x="-39" y="198"/>
      <point x="-96" y="3"/>
      <point x="15" y="3" type="curve" smooth="yes"/>
      <point x="64" y="3"/>
      <point x="137" y="75"/>
      <point x="205" y="163" type="curve"/>
      <point x="202" y="153"/>
      <point x="200" y="150"/>
      <point x="197" y="141" type="curve" smooth="yes"/>
      <point x="184" y="100"/>
      <point x="167" y="53"/>
      <point x="153" y="12" type="curve" smooth="yes"/>
      <point x="129" y="-55" type="line"/>
      <point x="84" y="-85"/>
      <point x="41" y="-110"/>
      <point x="1" y="-133" type="curve" smooth="yes"/>
      <point x="-7" y="-138"/>
      <point x="-15" y="-143"/>
      <point x="-23" y="-147" type="curve"/>
      <point x="-36" y="-155" type="line" smooth="yes"/>
      <point x="-112" y="-199"/>
      <point x="-199" y="-252"/>
      <point x="-250" y="-313" type="curve" smooth="yes"/>
      <point x="-275" y="-344"/>
      <point x="-291" y="-382"/>
      <point x="-292" y="-418" type="curve" smooth="yes"/>
      <point x="-295" y="-460"/>
      <point x="-273" y="-495"/>
      <point x="-220" y="-499" type="curve" smooth="yes"/>
      <point x="-148" y="-504"/>
      <point x="-33" y="-446"/>
      <point x="44" y="-308" type="curve" smooth="yes"/>
      <point x="72" y="-257"/>
      <point x="96" y="-184"/>
      <point x="122" y="-106" type="curve" smooth="yes"/>
      <point x="138" y="-59" type="line"/>
      <point x="252" y="16"/>
      <point x="374" y="123"/>
      <point x="450" y="282" type="curve"/>
      <point x="442" y="284" type="line"/>
      <point x="370" y="130"/>
      <point x="254" y="31"/>
      <point x="142" y="-45" type="curve"/>
      <point x="146" y="-35" type="line"/>
      <point x="162" y="10" type="line"/>
      <point x="171" y="36" type="line" smooth="yes"/>
      <point x="188" y="84"/>
      <point x="208" y="142"/>
      <point x="230" y="198" type="curve"/>
      <point x="277" y="264"/>
      <point x="326" y="347"/>
      <point x="352" y="400" type="curve" smooth="yes"/>
      <point x="392" y="486"/>
      <point x="435" y="567"/>
      <point x="403" y="567" type="curve" smooth="yes"/>
      <point x="387" y="567"/>
      <point x="345" y="511"/>
      <point x="285" y="378" type="curve" smooth="yes"/>
      <point x="276" y="358" type="line" smooth="yes"/>
      <point x="253" y="306"/>
      <point x="233" y="248"/>
      <point x="214" y="193" type="curve"/>
      <point x="145" y="98"/>
      <point x="63" y="12"/>
      <point x="15" y="12" type="curve" smooth="yes"/>
      <point x="-38" y="12"/>
      <point x="-33" y="94"/>
      <point x="-28" y="126" type="curve" smooth="yes"/>
      <point x="-21" y="175"/>
      <point x="-9" y="221"/>
      <point x="14" y="274" type="curve" smooth="yes"/>
      <point x="81" y="426"/>
      <point x="199" y="556"/>
    </contour>
    <contour>
      <point x="22" y="-305" type="curve" smooth="yes"/>
      <point x="-49" y="-433"/>
      <point x="-154" y="-496"/>
      <point x="-219" y="-491" type="curve" smooth="yes"/>
      <point x="-263" y="-488"/>
      <point x="-286" y="-463"/>
      <point x="-284" y="-425" type="curve" smooth="yes"/>
      <point x="-282" y="-390"/>
      <point x="-263" y="-356"/>
      <point x="-238" y="-323" type="curve" smooth="yes"/>
      <point x="-186" y="-258"/>
      <point x="-81" y="-192"/>
      <point x="-20" y="-155" type="curve"/>
      <point x="-5" y="-147" type="line"/>
      <point x="35" y="-123"/>
      <point x="78" y="-98"/>
      <point x="124" y="-69" type="curve"/>
      <point x="90" y="-160"/>
      <point x="59" y="-243"/>
    </contour>
    <contour>
      <point x="403" y="558" type="curve" smooth="yes"/>
      <point x="415" y="558"/>
      <point x="386" y="491"/>
      <point x="344" y="405" type="curve" smooth="yes"/>
      <point x="322" y="360"/>
      <point x="287" y="299"/>
      <point x="245" y="237" type="curve"/>
      <point x="263" y="283"/>
      <point x="277" y="313"/>
      <point x="297" y="356" type="curve" smooth="yes"/>
      <point x="304" y="371" type="line" smooth="yes"/>
      <point x="375" y="518"/>
      <point x="396" y="558"/>
    </contour>
  </outline>
</glyph>
<glyph name="h" format="2">
  <advance width="476"/>
  <unicode hex="0068"/>
  <outline>
    <contour>
      <point x="254" y="-2" type="curve" smooth="yes"/>
      <point x="324" y="-2"/>
      <point x="420" y="146"/>
      <point x="482" y="282" type="curve"/>
      <point x="474" y="284" type="line"/>
      <point x="415" y="156"/>
      <point x="321" y="7"/>
      <point x="255" y="7" type="curve" smooth="yes"/>
      <point x="230" y="7"/>
      <point x="212" y="40"/>
      <point x="218" y="86" type="curve" smooth="yes"/>
      <point x="226" y="157"/>
      <point x="264" y="216"/>
      <point x="306" y="281" type="curve" smooth="yes"/>
      <point x="355" y="356"/>
      <point x="394" y="434"/>
      <point x="402" y="490" type="curve" smooth="yes"/>
      <point x="407" y="543"/>
      <point x="374" y="567"/>
      <point x="350" y="567" type="curve" smooth="yes"/>
      <point x="301" y="567"/>
      <point x="230" y="500"/>
      <point x="165" y="416" type="curve"/>
      <point x="177" y="451"/>
      <point x="189" y="482"/>
      <point x="202" y="512" type="curve" smooth="yes"/>
      <point x="206" y="522"/>
      <point x="209" y="533"/>
      <point x="213" y="544" type="curve" smooth="yes"/>
      <point x="222" y="568" type="line"/>
      <point x="262" y="599"/>
      <point x="305" y="626"/>
      <point x="346" y="652" type="curve" smooth="yes"/>
      <point x="426" y="703"/>
      <point x="512" y="760"/>
      <point x="585" y="849" type="curve" smooth="yes"/>
      <point x="612" y="882"/>
      <point x="633" y="920"/>
      <point x="633" y="960" type="curve" smooth="yes"/>
      <point x="633" y="992"/>
      <point x="613" y="1019"/>
      <point x="576" y="1023" type="curve" smooth="yes"/>
      <point x="505" y="1028"/>
      <point x="390" y="970"/>
      <point x="311" y="832" type="curve" smooth="yes"/>
      <point x="283" y="782"/>
      <point x="260" y="712"/>
      <point x="235" y="637" type="curve" smooth="yes"/>
      <point x="213" y="572" type="line"/>
      <point x="138" y="512"/>
      <point x="61" y="429"/>
      <point x="-2" y="284" type="curve"/>
      <point x="6" y="282" type="line"/>
      <point x="66" y="421"/>
      <point x="133" y="495"/>
      <point x="208" y="556" type="curve"/>
      <point x="204" y="543"/>
      <point x="198" y="526"/>
      <point x="193" y="514" type="curve" smooth="yes"/>
      <point x="141" y="385" type="line"/>
      <point x="88" y="312"/>
      <point x="33" y="220"/>
      <point x="6" y="162" type="curve" smooth="yes"/>
      <point x="-34" y="76"/>
      <point x="-72" y="-5"/>
      <point x="-45" y="-5" type="curve" smooth="yes"/>
      <point x="-29" y="-5"/>
      <point x="15" y="55"/>
      <point x="72" y="184" type="curve" smooth="yes"/>
      <point x="81" y="204" type="line" smooth="yes"/>
      <point x="107" y="256"/>
      <point x="132" y="323"/>
      <point x="154" y="385" type="curve"/>
      <point x="223" y="477"/>
      <point x="301" y="558"/>
      <point x="350" y="558" type="curve" smooth="yes"/>
      <point x="371" y="558"/>
      <point x="398" y="546"/>
      <point x="391" y="493" type="curve" smooth="yes"/>
      <point x="385" y="441"/>
      <point x="356" y="399"/>
      <point x="295" y="307" type="curve" smooth="yes"/>
      <point x="249" y="237"/>
      <point x="215" y="168"/>
      <point x="206" y="92" type="curve" smooth="yes"/>
      <point x="201" y="42"/>
      <point x="223" y="-2"/>
    </contour>
    <contour>
      <point x="333" y="829" type="curve" smooth="yes"/>
      <point x="406" y="957"/>
      <point x="510" y="1020"/>
      <point x="576" y="1015" type="curve" smooth="yes"/>
      <point x="606" y="1012"/>
      <point x="626" y="992"/>
      <point x="626" y="967" type="curve" smooth="yes"/>
      <point x="626" y="928"/>
      <point x="596" y="888"/>
      <point x="573" y="859" type="curve" smooth="yes"/>
      <point x="498" y="769"/>
      <point x="410" y="706"/>
      <point x="331" y="655" type="curve" smooth="yes"/>
      <point x="297" y="633"/>
      <point x="261" y="609"/>
      <point x="229" y="585" type="curve"/>
      <point x="263" y="677"/>
      <point x="296" y="765"/>
    </contour>
    <contour>
      <point x="60" y="206" type="curve"/>
      <point x="53" y="191" type="line" smooth="yes"/>
      <point x="-13" y="49"/>
      <point x="-37" y="4"/>
      <point x="-44" y="4" type="curve" smooth="yes"/>
      <point x="-56" y="4"/>
      <point x="-28" y="71"/>
      <point x="14" y="157" type="curve" smooth="yes"/>
      <point x="37" y="206"/>
      <point x="78" y="279"/>
      <point x="126" y="347" type="curve"/>
      <point x="105" y="296"/>
      <point x="84" y="249"/>
    </contour>
  </outline>
</glyph>
<glyph name="i" format="2">
  <advance width="187"/>
  <unicode hex="0069"/>
  <outline>
    <contour>
      <point x="121" y="552" type="line"/>
      <point x="-2" y="283" type="line"/>
      <point x="-57" y="162" type="line" smooth="yes"/>
      <point x="-72" y="128"/>
      <point x="-79" y="94"/>
      <point x="-79" y="68" type="curve" smooth="yes"/>
      <point x="-79" y="26"/>
      <point x="-62" y="-2"/>
      <point x="-35" y="-2" type="curve" smooth="yes"/>
      <point x="35" y="-2"/>
      <point x="131" y="146"/>
      <point x="193" y="282" type="curve"/>
      <point x="185" y="284" type="line"/>
      <point x="126" y="156"/>
      <point x="31" y="6"/>
      <point x="-34" y="6" type="curve" smooth="yes"/>
      <point x="-55" y="6"/>
      <point x="-67" y="27"/>
      <point x="-67" y="60" type="curve" smooth="yes"/>
      <point x="-67" y="83"/>
      <point x="-58" y="119"/>
      <point x="-44" y="151" type="curve" smooth="yes"/>
      <point x="147" y="552" type="line"/>
    </contour>
    <contour>
      <point x="195" y="735" type="line"/>
      <point x="193" y="725"/>
      <point x="198" y="715"/>
      <point x="210" y="715" type="curve" smooth="yes"/>
      <point x="221" y="715"/>
      <point x="233" y="722"/>
      <point x="236" y="734" type="curve"/>
      <point x="241" y="747"/>
      <point x="234" y="756"/>
      <point x="222" y="756" type="curve" smooth="yes"/>
      <point x="210" y="756"/>
      <point x="199" y="748"/>
      <point x="195" y="736" type="curve"/>
    </contour>
  </outline>
</glyph>
<glyph name="j" format="2">
  <advance width="194"/>
  <unicode hex="006A"/>
  <outline>
    <contour>
      <point x="153" y="563" type="line"/>
      <point x="117" y="536"/>
      <point x="78" y="461"/>
      <point x="62" y="430" type="curve" smooth="yes"/>
      <point x="15" y="337"/>
      <point x="-24" y="224"/>
      <point x="-59" y="120" type="curve" smooth="yes"/>
      <point x="-96" y="12" type="line"/>
      <point x="-120" y="-54" type="line"/>
      <point x="-174" y="-90"/>
      <point x="-226" y="-120"/>
      <point x="-273" y="-147" type="curve" smooth="yes"/>
      <point x="-286" y="-155" type="line" smooth="yes"/>
      <point x="-362" y="-199"/>
      <point x="-449" y="-252"/>
      <point x="-500" y="-313" type="curve" smooth="yes"/>
      <point x="-525" y="-344"/>
      <point x="-541" y="-382"/>
      <point x="-542" y="-418" type="curve" smooth="yes"/>
      <point x="-545" y="-460"/>
      <point x="-523" y="-495"/>
      <point x="-470" y="-499" type="curve" smooth="yes"/>
      <point x="-402" y="-504"/>
      <point x="-284" y="-435"/>
      <point x="-205" y="-308" type="curve" smooth="yes"/>
      <point x="-175" y="-254"/>
      <point x="-148" y="-174"/>
      <point x="-122" y="-93" type="curve" smooth="yes"/>
      <point x="-111" y="-59" type="line"/>
      <point x="4" y="17"/>
      <point x="125" y="124"/>
      <point x="200" y="282" type="curve"/>
      <point x="192" y="284" type="line"/>
      <point x="120" y="131"/>
      <point x="5" y="32"/>
      <point x="-105" y="-44" type="curve"/>
      <point x="-87" y="10" type="line"/>
      <point x="-74" y="46" type="line" smooth="yes"/>
      <point x="-34" y="160"/>
      <point x="21" y="315"/>
      <point x="80" y="423" type="curve" smooth="yes"/>
      <point x="112" y="483"/>
      <point x="140" y="526"/>
      <point x="189" y="563" type="curve"/>
    </contour>
    <contour>
      <point x="-227" y="-305" type="curve" smooth="yes"/>
      <point x="-299" y="-433"/>
      <point x="-405" y="-496"/>
      <point x="-469" y="-491" type="curve" smooth="yes"/>
      <point x="-513" y="-488"/>
      <point x="-536" y="-463"/>
      <point x="-534" y="-425" type="curve" smooth="yes"/>
      <point x="-532" y="-390"/>
      <point x="-513" y="-356"/>
      <point x="-488" y="-323" type="curve" smooth="yes"/>
      <point x="-436" y="-258"/>
      <point x="-331" y="-192"/>
      <point x="-270" y="-155" type="curve" smooth="yes"/>
      <point x="-261" y="-150" type="line" smooth="yes"/>
      <point x="-218" y="-126"/>
      <point x="-171" y="-101"/>
      <point x="-124" y="-69" type="curve"/>
      <point x="-158" y="-161"/>
      <point x="-190" y="-243"/>
    </contour>
    <contour>
      <point x="231" y="735" type="line"/>
      <point x="229" y="725"/>
      <point x="234" y="715"/>
      <point x="246" y="715" type="curve" smooth="yes"/>
      <point x="257" y="715"/>
      <point x="269" y="722"/>
      <point x="272" y="734" type="curve"/>
      <point x="277" y="747"/>
      <point x="270" y="756"/>
      <point x="258" y="756" type="curve" smooth="yes"/>
      <point x="246" y="756"/>
      <point x="235" y="748"/>
      <point x="231" y="736" type="curve"/>
    </contour>
  </outline>
</glyph>
<glyph name="o" format="2">
  <advance width="394"/>
  <unicode hex="006F"/>
  <outline>
    <contour>
      <point x="316" y="398" type="curve" smooth="yes"/>
      <point x="316" y="445"/>
      <point x="297" y="478"/>
      <point x="269" y="478" type="curve" smooth="yes"/>
      <point x="225" y="478"/>
      <point x="158" y="385"/>
      <point x="143" y="292" type="curve" smooth="yes"/>
      <point x="141" y="282"/>
      <point x="141" y="268"/>
      <point x="141" y="258" type="curve" smooth="yes"/>
      <point x="141" y="205"/>
      <point x="158" y="158"/>
      <point x="197" y="141" type="curve"/>
      <point x="142" y="55"/>
      <point x="78" y="-5"/>
      <point x="32" y="-5" type="curve" smooth="yes"/>
      <point x="-8" y="-5"/>
      <point x="-27" y="39"/>
      <point x="-23" y="107" type="curve" smooth="yes"/>
      <point x="-20" y="162"/>
      <point x="-8" y="216"/>
      <point x="16" y="274" type="curve" smooth="yes"/>
      <point x="77" y="428"/>
      <point x="182" y="555"/>
      <point x="251" y="555" type="curve" smooth="yes"/>
      <point x="279" y="555"/>
      <point x="304" y="541"/>
      <point x="312" y="505" type="curve"/>
      <point x="318" y="512" type="line"/>
      <point x="307" y="545"/>
      <point x="284" y="565"/>
      <point x="252" y="565" type="curve" smooth="yes"/>
      <point x="172" y="565"/>
      <point x="62" y="441"/>
      <point x="-4" y="283" type="curve" smooth="yes"/>
      <point x="-27" y="225"/>
      <point x="-38" y="174"/>
      <point x="-41" y="116" type="curve" smooth="yes"/>
      <point x="-45" y="39"/>
      <point x="-19" y="-14"/>
      <point x="31" y="-14" type="curve" smooth="yes"/>
      <point x="83" y="-14"/>
      <point x="155" y="51"/>
      <point x="214" y="136" type="curve"/>
      <point x="219" y="135"/>
      <point x="225" y="135"/>
      <point x="230" y="135" type="curve" smooth="yes"/>
      <point x="285" y="135"/>
      <point x="359" y="197"/>
      <point x="400" y="282" type="curve"/>
      <point x="392" y="284" type="line"/>
      <point x="353" y="203"/>
      <point x="281" y="143"/>
      <point x="231" y="143" type="curve" smooth="yes"/>
      <point x="226" y="143"/>
      <point x="223" y="142"/>
      <point x="219" y="143" type="curve"/>
      <point x="268" y="219"/>
      <point x="316" y="317"/>
    </contour>
    <contour>
      <point x="152" y="255" type="curve" smooth="yes"/>
      <point x="152" y="266"/>
      <point x="153" y="278"/>
      <point x="154" y="289" type="curve" smooth="yes"/>
      <point x="166" y="386"/>
      <point x="228" y="470"/>
      <point x="270" y="470" type="curve" smooth="yes"/>
      <point x="289" y="470"/>
      <point x="299" y="449"/>
      <point x="299" y="415" type="curve" smooth="yes"/>
      <point x="299" y="317"/>
      <point x="247" y="217"/>
      <point x="202" y="148" type="curve"/>
      <point x="166" y="164"/>
      <point x="152" y="208"/>
    </contour>
    <contour>
      <point x="204" y="148" type="line"/>
      <point x="202" y="148" type="line" smooth="yes"/>
      <point x="201" y="148"/>
      <point x="201" y="147"/>
      <point x="201" y="147" type="curve"/>
    </contour>
  </outline>
</glyph>
<glyph name="v" format="2">
  <advance width="541"/>
  <unicode hex="0076"/>
  <outline>
    <contour>
      <point x="228" y="567" type="curve" smooth="yes"/>
      <point x="157" y="567"/>
      <point x="61" y="420"/>
      <point x="-2" y="284" type="curve"/>
      <point x="6" y="282" type="line"/>
      <point x="66" y="410"/>
      <point x="161" y="558"/>
      <point x="228" y="558" type="curve" smooth="yes"/>
      <point x="249" y="558"/>
      <point x="276" y="546"/>
      <point x="269" y="493" type="curve" smooth="yes"/>
      <point x="263" y="441"/>
      <point x="234" y="399"/>
      <point x="203" y="353" type="curve" smooth="yes"/>
      <point x="173" y="307" type="line" smooth="yes"/>
      <point x="129" y="236"/>
      <point x="83" y="158"/>
      <point x="83" y="78" type="curve" smooth="yes"/>
      <point x="83" y="34"/>
      <point x="104" y="-2"/>
      <point x="138" y="-2" type="curve" smooth="yes"/>
      <point x="206" y="-2"/>
      <point x="286" y="72"/>
      <point x="354" y="175" type="curve"/>
      <point x="363" y="171"/>
      <point x="375" y="169"/>
      <point x="389" y="169" type="curve" smooth="yes"/>
      <point x="429" y="169"/>
      <point x="504" y="213"/>
      <point x="548" y="282" type="curve"/>
      <point x="540" y="284" type="line"/>
      <point x="500" y="221"/>
      <point x="429" y="177"/>
      <point x="392" y="177" type="curve" smooth="yes"/>
      <point x="379" y="177"/>
      <point x="369" y="179"/>
      <point x="359" y="183" type="curve"/>
      <point x="399" y="243"/>
      <point x="437" y="321"/>
      <point x="465" y="391" type="curve" smooth="yes"/>
      <point x="479" y="424"/>
      <point x="487" y="462"/>
      <point x="487" y="493" type="curve" smooth="yes"/>
      <point x="487" y="526"/>
      <point x="477" y="550"/>
      <point x="455" y="550" type="curve" smooth="yes"/>
      <point x="402" y="550"/>
      <point x="318" y="415"/>
      <point x="306" y="305" type="curve" smooth="yes"/>
      <point x="301" y="258"/>
      <point x="306" y="210"/>
      <point x="337" y="185" type="curve"/>
      <point x="272" y="83"/>
      <point x="198" y="7"/>
      <point x="139" y="7" type="curve" smooth="yes"/>
      <point x="111" y="7"/>
      <point x="90" y="40"/>
      <point x="96" y="86" type="curve" smooth="yes"/>
      <point x="104" y="157"/>
      <point x="142" y="216"/>
      <point x="184" y="281" type="curve" smooth="yes"/>
      <point x="195" y="298" type="line" smooth="yes"/>
      <point x="233" y="356"/>
      <point x="272" y="434"/>
      <point x="280" y="490" type="curve" smooth="yes"/>
      <point x="285" y="543"/>
      <point x="256" y="567"/>
    </contour>
    <contour>
      <point x="437" y="378" type="curve" smooth="yes"/>
      <point x="405" y="307"/>
      <point x="374" y="246"/>
      <point x="342" y="193" type="curve"/>
      <point x="317" y="214"/>
      <point x="312" y="261"/>
      <point x="316" y="301" type="curve" smooth="yes"/>
      <point x="331" y="409"/>
      <point x="410" y="541"/>
      <point x="455" y="541" type="curve" smooth="yes"/>
      <point x="468" y="541"/>
      <point x="473" y="529"/>
      <point x="473" y="510" type="curve" smooth="yes"/>
      <point x="473" y="479"/>
      <point x="458" y="428"/>
    </contour>
  </outline>
</glyph>
<glyph name="w" format="2">
  <advance width="555"/>
  <unicode hex="0077"/>
  <outline>
    <contour>
      <point x="152" y="-2" type="curve" smooth="yes"/>
      <point x="220" y="-2"/>
      <point x="300" y="72"/>
      <point x="368" y="175" type="curve"/>
      <point x="377" y="171"/>
      <point x="389" y="169"/>
      <point x="403" y="169" type="curve" smooth="yes"/>
      <point x="443" y="169"/>
      <point x="518" y="213"/>
      <point x="562" y="282" type="curve"/>
      <point x="554" y="284" type="line"/>
      <point x="514" y="221"/>
      <point x="443" y="177"/>
      <point x="406" y="177" type="curve" smooth="yes"/>
      <point x="393" y="177"/>
      <point x="383" y="179"/>
      <point x="373" y="183" type="curve"/>
      <point x="413" y="243"/>
      <point x="451" y="321"/>
      <point x="479" y="391" type="curve" smooth="yes"/>
      <point x="493" y="424"/>
      <point x="501" y="462"/>
      <point x="501" y="493" type="curve" smooth="yes"/>
      <point x="501" y="526"/>
      <point x="491" y="550"/>
      <point x="469" y="550" type="curve" smooth="yes"/>
      <point x="416" y="550"/>
      <point x="332" y="415"/>
      <point x="320" y="305" type="curve" smooth="yes"/>
      <point x="315" y="258"/>
      <point x="320" y="210"/>
      <point x="351" y="185" type="curve"/>
      <point x="284" y="77"/>
      <point x="212" y="6"/>
      <point x="152" y="6" type="curve" smooth="yes"/>
      <point x="131" y="6"/>
      <point x="119" y="27"/>
      <point x="119" y="60" type="curve" smooth="yes"/>
      <point x="119" y="83"/>
      <point x="128" y="119"/>
      <point x="142" y="151" type="curve" smooth="yes"/>
      <point x="334" y="552" type="line"/>
      <point x="308" y="552" type="line"/>
      <point x="185" y="283" type="line"/>
      <point x="183" y="277"/>
      <point x="178" y="268"/>
      <point x="175" y="262" type="curve" smooth="yes"/>
      <point x="115" y="142"/>
      <point x="25" y="6"/>
      <point x="-34" y="6" type="curve" smooth="yes"/>
      <point x="-55" y="6"/>
      <point x="-67" y="27"/>
      <point x="-67" y="60" type="curve" smooth="yes"/>
      <point x="-67" y="83"/>
      <point x="-58" y="119"/>
      <point x="-44" y="151" type="curve" smooth="yes"/>
      <point x="147" y="552" type="line"/>
      <point x="121" y="552" type="line"/>
      <point x="-2" y="283" type="line"/>
      <point x="-57" y="162" type="line" smooth="yes"/>
      <point x="-72" y="128"/>
      <point x="-79" y="94"/>
      <point x="-79" y="68" type="curve" smooth="yes"/>
      <point x="-79" y="26"/>
      <point x="-62" y="-2"/>
      <point x="-35" y="-2" type="curve" smooth="yes"/>
      <point x="13" y="-2"/>
      <point x="73" y="65"/>
      <point x="125" y="152" type="curve"/>
      <point x="115" y="124"/>
      <point x="107" y="90"/>
      <point x="107" y="69" type="curve" smooth="yes"/>
      <point x="107" y="26"/>
      <point x="125" y="-2"/>
    </contour>
    <contour>
      <point x="330" y="301" type="curve"/>
      <point x="345" y="409"/>
      <point x="424" y="541"/>
      <point x="469" y="541" type="curve" smooth="yes"/>
      <point x="482" y="541"/>
      <point x="487" y="529"/>
      <point x="487" y="510" type="curve" smooth="yes"/>
      <point x="487" y="479"/>
      <point x="472" y="427"/>
      <point x="451" y="378" type="curve" smooth="yes"/>
      <point x="419" y="309"/>
      <point x="388" y="244"/>
      <point x="356" y="193" type="curve"/>
      <point x="331" y="214"/>
      <point x="327" y="260"/>
    </contour>
    <contour>
      <point x="358" y="192" type="line"/>
      <point x="357" y="192"/>
      <point x="357" y="192"/>
      <point x="356" y="193" type="curve"/>
      <point x="356" y="192"/>
      <point x="355" y="191"/>
      <point x="355" y="191" type="curve"/>
    </contour>
  </outline>
</glyph>
<glyph name="z" format="2">
  <advance width="431"/>
  <unicode hex="007A"/>
  <outline>
    <contour>
      <point x="6" y="282" type="line"/>
      <point x="15" y="304"/>
      <point x="31" y="335"/>
      <point x="51" y="375" type="curve" smooth="yes"/>
      <point x="83" y="439"/>
      <point x="121" y="513"/>
      <point x="140" y="563" type="curve"/>
      <point x="140" y="560"/>
      <point x="141" y="558"/>
      <point x="142" y="556" type="curve"/>
      <point x="146" y="550" type="line" smooth="yes"/>
      <point x="166" y="518"/>
      <point x="223" y="499"/>
      <point x="302" y="499" type="curve" smooth="yes"/>
      <point x="311" y="499"/>
      <point x="328" y="501"/>
      <point x="344" y="503" type="curve"/>
      <point x="172" y="328" type="line"/>
      <point x="45" y="328" type="line"/>
      <point x="45" y="320" type="line"/>
      <point x="164" y="320" type="line"/>
      <point x="-66" y="86" type="line"/>
      <point x="-98" y="61"/>
      <point x="-130" y="26"/>
      <point x="-165" y="-15" type="curve"/>
      <point x="-155" y="-15" type="line"/>
      <point x="-53" y="88" type="line"/>
      <point x="-27" y="106"/>
      <point x="-1" y="119"/>
      <point x="21" y="119" type="curve" smooth="yes"/>
      <point x="38" y="119"/>
      <point x="49" y="100"/>
      <point x="63" y="80" type="curve"/>
      <point x="67" y="76"/>
      <point x="71" y="68"/>
      <point x="75" y="63" type="curve"/>
      <point x="97" y="31"/>
      <point x="128" y="-2"/>
      <point x="170" y="-2" type="curve" smooth="yes"/>
      <point x="265" y="-2"/>
      <point x="375" y="146"/>
      <point x="437" y="282" type="curve"/>
      <point x="429" y="284" type="line"/>
      <point x="370" y="157"/>
      <point x="264" y="13"/>
      <point x="177" y="13" type="curve" smooth="yes"/>
      <point x="138" y="13"/>
      <point x="118" y="42"/>
      <point x="100" y="72" type="curve"/>
      <point x="81" y="100"/>
      <point x="63" y="129"/>
      <point x="28" y="129" type="curve" smooth="yes"/>
      <point x="10" y="129"/>
      <point x="-13" y="120"/>
      <point x="-31" y="111" type="curve"/>
      <point x="173" y="320" type="line"/>
      <point x="304" y="320" type="line"/>
      <point x="304" y="328" type="line"/>
      <point x="181" y="328" type="line"/>
      <point x="355" y="506" type="line"/>
      <point x="410" y="519"/>
      <point x="485" y="548"/>
      <point x="485" y="587" type="curve" smooth="yes"/>
      <point x="485" y="600"/>
      <point x="477" y="610"/>
      <point x="466" y="610" type="curve" smooth="yes"/>
      <point x="458" y="610"/>
      <point x="445" y="606"/>
      <point x="429" y="590" type="curve" smooth="yes"/>
      <point x="365" y="525" type="line"/>
      <point x="365" y="526" type="line"/>
      <point x="337" y="518"/>
      <point x="310" y="514"/>
      <point x="295" y="514" type="curve" smooth="yes"/>
      <point x="209" y="514"/>
      <point x="146" y="536"/>
      <point x="146" y="580" type="curve"/>
      <point x="162" y="623"/>
      <point x="125" y="630"/>
      <point x="136" y="579" type="curve"/>
      <point x="119" y="531"/>
      <point x="77" y="443"/>
      <point x="41" y="372" type="curve" smooth="yes"/>
      <point x="23" y="335"/>
      <point x="7" y="304"/>
      <point x="-2" y="284" type="curve"/>
    </contour>
    <contour>
      <point x="433" y="585" type="line" smooth="yes"/>
      <point x="453" y="606"/>
      <point x="472" y="607"/>
      <point x="471" y="597" type="curve"/>
      <point x="471" y="567"/>
      <point x="424" y="544"/>
      <point x="378" y="530" type="curve"/>
    </contour>
  </outline>
</glyph>
<glyph name="cent" format="2">
  <advance width="532"/>
  <unicode hex="00A2"/>
  <outline>
    <contour>
      <point x="179" y="-126" type="line"/>
      <point x="222" y="-39" type="line"/>
      <point x="229" y="-40"/>
      <point x="238" y="-41"/>
      <point x="246" y="-41" type="curve" smooth="yes"/>
      <point x="402" y="-41"/>
      <point x="517" y="100"/>
      <point x="517" y="213" type="curve" smooth="yes"/>
      <point x="515" y="266"/>
      <point x="483" y="325"/>
      <point x="418" y="343" type="curve"/>
      <point x="455" y="415" type="line"/>
      <point x="474" y="397"/>
      <point x="503" y="382"/>
      <point x="542" y="382" type="curve" smooth="yes"/>
      <point x="641" y="382"/>
      <point x="702" y="465"/>
      <point x="702" y="529" type="curve" smooth="yes"/>
      <point x="700" y="577"/>
      <point x="669" y="641"/>
      <point x="580" y="661" type="curve"/>
      <point x="639" y="775" type="line"/>
      <point x="629" y="777" type="line"/>
      <point x="571" y="663" type="line"/>
      <point x="554" y="666"/>
      <point x="538" y="668"/>
      <point x="518" y="668" type="curve" smooth="yes"/>
      <point x="257" y="668"/>
      <point x="45" y="376"/>
      <point x="45" y="177" type="curve" smooth="yes"/>
      <point x="45" y="81"/>
      <point x="99" y="-23"/>
      <point x="214" y="-39" type="curve"/>
      <point x="170" y="-123" type="line"/>
    </contour>
    <contour>
      <point x="427" y="478" type="curve" smooth="yes"/>
      <point x="427" y="459"/>
      <point x="434" y="440"/>
      <point x="448" y="422" type="curve"/>
      <point x="410" y="345" type="line"/>
      <point x="400" y="347"/>
      <point x="387" y="349"/>
      <point x="375" y="349" type="curve" smooth="yes"/>
      <point x="275" y="349"/>
      <point x="183" y="274"/>
      <point x="183" y="174" type="curve" smooth="yes"/>
      <point x="183" y="112"/>
      <point x="223" y="76"/>
      <point x="270" y="72" type="curve"/>
      <point x="252" y="38"/>
      <point x="236" y="3"/>
      <point x="218" y="-31" type="curve"/>
      <point x="118" y="-17"/>
      <point x="62" y="69"/>
      <point x="62" y="171" type="curve" smooth="yes"/>
      <point x="62" y="367"/>
      <point x="272" y="661"/>
      <point x="518" y="661" type="curve" smooth="yes"/>
      <point x="536" y="661"/>
      <point x="553" y="660"/>
      <point x="568" y="657" type="curve"/>
      <point x="556" y="632"/>
      <point x="540" y="604"/>
      <point x="528" y="579" type="curve"/>
      <point x="462" y="578"/>
      <point x="427" y="523"/>
    </contour>
    <contour>
      <point x="281" y="72" type="line"/>
      <point x="339" y="72"/>
      <point x="395" y="120"/>
      <point x="395" y="170" type="curve" smooth="yes"/>
      <point x="395" y="184"/>
      <point x="388" y="195"/>
      <point x="379" y="204" type="curve"/>
      <point x="377" y="202" type="line"/>
      <point x="381" y="192"/>
      <point x="385" y="182"/>
      <point x="385" y="168" type="curve" smooth="yes"/>
      <point x="385" y="125"/>
      <point x="335" y="78"/>
      <point x="283" y="78" type="curve" smooth="yes"/>
      <point x="282" y="78" type="line"/>
      <point x="325" y="164"/>
      <point x="371" y="250"/>
      <point x="414" y="336" type="curve"/>
      <point x="477" y="319"/>
      <point x="503" y="264"/>
      <point x="503" y="213" type="curve" smooth="yes"/>
      <point x="503" y="100"/>
      <point x="384" y="-33"/>
      <point x="245" y="-33" type="curve" smooth="yes"/>
      <point x="241" y="-33"/>
      <point x="237" y="-32"/>
      <point x="233" y="-32" type="curve" smooth="yes"/>
      <point x="226" y="-32" type="line"/>
      <point x="280" y="73" type="line"/>
    </contour>
    <contour>
      <point x="689" y="536" type="curve" smooth="yes"/>
      <point x="689" y="473"/>
      <point x="637" y="389"/>
      <point x="542" y="389" type="curve" smooth="yes"/>
      <point x="504" y="389"/>
      <point x="477" y="404"/>
      <point x="460" y="422" type="curve"/>
      <point x="534" y="571" type="line"/>
      <point x="577" y="567"/>
      <point x="599" y="537"/>
      <point x="599" y="512" type="curve" smooth="yes"/>
      <point x="599" y="500"/>
      <point x="592" y="481"/>
      <point x="575" y="472" type="curve"/>
      <point x="577" y="468" type="line"/>
      <point x="600" y="474"/>
      <point x="607" y="500"/>
      <point x="607" y="515" type="curve" smooth="yes"/>
      <point x="607" y="540"/>
      <point x="579" y="572"/>
      <point x="538" y="578" type="curve"/>
      <point x="550" y="603"/>
      <point x="565" y="630"/>
      <point x="577" y="655" type="curve"/>
      <point x="646" y="637"/>
      <point x="687" y="589"/>
    </contour>
    <contour>
      <point x="196" y="175" type="curve" smooth="yes"/>
      <point x="196" y="270"/>
      <point x="277" y="341"/>
      <point x="373" y="341" type="curve" smooth="yes"/>
      <point x="385" y="341"/>
      <point x="395" y="341"/>
      <point x="406" y="338" type="curve"/>
      <point x="363" y="252"/>
      <point x="316" y="164"/>
      <point x="273" y="78" type="curve"/>
      <point x="236" y="82"/>
      <point x="196" y="109"/>
    </contour>
    <contour>
      <point x="439" y="478" type="curve" smooth="yes"/>
      <point x="439" y="518"/>
      <point x="467" y="570"/>
      <point x="524" y="571" type="curve"/>
      <point x="499" y="524"/>
      <point x="478" y="478"/>
      <point x="453" y="431" type="curve"/>
      <point x="443" y="446"/>
      <point x="439" y="463"/>
    </contour>
  </outline>
</glyph>
<glyph name="macron" format="2">
  <advance width="459"/>
  <unicode hex="00AF"/>
  <outline>
    <contour>
      <point x="202" y="706" type="line"/>
      <point x="462" y="706" type="line"/>
      <point x="462" y="716" type="line"/>
      <point x="202" y="716" type="line"/>
    </contour>
  </outline>
</glyph>
<glyph name="periodcentered" format="2">
  <advance width="402"/>
  <unicode hex="00B7"/>
  <outline>
    <contour>
      <point x="164" y="312" type="curve"/>
      <point x="161" y="300"/>
      <point x="166" y="286"/>
      <point x="182" y="286" type="curve" smooth="yes"/>
      <point x="196" y="286"/>
      <point x="211" y="295"/>
      <point x="215" y="310" type="curve"/>
      <point x="221" y="326"/>
      <point x="211" y="337"/>
      <point x="198" y="337" type="curve" smooth="yes"/>
      <point x="183" y="337"/>
      <point x="169" y="326"/>
    </contour>
  </outline>
</glyph>
<glyph name="cedilla" format="2">
  <advance width="175"/>
  <unicode hex="00B8"/>
  <outline>
    <contour>
      <point x="36" y="-3" type="line"/>
      <point x="26" y="-25"/>
      <point x="32" y="-41"/>
      <point x="39" y="-55" type="curve" smooth="yes"/>
      <point x="43" y="-64"/>
      <point x="47" y="-74"/>
      <point x="47" y="-84" type="curve" smooth="yes"/>
      <point x="47" y="-116"/>
      <point x="19" y="-163"/>
      <point x="-47" y="-175" type="curve"/>
      <point x="-47" y="-179" type="line"/>
      <point x="21" y="-169"/>
      <point x="65" y="-132"/>
      <point x="65" y="-97" type="curve" smooth="yes"/>
      <point x="65" y="-85"/>
      <point x="59" y="-74"/>
      <point x="53" y="-62" type="curve" smooth="yes"/>
      <point x="44" y="-45"/>
      <point x="35" y="-27"/>
      <point x="44" y="-6" type="curve"/>
    </contour>
  </outline>
</glyph>
<glyph name="onehalf" format="2">
  <advance width="827"/>
  <unicode hex="00BD"/>
  <outline>
    <contour>
      <point x="358" y="0" type="curve"/>
      <point x="360" y="0" type="line"/>
      <point x="364" y="-1"/>
      <point x="370" y="-2"/>
      <point x="378" y="-2" type="curve" smooth="yes"/>
      <point x="392" y="-2"/>
      <point x="413" y="5"/>
      <point x="436" y="17" type="curve"/>
      <point x="456" y="9" type="line" smooth="yes"/>
      <point x="481" y="-2"/>
      <point x="508" y="-13"/>
      <point x="550" y="-13" type="curve" smooth="yes"/>
      <point x="578" y="-13"/>
      <point x="608" y="-6"/>
      <point x="629" y="8" type="curve" smooth="yes"/>
      <point x="649" y="21"/>
      <point x="663" y="46"/>
      <point x="662" y="73" type="curve"/>
      <point x="655" y="74" type="line"/>
      <point x="658" y="53"/>
      <point x="640" y="35"/>
      <point x="620" y="22" type="curve" smooth="yes"/>
      <point x="599" y="7"/>
      <point x="571" y="-1"/>
      <point x="546" y="-1" type="curve" smooth="yes"/>
      <point x="507" y="-1"/>
      <point x="481" y="8"/>
      <point x="457" y="18" type="curve"/>
      <point x="455" y="18"/>
      <point x="449" y="21"/>
      <point x="446" y="22" type="curve"/>
      <point x="554" y="83"/>
      <point x="722" y="246"/>
      <point x="722" y="321" type="curve" smooth="yes"/>
      <point x="722" y="367"/>
      <point x="682" y="396"/>
      <point x="634" y="396" type="curve" smooth="yes"/>
      <point x="573" y="396"/>
      <point x="501" y="342"/>
      <point x="501" y="281" type="curve" smooth="yes"/>
      <point x="501" y="267"/>
      <point x="511" y="243"/>
      <point x="529" y="242" type="curve"/>
      <point x="530" y="246" type="line"/>
      <point x="517" y="250"/>
      <point x="514" y="266"/>
      <point x="514" y="277" type="curve" smooth="yes"/>
      <point x="514" y="334"/>
      <point x="578" y="388"/>
      <point x="634" y="388" type="curve" smooth="yes"/>
      <point x="674" y="388"/>
      <point x="708" y="371"/>
      <point x="708" y="329" type="curve" smooth="yes"/>
      <point x="708" y="261"/>
      <point x="538" y="93"/>
      <point x="434" y="28" type="curve"/>
      <point x="418" y="33"/>
      <point x="403" y="36"/>
      <point x="382" y="36" type="curve" smooth="yes"/>
      <point x="361" y="36"/>
      <point x="347" y="25"/>
      <point x="347" y="16" type="curve" smooth="yes"/>
      <point x="347" y="10"/>
      <point x="351" y="3"/>
    </contour>
    <contour>
      <point x="178" y="415" type="line"/>
      <point x="180" y="417" type="line"/>
      <point x="176" y="431"/>
      <point x="174" y="444"/>
      <point x="174" y="456" type="curve" smooth="yes"/>
      <point x="176" y="522"/>
      <point x="244" y="575"/>
      <point x="306" y="614" type="curve"/>
      <point x="254" y="538"/>
      <point x="190" y="413"/>
      <point x="145" y="298" type="curve"/>
      <point x="163" y="298" type="line"/>
      <point x="209" y="418"/>
      <point x="274" y="550"/>
      <point x="323" y="623" type="curve"/>
      <point x="342" y="635" type="line" smooth="yes"/>
      <point x="357" y="645"/>
      <point x="377" y="658"/>
      <point x="389" y="669" type="curve"/>
      <point x="389" y="668" type="line"/>
      <point x="403" y="680"/>
      <point x="398" y="692"/>
      <point x="386" y="692" type="curve" smooth="yes"/>
      <point x="370" y="692"/>
      <point x="344" y="665"/>
      <point x="316" y="628" type="curve"/>
      <point x="256" y="590"/>
      <point x="170" y="533"/>
      <point x="168" y="462" type="curve" smooth="yes"/>
      <point x="167" y="447"/>
      <point x="170" y="431"/>
      <point x="175" y="417" type="curve"/>
    </contour>
    <contour>
      <point x="369" y="8" type="line"/>
      <point x="367" y="11"/>
      <point x="367" y="13"/>
      <point x="367" y="15" type="curve" smooth="yes"/>
      <point x="367" y="20"/>
      <point x="374" y="27"/>
      <point x="388" y="27" type="curve" smooth="yes"/>
      <point x="401" y="27"/>
      <point x="412" y="25"/>
      <point x="424" y="22" type="curve"/>
      <point x="404" y="11"/>
      <point x="389" y="6"/>
      <point x="378" y="6" type="curve" smooth="yes"/>
      <point x="376" y="6"/>
      <point x="373" y="7"/>
      <point x="370" y="8" type="curve"/>
    </contour>
    <contour>
      <point x="380" y="680" type="curve" smooth="yes"/>
      <point x="386" y="680"/>
      <point x="387" y="674"/>
      <point x="380" y="669" type="curve"/>
      <point x="373" y="663"/>
      <point x="358" y="653"/>
      <point x="339" y="642" type="curve" smooth="yes"/>
      <point x="332" y="638" type="line"/>
      <point x="353" y="665"/>
      <point x="369" y="680"/>
    </contour>
    <contour>
      <point x="153" y="-126" type="line"/>
      <point x="613" y="775" type="line"/>
      <point x="604" y="777" type="line"/>
      <point x="144" y="-123" type="line"/>
    </contour>
  </outline>
</glyph>
<glyph name="questiondown" format="2">
  <advance width="469"/>
  <unicode hex="00BF"/>
  <outline>
    <contour>
      <point x="357" y="312" type="line"/>
      <point x="345" y="192"/>
      <point x="226" y="97"/>
      <point x="116" y="10" type="curve" smooth="yes"/>
      <point x="3" y="-78"/>
      <point x="-117" y="-177"/>
      <point x="-117" y="-295" type="curve" smooth="yes"/>
      <point x="-117" y="-386"/>
      <point x="-32" y="-447"/>
      <point x="62" y="-447" type="curve" smooth="yes"/>
      <point x="170" y="-447"/>
      <point x="284" y="-364"/>
      <point x="284" y="-277" type="curve" smooth="yes"/>
      <point x="284" y="-254"/>
      <point x="271" y="-216"/>
      <point x="242" y="-214" type="curve"/>
      <point x="241" y="-222" type="line"/>
      <point x="264" y="-225"/>
      <point x="268" y="-251"/>
      <point x="268" y="-269" type="curve" smooth="yes"/>
      <point x="268" y="-355"/>
      <point x="161" y="-439"/>
      <point x="58" y="-439" type="curve" smooth="yes"/>
      <point x="-24" y="-439"/>
      <point x="-96" y="-388"/>
      <point x="-96" y="-290" type="curve" smooth="yes"/>
      <point x="-96" y="-173"/>
      <point x="24" y="-74"/>
      <point x="136" y="14" type="curve" smooth="yes"/>
      <point x="245" y="101"/>
      <point x="362" y="194"/>
      <point x="373" y="312" type="curve"/>
    </contour>
    <contour>
      <point x="454" y="418" type="curve"/>
      <point x="457" y="430"/>
      <point x="452" y="444"/>
      <point x="436" y="444" type="curve" smooth="yes"/>
      <point x="422" y="444"/>
      <point x="407" y="435"/>
      <point x="403" y="420" type="curve"/>
      <point x="397" y="404"/>
      <point x="406" y="393"/>
      <point x="420" y="393" type="curve" smooth="yes"/>
      <point x="435" y="393"/>
      <point x="449" y="404"/>
    </contour>
  </outline>
</glyph>
<glyph name="Oacute" format="2">
  <advance width="879"/>
  <unicode hex="00D3"/>
  <outline>
    <contour>
      <point x="597" y="592" type="line"/>
      <point x="610" y="571"/>
      <point x="614" y="550"/>
      <point x="614" y="529" type="curve" smooth="yes"/>
      <point x="614" y="417"/>
      <point x="508" y="308"/>
      <point x="393" y="308" type="curve" smooth="yes"/>
      <point x="309" y="308"/>
      <point x="239" y="364"/>
      <point x="239" y="487" type="curve" smooth="yes"/>
      <point x="239" y="699"/>
      <point x="435" y="875"/>
      <point x="647" y="875" type="curve" smooth="yes"/>
      <point x="808" y="875"/>
      <point x="875" y="752"/>
      <point x="875" y="615" type="curve" smooth="yes"/>
      <point x="875" y="326"/>
      <point x="594" y="-85"/>
      <point x="262" y="-85" type="curve" smooth="yes"/>
      <point x="79" y="-85"/>
      <point x="-9" y="59"/>
      <point x="-9" y="238" type="curve" smooth="yes"/>
      <point x="-9" y="575"/>
      <point x="331" y="940"/>
      <point x="630" y="940" type="curve"/>
      <point x="628" y="948" type="line"/>
      <point x="329" y="948"/>
      <point x="-26" y="605"/>
      <point x="-26" y="253" type="curve" smooth="yes"/>
      <point x="-26" y="66"/>
      <point x="69" y="-98"/>
      <point x="271" y="-98" type="curve" smooth="yes"/>
      <point x="605" y="-98"/>
      <point x="889" y="308"/>
      <point x="889" y="595" type="curve" smooth="yes"/>
      <point x="889" y="748"/>
      <point x="813" y="885"/>
      <point x="647" y="885" type="curve" smooth="yes"/>
      <point x="430" y="885"/>
      <point x="221" y="709"/>
      <point x="221" y="496" type="curve" smooth="yes"/>
      <point x="221" y="368"/>
      <point x="295" y="299"/>
      <point x="387" y="299" type="curve" smooth="yes"/>
      <point x="514" y="299"/>
      <point x="631" y="412"/>
      <point x="631" y="528" type="curve" smooth="yes"/>
      <point x="631" y="554"/>
      <point x="621" y="577"/>
      <point x="606" y="599" type="curve"/>
    </contour>
    <contour>
      <point x="675" y="1126" type="line"/>
      <point x="718" y="1146"/>
      <point x="766" y="1170"/>
      <point x="809" y="1191" type="curve"/>
      <point x="818" y="1196"/>
      <point x="826" y="1202"/>
      <point x="826" y="1211" type="curve" smooth="yes"/>
      <point x="826" y="1219"/>
      <point x="821" y="1224"/>
      <point x="812" y="1224" type="curve" smooth="yes"/>
      <point x="803" y="1224"/>
      <point x="795" y="1220"/>
      <point x="791" y="1217" type="curve" smooth="yes"/>
      <point x="672" y="1132" type="line"/>
    </contour>
  </outline>
</glyph>
<glyph name="Oslash" format="2">
  <advance width="879"/>
  <unicode hex="00D8"/>
  <outline>
    <contour>
      <point x="119" y="-218" type="line"/>
      <point x="186" y="-88" type="line"/>
      <point x="212" y="-95"/>
      <point x="239" y="-98"/>
      <point x="271" y="-98" type="curve" smooth="yes"/>
      <point x="605" y="-98"/>
      <point x="889" y="308"/>
      <point x="889" y="595" type="curve" smooth="yes"/>
      <point x="889" y="736"/>
      <point x="823" y="864"/>
      <point x="683" y="883" type="curve"/>
      <point x="739" y="992" type="line"/>
      <point x="731" y="994" type="line"/>
      <point x="673" y="883" type="line"/>
      <point x="665" y="884"/>
      <point x="656" y="885"/>
      <point x="647" y="885" type="curve" smooth="yes"/>
      <point x="430" y="885"/>
      <point x="221" y="709"/>
      <point x="221" y="496" type="curve" smooth="yes"/>
      <point x="221" y="374"/>
      <point x="288" y="305"/>
      <point x="373" y="299" type="curve"/>
      <point x="182" y="-74" type="line"/>
      <point x="53" y="-38"/>
      <point x="-9" y="87"/>
      <point x="-9" y="238" type="curve" smooth="yes"/>
      <point x="-9" y="575"/>
      <point x="331" y="940"/>
      <point x="630" y="940" type="curve"/>
      <point x="628" y="948" type="line"/>
      <point x="329" y="948"/>
      <point x="-26" y="605"/>
      <point x="-26" y="253" type="curve" smooth="yes"/>
      <point x="-26" y="97"/>
      <point x="39" y="-42"/>
      <point x="176" y="-84" type="curve"/>
      <point x="110" y="-215" type="line"/>
    </contour>
    <contour>
      <point x="597" y="592" type="line"/>
      <point x="610" y="571"/>
      <point x="614" y="550"/>
      <point x="614" y="529" type="curve" smooth="yes"/>
      <point x="614" y="417"/>
      <point x="508" y="308"/>
      <point x="393" y="308" type="curve" smooth="yes"/>
      <point x="389" y="308" type="line"/>
      <point x="484" y="492"/>
      <point x="583" y="689"/>
      <point x="678" y="873" type="curve"/>
      <point x="813" y="857"/>
      <point x="875" y="741"/>
      <point x="875" y="615" type="curve" smooth="yes"/>
      <point x="875" y="326"/>
      <point x="594" y="-85"/>
      <point x="262" y="-85" type="curve" smooth="yes"/>
      <point x="236" y="-85"/>
      <point x="213" y="-82"/>
      <point x="191" y="-77" type="curve"/>
      <point x="384" y="299" type="line"/>
      <point x="387" y="299" type="line" smooth="yes"/>
      <point x="514" y="299"/>
      <point x="631" y="412"/>
      <point x="631" y="528" type="curve" smooth="yes"/>
      <point x="631" y="554"/>
      <point x="621" y="577"/>
      <point x="606" y="599" type="curve"/>
    </contour>
    <contour>
      <point x="239" y="487" type="curve" smooth="yes"/>
      <point x="239" y="699"/>
      <point x="435" y="875"/>
      <point x="647" y="875" type="curve" smooth="yes"/>
      <point x="652" y="875"/>
      <point x="656" y="874"/>
      <point x="660" y="874" type="curve" smooth="yes"/>
      <point x="668" y="874" type="line"/>
      <point x="379" y="308" type="line"/>
      <point x="304" y="316"/>
      <point x="239" y="373"/>
    </contour>
  </outline>
</glyph>
<glyph name="Thorn" format="2">
  <advance width="1035"/>
  <unicode hex="00DE"/>
  <outline>
    <contour>
      <point x="566" y="67" type="curve" smooth="yes"/>
      <point x="510" y="67"/>
      <point x="463" y="93"/>
      <point x="463" y="130" type="curve" smooth="yes"/>
      <point x="463" y="140"/>
      <point x="467" y="150"/>
      <point x="474" y="158" type="curve"/>
      <point x="472" y="161" type="line"/>
      <point x="459" y="151"/>
      <point x="455" y="138"/>
      <point x="455" y="130" type="curve" smooth="yes"/>
      <point x="455" y="89"/>
      <point x="506" y="59"/>
      <point x="566" y="59" type="curve" smooth="yes"/>
      <point x="729" y="59"/>
      <point x="992" y="202"/>
      <point x="992" y="436" type="curve" smooth="yes"/>
      <point x="992" y="543"/>
      <point x="899" y="608"/>
      <point x="809" y="608" type="curve" smooth="yes"/>
      <point x="726" y="608"/>
      <point x="648" y="570"/>
      <point x="579" y="516" type="curve"/>
      <point x="572" y="538"/>
      <point x="556" y="558"/>
      <point x="539" y="572" type="curve"/>
      <point x="595" y="650"/>
      <point x="656" y="710"/>
      <point x="725" y="728" type="curve"/>
      <point x="762" y="740"/>
      <point x="820" y="766"/>
      <point x="820" y="810" type="curve" smooth="yes"/>
      <point x="820" y="866"/>
      <point x="728" y="894"/>
      <point x="626" y="894" type="curve" smooth="yes"/>
      <point x="342" y="894"/>
      <point x="109" y="630"/>
      <point x="109" y="422" type="curve" smooth="yes"/>
      <point x="109" y="312"/>
      <point x="167" y="191"/>
      <point x="309" y="191" type="curve"/>
      <point x="299" y="171" type="line" smooth="yes"/>
      <point x="221" y="30"/>
      <point x="53" y="-203"/>
      <point x="-129" y="-192" type="curve" smooth="yes"/>
      <point x="-175" y="-190"/>
      <point x="-243" y="-153"/>
      <point x="-243" y="-84" type="curve" smooth="yes"/>
      <point x="-243" y="-70"/>
      <point x="-240" y="-53"/>
      <point x="-232" y="-35" type="curve"/>
      <point x="-236" y="-33" type="line"/>
      <point x="-247" y="-55"/>
      <point x="-251" y="-75"/>
      <point x="-251" y="-94" type="curve" smooth="yes"/>
      <point x="-251" y="-166"/>
      <point x="-182" y="-201"/>
      <point x="-129" y="-203" type="curve" smooth="yes"/>
      <point x="101" y="-215"/>
      <point x="235" y="2"/>
      <point x="330" y="182" type="curve"/>
      <point x="329" y="182" type="line"/>
      <point x="332" y="187" type="line"/>
      <point x="332" y="188"/>
      <point x="334" y="191"/>
      <point x="335" y="192" type="curve"/>
      <point x="467" y="206"/>
      <point x="589" y="322"/>
      <point x="589" y="459" type="curve" smooth="yes"/>
      <point x="589" y="477"/>
      <point x="587" y="491"/>
      <point x="583" y="505" type="curve"/>
      <point x="653" y="560"/>
      <point x="729" y="600"/>
      <point x="809" y="600" type="curve" smooth="yes"/>
      <point x="902" y="600"/>
      <point x="972" y="536"/>
      <point x="972" y="444" type="curve" smooth="yes"/>
      <point x="972" y="216"/>
      <point x="720" y="67"/>
    </contour>
    <contour>
      <point x="635" y="885" type="curve" smooth="yes"/>
      <point x="733" y="885"/>
      <point x="802" y="857"/>
      <point x="802" y="805" type="curve" smooth="yes"/>
      <point x="802" y="771"/>
      <point x="757" y="749"/>
      <point x="725" y="738" type="curve" smooth="yes"/>
      <point x="656" y="715"/>
      <point x="588" y="653"/>
      <point x="530" y="577" type="curve"/>
      <point x="507" y="592"/>
      <point x="478" y="601"/>
      <point x="448" y="601" type="curve" smooth="yes"/>
      <point x="352" y="601"/>
      <point x="262" y="523"/>
      <point x="262" y="443" type="curve" smooth="yes"/>
      <point x="262" y="424"/>
      <point x="269" y="408"/>
      <point x="282" y="392" type="curve"/>
      <point x="292" y="394" type="line"/>
      <point x="279" y="409"/>
      <point x="275" y="425"/>
      <point x="275" y="440" type="curve" smooth="yes"/>
      <point x="275" y="517"/>
      <point x="356" y="592"/>
      <point x="447" y="592" type="curve" smooth="yes"/>
      <point x="474" y="592"/>
      <point x="502" y="585"/>
      <point x="524" y="569" type="curve"/>
      <point x="451" y="469"/>
      <point x="386" y="342"/>
      <point x="335" y="241" type="curve" smooth="yes"/>
      <point x="330" y="230"/>
      <point x="319" y="210"/>
      <point x="313" y="199" type="curve"/>
      <point x="310" y="199" type="line" smooth="yes"/>
      <point x="172" y="199"/>
      <point x="122" y="309"/>
      <point x="122" y="408" type="curve" smooth="yes"/>
      <point x="122" y="613"/>
      <point x="357" y="885"/>
    </contour>
    <contour>
      <point x="364" y="250" type="line"/>
      <point x="411" y="324"/>
      <point x="482" y="421"/>
      <point x="570" y="494" type="curve"/>
      <point x="572" y="483"/>
      <point x="573" y="473"/>
      <point x="573" y="460" type="curve" smooth="yes"/>
      <point x="573" y="327"/>
      <point x="462" y="215"/>
      <point x="339" y="200" type="curve"/>
    </contour>
    <contour>
      <point x="567" y="506" type="curve"/>
      <point x="500" y="448"/>
      <point x="438" y="375"/>
      <point x="393" y="311" type="curve"/>
      <point x="431" y="390"/>
      <point x="482" y="488"/>
      <point x="533" y="562" type="curve"/>
      <point x="548" y="548"/>
      <point x="560" y="531"/>
    </contour>
    <contour>
      <point x="531" y="564" type="line"/>
      <point x="531" y="563"/>
      <point x="532" y="563"/>
      <point x="533" y="562" type="curve"/>
      <point x="533" y="563"/>
      <point x="533" y="563"/>
      <point x="534" y="564" type="curve"/>
    </contour>
  </outline>
</glyph>
<glyph name="ydieresis" format="2">
  <advance width="570"/>
  <unicode hex="00FF"/>
  <outline>
    <contour>
      <point x="228" y="567" type="curve" smooth="yes"/>
      <point x="157" y="567"/>
      <point x="61" y="420"/>
      <point x="-2" y="284" type="curve"/>
      <point x="6" y="282" type="line"/>
      <point x="66" y="410"/>
      <point x="161" y="558"/>
      <point x="228" y="558" type="curve" smooth="yes"/>
      <point x="249" y="558"/>
      <point x="276" y="546"/>
      <point x="269" y="493" type="curve" smooth="yes"/>
      <point x="263" y="441"/>
      <point x="234" y="399"/>
      <point x="203" y="353" type="curve" smooth="yes"/>
      <point x="173" y="307" type="line" smooth="yes"/>
      <point x="128" y="236"/>
      <point x="91" y="170"/>
      <point x="83" y="94" type="curve" smooth="yes"/>
      <point x="78" y="44"/>
      <point x="101" y="-2"/>
      <point x="139" y="-2" type="curve" smooth="yes"/>
      <point x="196" y="-2"/>
      <point x="260" y="69"/>
      <point x="327" y="155" type="curve"/>
      <point x="321" y="138"/>
      <point x="321" y="137"/>
      <point x="316" y="120" type="curve" smooth="yes"/>
      <point x="304" y="84"/>
      <point x="291" y="45"/>
      <point x="279" y="12" type="curve" smooth="yes"/>
      <point x="255" y="-54" type="line"/>
      <point x="200" y="-90"/>
      <point x="148" y="-120"/>
      <point x="102" y="-147" type="curve" smooth="yes"/>
      <point x="24" y="-193"/>
      <point x="-70" y="-248"/>
      <point x="-124" y="-313" type="curve" smooth="yes"/>
      <point x="-149" y="-344"/>
      <point x="-165" y="-382"/>
      <point x="-166" y="-418" type="curve" smooth="yes"/>
      <point x="-169" y="-460"/>
      <point x="-147" y="-495"/>
      <point x="-94" y="-499" type="curve" smooth="yes"/>
      <point x="-23" y="-504"/>
      <point x="91" y="-446"/>
      <point x="170" y="-308" type="curve" smooth="yes"/>
      <point x="198" y="-257"/>
      <point x="222" y="-184"/>
      <point x="248" y="-106" type="curve" smooth="yes"/>
      <point x="264" y="-59" type="line"/>
      <point x="378" y="16"/>
      <point x="500" y="123"/>
      <point x="576" y="282" type="curve"/>
      <point x="568" y="284" type="line"/>
      <point x="496" y="130"/>
      <point x="380" y="31"/>
      <point x="268" y="-45" type="curve"/>
      <point x="272" y="-35" type="line"/>
      <point x="288" y="10" type="line"/>
      <point x="305" y="57" type="line"/>
      <point x="354" y="193" type="line"/>
      <point x="404" y="262"/>
      <point x="452" y="343"/>
      <point x="478" y="400" type="curve" smooth="yes"/>
      <point x="518" y="486"/>
      <point x="562" y="567"/>
      <point x="529" y="567" type="curve" smooth="yes"/>
      <point x="513" y="567"/>
      <point x="471" y="511"/>
      <point x="411" y="378" type="curve" smooth="yes"/>
      <point x="402" y="358" type="line" smooth="yes"/>
      <point x="379" y="304"/>
      <point x="358" y="244"/>
      <point x="338" y="187" type="curve"/>
      <point x="268" y="92"/>
      <point x="194" y="7"/>
      <point x="139" y="7" type="curve" smooth="yes"/>
      <point x="111" y="7"/>
      <point x="90" y="40"/>
      <point x="96" y="86" type="curve" smooth="yes"/>
      <point x="104" y="157"/>
      <point x="142" y="216"/>
      <point x="184" y="281" type="curve" smooth="yes"/>
      <point x="195" y="298" type="line" smooth="yes"/>
      <point x="233" y="356"/>
      <point x="272" y="434"/>
      <point x="280" y="490" type="curve" smooth="yes"/>
      <point x="285" y="543"/>
      <point x="252" y="567"/>
    </contour>
    <contour>
      <point x="148" y="-305" type="curve" smooth="yes"/>
      <point x="77" y="-433"/>
      <point x="-28" y="-496"/>
      <point x="-93" y="-491" type="curve" smooth="yes"/>
      <point x="-137" y="-488"/>
      <point x="-160" y="-463"/>
      <point x="-158" y="-425" type="curve" smooth="yes"/>
      <point x="-156" y="-390"/>
      <point x="-137" y="-356"/>
      <point x="-112" y="-323" type="curve" smooth="yes"/>
      <point x="-61" y="-259"/>
      <point x="44" y="-192"/>
      <point x="105" y="-155" type="curve" smooth="yes"/>
      <point x="127" y="-142" type="line" smooth="yes"/>
      <point x="165" y="-120"/>
      <point x="207" y="-96"/>
      <point x="250" y="-69" type="curve"/>
      <point x="216" y="-161"/>
      <point x="185" y="-243"/>
    </contour>
    <contour>
      <point x="529" y="558" type="curve" smooth="yes"/>
      <point x="541" y="558"/>
      <point x="512" y="491"/>
      <point x="470" y="405" type="curve" smooth="yes"/>
      <point x="449" y="357"/>
      <point x="412" y="291"/>
      <point x="368" y="228" type="curve"/>
      <point x="387" y="276"/>
      <point x="401" y="310"/>
      <point x="423" y="356" type="curve" smooth="yes"/>
      <point x="430" y="371" type="line" smooth="yes"/>
      <point x="501" y="518"/>
      <point x="522" y="558"/>
    </contour>
    <contour>
      <point x="391" y="735" type="line"/>
      <point x="389" y="725"/>
      <point x="394" y="715"/>
      <point x="406" y="715" type="curve" smooth="yes"/>
      <point x="417" y="715"/>
      <point x="429" y="722"/>
      <point x="432" y="734" type="curve"/>
      <point x="437" y="747"/>
      <point x="430" y="756"/>
      <point x="418" y="756" type="curve" smooth="yes"/>
      <point x="406" y="756"/>
      <point x="395" y="748"/>
      <point x="391" y="736" type="curve"/>
    </contour>
    <contour>
      <point x="496" y="735" type="line"/>
      <point x="494" y="725"/>
      <point x="499" y="715"/>
      <point x="511" y="715" type="curve" smooth="yes"/>
      <point x="522" y="715"/>
      <point x="534" y="722"/>
      <point x="537" y="734" type="curve"/>
      <point x="542" y="747"/>
      <point x="535" y="756"/>
      <point x="523" y="756" type="curve" smooth="yes"/>
      <point x="511" y="756"/>
      <point x="500" y="748"/>
      <point x="496" y="736" type="curve"/>
    </contour>
  </outline>
</glyph>
<glyph name="Dcroat" format="2">
  <advance width="961"/>
  <unicode hex="0110"/>
  <outline>
    <contour>
      <point x="-86" y="16" type="curve" smooth="yes"/>
      <point x="-53" y="16"/>
      <point x="-21" y="19"/>
      <point x="6" y="25" type="curve"/>
      <point x="26" y="17"/>
      <point x="52" y="4"/>
      <point x="73" y="-7" type="curve" smooth="yes"/>
      <point x="137" y="-41"/>
      <point x="211" y="-79"/>
      <point x="318" y="-79" type="curve" smooth="yes"/>
      <point x="616" y="-79"/>
      <point x="929" y="224"/>
      <point x="952" y="539" type="curve" smooth="yes"/>
      <point x="959" y="707"/>
      <point x="883" y="874"/>
      <point x="713" y="923" type="curve"/>
      <point x="715" y="924"/>
      <point x="714" y="924"/>
      <point x="716" y="926" type="curve" smooth="yes"/>
      <point x="719" y="929" type="line" smooth="yes"/>
      <point x="756" y="969"/>
      <point x="803" y="1003"/>
      <point x="853" y="1003" type="curve"/>
      <point x="853" y="1012" type="line"/>
      <point x="811" y="1012"/>
      <point x="754" y="972"/>
      <point x="706" y="925" type="curve"/>
      <point x="674" y="934"/>
      <point x="638" y="939"/>
      <point x="599" y="939" type="curve" smooth="yes"/>
      <point x="328" y="938"/>
      <point x="108" y="692"/>
      <point x="93" y="490" type="curve" smooth="yes"/>
      <point x="89" y="382"/>
      <point x="141" y="253"/>
      <point x="270" y="234" type="curve"/>
      <point x="202" y="144"/>
      <point x="111" y="66"/>
      <point x="3" y="37" type="curve"/>
      <point x="-27" y="49"/>
      <point x="-58" y="58"/>
      <point x="-94" y="58" type="curve" smooth="yes"/>
      <point x="-118" y="58"/>
      <point x="-130" y="49"/>
      <point x="-130" y="39" type="curve" smooth="yes"/>
      <point x="-130" y="28"/>
      <point x="-115" y="16"/>
    </contour>
    <contour>
      <point x="308" y="231" type="line" smooth="yes"/>
      <point x="488" y="231"/>
      <point x="654" y="371"/>
      <point x="669" y="540" type="curve" smooth="yes"/>
      <point x="677" y="637"/>
      <point x="631" y="697"/>
      <point x="567" y="717" type="curve"/>
      <point x="613" y="793"/>
      <point x="662" y="868"/>
      <point x="706" y="918" type="curve"/>
      <point x="859" y="878"/>
      <point x="935" y="722"/>
      <point x="931" y="559" type="curve"/>
      <point x="902" y="255"/>
      <point x="611" y="-71"/>
      <point x="316" y="-71" type="curve" smooth="yes"/>
      <point x="211" y="-71"/>
      <point x="140" y="-33"/>
      <point x="74" y="2" type="curve" smooth="yes"/>
      <point x="22" y="28" type="line"/>
      <point x="141" y="55"/>
      <point x="230" y="136"/>
      <point x="298" y="231" type="curve"/>
    </contour>
    <contour>
      <point x="599" y="930" type="curve" smooth="yes"/>
      <point x="610" y="930" type="line" smooth="yes"/>
      <point x="641" y="930"/>
      <point x="672" y="926"/>
      <point x="699" y="920" type="curve"/>
      <point x="650" y="867"/>
      <point x="598" y="793"/>
      <point x="553" y="721" type="curve"/>
      <point x="541" y="724"/>
      <point x="525" y="726"/>
      <point x="512" y="726" type="curve" smooth="yes"/>
      <point x="413" y="726"/>
      <point x="320" y="646"/>
      <point x="309" y="564" type="curve" smooth="yes"/>
      <point x="306" y="536"/>
      <point x="314" y="512"/>
      <point x="333" y="491" type="curve"/>
      <point x="339" y="497" type="line"/>
      <point x="325" y="517"/>
      <point x="320" y="541"/>
      <point x="323" y="564" type="curve" smooth="yes"/>
      <point x="330" y="644"/>
      <point x="415" y="718"/>
      <point x="509" y="718" type="curve" smooth="yes"/>
      <point x="521" y="718"/>
      <point x="536" y="716"/>
      <point x="548" y="713" type="curve"/>
      <point x="491" y="622"/>
      <point x="428" y="506"/>
      <point x="379" y="417" type="curve"/>
      <point x="219" y="417" type="line"/>
      <point x="219" y="408" type="line"/>
      <point x="374" y="408" type="line"/>
      <point x="349" y="360" type="line" smooth="yes"/>
      <point x="333" y="330"/>
      <point x="296" y="271"/>
      <point x="276" y="241" type="curve"/>
      <point x="156" y="258"/>
      <point x="106" y="380"/>
      <point x="106" y="475" type="curve"/>
      <point x="122" y="673"/>
      <point x="339" y="924"/>
    </contour>
    <contour>
      <point x="303" y="239" type="line"/>
      <point x="330" y="279"/>
      <point x="353" y="320"/>
      <point x="377" y="365" type="curve" smooth="yes"/>
      <point x="399" y="408" type="line"/>
      <point x="551" y="408" type="line"/>
      <point x="551" y="417" type="line"/>
      <point x="403" y="417" type="line"/>
      <point x="431" y="469" type="line" smooth="yes"/>
      <point x="472" y="548"/>
      <point x="515" y="630"/>
      <point x="562" y="708" type="curve"/>
      <point x="615" y="688"/>
      <point x="657" y="632"/>
      <point x="650" y="541" type="curve" smooth="yes"/>
      <point x="632" y="377"/>
      <point x="480" y="239"/>
      <point x="309" y="239" type="curve" smooth="yes"/>
    </contour>
    <contour>
      <point x="-86" y="26" type="curve" smooth="yes"/>
      <point x="-103" y="26"/>
      <point x="-111" y="30"/>
      <point x="-111" y="35" type="curve" smooth="yes"/>
      <point x="-111" y="40"/>
      <point x="-102" y="46"/>
      <point x="-86" y="46" type="curve" smooth="yes"/>
      <point x="-62" y="46"/>
      <point x="-36" y="41"/>
      <point x="-13" y="33" type="curve"/>
      <point x="-36" y="28"/>
      <point x="-62" y="26"/>
    </contour>
  </outline>
</glyph>
<glyph name="dcroat" format="2">
  <advance width="446"/>
  <unicode hex="0111"/>
  <outline>
    <contour>
      <point x="368" y="676" type="line"/>
      <point x="437" y="676" type="line"/>
      <point x="363" y="513"/>
      <point x="287" y="353"/>
      <point x="213" y="190" type="curve" smooth="yes"/>
      <point x="155" y="73"/>
      <point x="71" y="-4"/>
      <point x="20" y="-4" type="curve" smooth="yes"/>
      <point x="-13" y="-4"/>
      <point x="-28" y="27"/>
      <point x="-28" y="79" type="curve" smooth="yes"/>
      <point x="-28" y="91"/>
      <point x="-27" y="108"/>
      <point x="-25" y="123" type="curve" smooth="yes"/>
      <point x="-18" y="171"/>
      <point x="-5" y="221"/>
      <point x="16" y="274" type="curve"/>
      <point x="84" y="423"/>
      <point x="195" y="556"/>
      <point x="261" y="556" type="curve" smooth="yes"/>
      <point x="309" y="556"/>
      <point x="322" y="523"/>
      <point x="316" y="485" type="curve" smooth="yes"/>
      <point x="311" y="449"/>
      <point x="291" y="408"/>
      <point x="264" y="382" type="curve"/>
      <point x="265" y="375" type="line"/>
      <point x="298" y="405"/>
      <point x="323" y="449"/>
      <point x="328" y="485" type="curve" smooth="yes"/>
      <point x="333" y="527"/>
      <point x="312" y="565"/>
      <point x="261" y="565" type="curve" smooth="yes"/>
      <point x="182" y="565"/>
      <point x="63" y="440"/>
      <point x="-3" y="281" type="curve" smooth="yes"/>
      <point x="-27" y="217"/>
      <point x="-46" y="154"/>
      <point x="-46" y="93" type="curve" smooth="yes"/>
      <point x="-46" y="28"/>
      <point x="-22" y="-14"/>
      <point x="18" y="-14" type="curve" smooth="yes"/>
      <point x="62" y="-14"/>
      <point x="134" y="40"/>
      <point x="185" y="120" type="curve"/>
      <point x="181" y="103"/>
      <point x="179" y="85"/>
      <point x="179" y="69" type="curve" smooth="yes"/>
      <point x="179" y="26"/>
      <point x="197" y="-2"/>
      <point x="224" y="-2" type="curve" smooth="yes"/>
      <point x="294" y="-2"/>
      <point x="390" y="146"/>
      <point x="452" y="282" type="curve"/>
      <point x="444" y="284" type="line"/>
      <point x="385" y="156"/>
      <point x="290" y="6"/>
      <point x="224" y="6" type="curve" smooth="yes"/>
      <point x="203" y="6"/>
      <point x="191" y="27"/>
      <point x="191" y="60" type="curve" smooth="yes"/>
      <point x="191" y="84"/>
      <point x="198" y="117"/>
      <point x="214" y="151" type="curve" smooth="yes"/>
      <point x="460" y="676" type="line"/>
      <point x="533" y="676" type="line"/>
      <point x="533" y="685" type="line"/>
      <point x="463" y="685" type="line"/>
      <point x="598" y="973" type="line"/>
      <point x="573" y="973" type="line"/>
      <point x="441" y="685" type="line"/>
      <point x="368" y="685" type="line"/>
    </contour>
  </outline>
</glyph>
<glyph name="emacron" format="2">
  <advance width="345"/>
  <unicode hex="0113"/>
  <outline>
    <contour>
      <point x="343" y="284" type="line"/>
      <point x="278" y="147"/>
      <point x="169" y="-4"/>
      <point x="56" y="-4" type="curve" smooth="yes"/>
      <point x="11" y="-4"/>
      <point x="-19" y="37"/>
      <point x="-19" y="111" type="curve" smooth="yes"/>
      <point x="-19" y="128"/>
      <point x="-17" y="147"/>
      <point x="-14" y="167" type="curve" smooth="yes"/>
      <point x="-3" y="228"/>
      <point x="19" y="286"/>
      <point x="48" y="341" type="curve"/>
      <point x="53" y="318"/>
      <point x="80" y="290"/>
      <point x="124" y="290" type="curve" smooth="yes"/>
      <point x="211" y="290"/>
      <point x="323" y="422"/>
      <point x="323" y="500" type="curve" smooth="yes"/>
      <point x="323" y="532"/>
      <point x="303" y="565"/>
      <point x="267" y="565" type="curve" smooth="yes"/>
      <point x="176" y="565"/>
      <point x="4" y="380"/>
      <point x="-32" y="175" type="curve" smooth="yes"/>
      <point x="-35" y="156"/>
      <point x="-37" y="134"/>
      <point x="-37" y="117" type="curve" smooth="yes"/>
      <point x="-37" y="35"/>
      <point x="-1" y="-14"/>
      <point x="56" y="-14" type="curve" smooth="yes"/>
      <point x="172" y="-14"/>
      <point x="283" y="140"/>
      <point x="351" y="282" type="curve"/>
    </contour>
    <contour>
      <point x="119" y="299" type="curve" smooth="yes"/>
      <point x="80" y="299"/>
      <point x="57" y="330"/>
      <point x="55" y="350" type="curve"/>
      <point x="115" y="463"/>
      <point x="209" y="556"/>
      <point x="266" y="556" type="curve" smooth="yes"/>
      <point x="295" y="556"/>
      <point x="308" y="534"/>
      <point x="308" y="507" type="curve" smooth="yes"/>
      <point x="308" y="418"/>
      <point x="200" y="299"/>
    </contour>
    <contour>
      <point x="184" y="706" type="line"/>
      <point x="444" y="706" type="line"/>
      <point x="444" y="716" type="line"/>
      <point x="184" y="716" type="line"/>
    </contour>
  </outline>
</glyph>
<glyph name="Imacron" format="2">
  <advance width="602"/>
  <unicode hex="012A"/>
  <outline>
    <contour>
      <point x="613" y="938" type="curve" smooth="yes"/>
      <point x="329" y="938"/>
      <point x="102" y="674"/>
      <point x="106" y="466" type="curve" smooth="yes"/>
      <point x="108" y="356"/>
      <point x="169" y="235"/>
      <point x="311" y="235" type="curve" smooth="yes"/>
      <point x="312" y="235" type="line"/>
      <point x="227" y="104"/>
      <point x="101" y="-49"/>
      <point x="-50" y="-40" type="curve" smooth="yes"/>
      <point x="-96" y="-38"/>
      <point x="-167" y="0"/>
      <point x="-167" y="70" type="curve" smooth="yes"/>
      <point x="-167" y="84"/>
      <point x="-164" y="100"/>
      <point x="-157" y="117" type="curve"/>
      <point x="-161" y="119" type="line"/>
      <point x="-171" y="99"/>
      <point x="-175" y="79"/>
      <point x="-175" y="61" type="curve" smooth="yes"/>
      <point x="-175" y="-13"/>
      <point x="-104" y="-49"/>
      <point x="-50" y="-51" type="curve" smooth="yes"/>
      <point x="132" y="-61"/>
      <point x="251" y="90"/>
      <point x="342" y="237" type="curve"/>
      <point x="469" y="254"/>
      <point x="588" y="370"/>
      <point x="585" y="503" type="curve" smooth="yes"/>
      <point x="584" y="545"/>
      <point x="567" y="580"/>
      <point x="545" y="604" type="curve"/>
      <point x="594" y="680"/>
      <point x="653" y="752"/>
      <point x="717" y="772" type="curve" smooth="yes"/>
      <point x="752" y="784"/>
      <point x="810" y="809"/>
      <point x="809" y="854" type="curve" smooth="yes"/>
      <point x="808" y="910"/>
      <point x="715" y="938"/>
    </contour>
    <contour>
      <point x="622" y="929" type="curve" smooth="yes"/>
      <point x="720" y="929"/>
      <point x="790" y="901"/>
      <point x="791" y="849" type="curve" smooth="yes"/>
      <point x="792" y="814"/>
      <point x="748" y="793"/>
      <point x="715" y="782" type="curve" smooth="yes"/>
      <point x="648" y="757"/>
      <point x="590" y="690"/>
      <point x="536" y="613" type="curve"/>
      <point x="510" y="634"/>
      <point x="477" y="645"/>
      <point x="441" y="645" type="curve" smooth="yes"/>
      <point x="345" y="645"/>
      <point x="257" y="567"/>
      <point x="259" y="487" type="curve" smooth="yes"/>
      <point x="259" y="468"/>
      <point x="266" y="452"/>
      <point x="280" y="436" type="curve"/>
      <point x="289" y="438" type="line"/>
      <point x="275" y="453"/>
      <point x="272" y="468"/>
      <point x="272" y="484" type="curve" smooth="yes"/>
      <point x="270" y="561"/>
      <point x="349" y="636"/>
      <point x="440" y="636" type="curve" smooth="yes"/>
      <point x="473" y="636"/>
      <point x="507" y="624"/>
      <point x="530" y="603" type="curve"/>
      <point x="487" y="539"/>
      <point x="445" y="464"/>
      <point x="412" y="404" type="curve" smooth="yes"/>
      <point x="395" y="373"/>
      <point x="380" y="345"/>
      <point x="366" y="322" type="curve" smooth="yes"/>
      <point x="352" y="299"/>
      <point x="336" y="270"/>
      <point x="318" y="243" type="curve"/>
      <point x="312" y="243" type="line" smooth="yes"/>
      <point x="174" y="243"/>
      <point x="121" y="353"/>
      <point x="119" y="452" type="curve" smooth="yes"/>
      <point x="115" y="657"/>
      <point x="344" y="929"/>
    </contour>
    <contour>
      <point x="400" y="334" type="line" smooth="yes"/>
      <point x="415" y="360"/>
      <point x="432" y="394"/>
      <point x="451" y="430" type="curve" smooth="yes"/>
      <point x="477" y="481"/>
      <point x="506" y="541"/>
      <point x="538" y="594" type="curve"/>
      <point x="556" y="572"/>
      <point x="568" y="542"/>
      <point x="569" y="504" type="curve" smooth="yes"/>
      <point x="572" y="373"/>
      <point x="467" y="262"/>
      <point x="347" y="245" type="curve"/>
    </contour>
    <contour>
      <point x="611" y="1138" type="line"/>
      <point x="871" y="1138" type="line"/>
      <point x="871" y="1148" type="line"/>
      <point x="611" y="1148" type="line"/>
    </contour>
  </outline>
</glyph>
<glyph name="lcaron" format="2">
  <advance width="355"/>
  <unicode hex="013E"/>
  <outline>
    <contour>
      <point x="314" y="973" type="line"/>
      <point x="-57" y="162" type="line" smooth="yes"/>
      <point x="-72" y="128"/>
      <point x="-79" y="94"/>
      <point x="-79" y="68" type="curve" smooth="yes"/>
      <point x="-79" y="26"/>
      <point x="-62" y="-2"/>
      <point x="-35" y="-2" type="curve" smooth="yes"/>
      <point x="35" y="-2"/>
      <point x="131" y="146"/>
      <point x="193" y="282" type="curve"/>
      <point x="185" y="284" type="line"/>
      <point x="126" y="156"/>
      <point x="31" y="6"/>
      <point x="-34" y="6" type="curve" smooth="yes"/>
      <point x="-55" y="6"/>
      <point x="-67" y="27"/>
      <point x="-67" y="60" type="curve" smooth="yes"/>
      <point x="-67" y="84"/>
      <point x="-60" y="117"/>
      <point x="-44" y="151" type="curve" smooth="yes"/>
      <point x="339" y="973" type="line"/>
    </contour>
    <contour>
      <point x="398" y="776" type="curve" smooth="yes"/>
      <point x="382" y="776"/>
      <point x="367" y="762"/>
      <point x="367" y="747" type="curve" smooth="yes"/>
      <point x="367" y="738"/>
      <point x="372" y="729"/>
      <point x="384" y="729" type="curve" smooth="yes"/>
      <point x="391" y="729" type="line"/>
      <point x="392" y="727"/>
      <point x="390" y="721"/>
      <point x="389" y="719" type="curve"/>
      <point x="375" y="699"/>
      <point x="360" y="681"/>
      <point x="340" y="667" type="curve"/>
      <point x="342" y="658" type="line"/>
      <point x="373" y="679"/>
      <point x="416" y="722"/>
      <point x="416" y="753" type="curve" smooth="yes"/>
      <point x="416" y="767"/>
      <point x="407" y="776"/>
    </contour>
  </outline>
</glyph>
<glyph name="Lslash" format="2">
  <advance width="642"/>
  <unicode hex="0141"/>
  <outline>
    <contour>
      <point x="128" y="227" type="line"/>
      <point x="273" y="227" type="line"/>
      <point x="208" y="146"/>
      <point x="122" y="77"/>
      <point x="23" y="46" type="curve"/>
      <point x="-9" y="55"/>
      <point x="-47" y="64"/>
      <point x="-92" y="64" type="curve" smooth="yes"/>
      <point x="-117" y="64"/>
      <point x="-130" y="55"/>
      <point x="-130" y="45" type="curve" smooth="yes"/>
      <point x="-130" y="34"/>
      <point x="-113" y="21"/>
      <point x="-83" y="21" type="curve" smooth="yes"/>
      <point x="-45" y="21"/>
      <point x="-10" y="24"/>
      <point x="22" y="31" type="curve"/>
      <point x="90" y="7"/>
      <point x="175" y="-44"/>
      <point x="238" y="-83" type="curve" smooth="yes"/>
      <point x="350" y="-153"/>
      <point x="504" y="-242"/>
      <point x="648" y="-242" type="curve" smooth="yes"/>
      <point x="836" y="-242"/>
      <point x="943" y="-119"/>
      <point x="918" y="-31" type="curve"/>
      <point x="909" y="-33" type="line"/>
      <point x="932" y="-117"/>
      <point x="804" y="-222"/>
      <point x="624" y="-222" type="curve" smooth="yes"/>
      <point x="480" y="-222"/>
      <point x="356" y="-145"/>
      <point x="243" y="-74" type="curve" smooth="yes"/>
      <point x="201" y="-47" type="line" smooth="yes"/>
      <point x="152" y="-14"/>
      <point x="106" y="17"/>
      <point x="49" y="38" type="curve"/>
      <point x="160" y="68"/>
      <point x="240" y="139"/>
      <point x="305" y="227" type="curve"/>
      <point x="460" y="227" type="line"/>
      <point x="460" y="236" type="line"/>
      <point x="312" y="236" type="line"/>
      <point x="329" y="260"/>
      <point x="345" y="286"/>
      <point x="361" y="311" type="curve"/>
      <point x="652" y="338"/>
      <point x="912" y="715"/>
      <point x="912" y="872" type="curve" smooth="yes"/>
      <point x="912" y="919"/>
      <point x="886" y="972"/>
      <point x="836" y="972" type="curve" smooth="yes"/>
      <point x="678" y="972"/>
      <point x="508" y="643"/>
      <point x="407" y="448" type="curve" smooth="yes"/>
      <point x="372" y="381" type="line" smooth="yes"/>
      <point x="362" y="361"/>
      <point x="349" y="339"/>
      <point x="338" y="319" type="curve"/>
      <point x="329" y="319" type="line" smooth="yes"/>
      <point x="183" y="319"/>
      <point x="56" y="415"/>
      <point x="56" y="567" type="curve" smooth="yes"/>
      <point x="56" y="710"/>
      <point x="169" y="815"/>
      <point x="287" y="815" type="curve" smooth="yes"/>
      <point x="372" y="815"/>
      <point x="426" y="759"/>
      <point x="426" y="693" type="curve" smooth="yes"/>
      <point x="426" y="628"/>
      <point x="375" y="545"/>
      <point x="292" y="545" type="curve" smooth="yes"/>
      <point x="280" y="545"/>
      <point x="239" y="547"/>
      <point x="223" y="588" type="curve"/>
      <point x="213" y="586" type="line"/>
      <point x="234" y="544"/>
      <point x="271" y="537"/>
      <point x="295" y="537" type="curve" smooth="yes"/>
      <point x="386" y="537"/>
      <point x="440" y="623"/>
      <point x="440" y="692" type="curve" smooth="yes"/>
      <point x="440" y="767"/>
      <point x="377" y="823"/>
      <point x="286" y="823" type="curve" smooth="yes"/>
      <point x="161" y="823"/>
      <point x="35" y="719"/>
      <point x="35" y="570" type="curve" smooth="yes"/>
      <point x="35" y="413"/>
      <point x="173" y="310"/>
      <point x="328" y="310" type="curve" smooth="yes"/>
      <point x="332" y="310" type="line"/>
      <point x="316" y="286"/>
      <point x="298" y="259"/>
      <point x="280" y="236" type="curve"/>
      <point x="128" y="236" type="line"/>
    </contour>
    <contour>
      <point x="835" y="964" type="curve" smooth="yes"/>
      <point x="878" y="964"/>
      <point x="897" y="927"/>
      <point x="897" y="885" type="curve" smooth="yes"/>
      <point x="897" y="733"/>
      <point x="651" y="353"/>
      <point x="367" y="322" type="curve"/>
      <point x="380" y="344"/>
      <point x="390" y="363"/>
      <point x="402" y="386" type="curve" smooth="yes"/>
      <point x="435" y="451" type="line" smooth="yes"/>
      <point x="532" y="644"/>
      <point x="694" y="964"/>
    </contour>
    <contour>
      <point x="-83" y="31" type="curve" smooth="yes"/>
      <point x="-101" y="31"/>
      <point x="-109" y="36"/>
      <point x="-109" y="41" type="curve" smooth="yes"/>
      <point x="-109" y="46"/>
      <point x="-100" y="52"/>
      <point x="-83" y="52" type="curve" smooth="yes"/>
      <point x="-58" y="52"/>
      <point x="-30" y="47"/>
      <point x="-3" y="39" type="curve"/>
      <point x="-30" y="33"/>
      <point x="-55" y="31"/>
    </contour>
  </outline>
</glyph>
<glyph name="lslash" format="2">
  <advance width="187"/>
  <unicode hex="0142"/>
  <outline>
    <contour>
      <point x="314" y="973" type="line"/>
      <point x="79" y="461" type="line"/>
      <point x="5" y="461" type="line"/>
      <point x="5" y="452" type="line"/>
      <point x="76" y="452" type="line"/>
      <point x="-57" y="162" type="line" smooth="yes"/>
      <point x="-73" y="127"/>
      <point x="-79" y="95"/>
      <point x="-79" y="68" type="curve" smooth="yes"/>
      <point x="-79" y="26"/>
      <point x="-62" y="-2"/>
      <point x="-35" y="-2" type="curve" smooth="yes"/>
      <point x="35" y="-2"/>
      <point x="131" y="146"/>
      <point x="193" y="282" type="curve"/>
      <point x="185" y="284" type="line"/>
      <point x="126" y="156"/>
      <point x="31" y="6"/>
      <point x="-34" y="6" type="curve" smooth="yes"/>
      <point x="-55" y="6"/>
      <point x="-67" y="27"/>
      <point x="-67" y="60" type="curve" smooth="yes"/>
      <point x="-67" y="84"/>
      <point x="-60" y="117"/>
      <point x="-44" y="151" type="curve" smooth="yes"/>
      <point x="1" y="250"/>
      <point x="51" y="353"/>
      <point x="96" y="452" type="curve"/>
      <point x="175" y="452" type="line"/>
      <point x="175" y="461" type="line"/>
      <point x="100" y="461" type="line"/>
      <point x="339" y="973" type="line"/>
    </contour>
  </outline>
</glyph>
<glyph name="omacron" format="2">
  <advance width="396"/>
  <unicode hex="014D"/>
  <outline>
    <contour>
      <point x="318" y="398" type="curve" smooth="yes"/>
      <point x="318" y="445"/>
      <point x="299" y="478"/>
      <point x="271" y="478" type="curve" smooth="yes"/>
      <point x="227" y="478"/>
      <point x="160" y="385"/>
      <point x="145" y="292" type="curve" smooth="yes"/>
      <point x="143" y="282"/>
      <point x="143" y="268"/>
      <point x="143" y="258" type="curve" smooth="yes"/>
      <point x="143" y="205"/>
      <point x="160" y="158"/>
      <point x="199" y="141" type="curve"/>
      <point x="144" y="55"/>
      <point x="80" y="-5"/>
      <point x="34" y="-5" type="curve" smooth="yes"/>
      <point x="-6" y="-5"/>
      <point x="-25" y="39"/>
      <point x="-21" y="107" type="curve" smooth="yes"/>
      <point x="-18" y="162"/>
      <point x="-6" y="216"/>
      <point x="18" y="274" type="curve" smooth="yes"/>
      <point x="79" y="428"/>
      <point x="184" y="555"/>
      <point x="253" y="555" type="curve" smooth="yes"/>
      <point x="281" y="555"/>
      <point x="306" y="541"/>
      <point x="314" y="505" type="curve"/>
      <point x="320" y="512" type="line"/>
      <point x="309" y="545"/>
      <point x="286" y="565"/>
      <point x="254" y="565" type="curve" smooth="yes"/>
      <point x="174" y="565"/>
      <point x="64" y="441"/>
      <point x="-2" y="283" type="curve" smooth="yes"/>
      <point x="-25" y="225"/>
      <point x="-36" y="174"/>
      <point x="-39" y="116" type="curve" smooth="yes"/>
      <point x="-43" y="39"/>
      <point x="-17" y="-14"/>
      <point x="33" y="-14" type="curve" smooth="yes"/>
      <point x="85" y="-14"/>
      <point x="157" y="51"/>
      <point x="216" y="136" type="curve"/>
      <point x="221" y="135"/>
      <point x="227" y="135"/>
      <point x="232" y="135" type="curve" smooth="yes"/>
      <point x="287" y="135"/>
      <point x="361" y="197"/>
      <point x="402" y="282" type="curve"/>
      <point x="394" y="284" type="line"/>
      <point x="355" y="203"/>
      <point x="283" y="143"/>
      <point x="233" y="143" type="curve" smooth="yes"/>
      <point x="228" y="143"/>
      <point x="225" y="142"/>
      <point x="221" y="143" type="curve"/>
      <point x="270" y="219"/>
      <point x="318" y="317"/>
    </contour>
    <contour>
      <point x="154" y="255" type="curve" smooth="yes"/>
      <point x="154" y="266"/>
      <point x="155" y="278"/>
      <point x="156" y="289" type="curve" smooth="yes"/>
      <point x="168" y="386"/>
      <point x="230" y="470"/>
      <point x="272" y="470" type="curve" smooth="yes"/>
      <point x="291" y="470"/>
      <point x="301" y="449"/>
      <point x="301" y="415" type="curve" smooth="yes"/>
      <point x="301" y="317"/>
      <point x="249" y="217"/>
      <point x="204" y="148" type="curve"/>
      <point x="168" y="164"/>
      <point x="154" y="208"/>
    </contour>
    <contour>
      <point x="206" y="148" type="line"/>
      <point x="204" y="148" type="line" smooth="yes"/>
      <point x="203" y="148"/>
      <point x="203" y="147"/>
      <point x="203" y="147" type="curve"/>
    </contour>
    <contour>
      <point x="159" y="706" type="line"/>
      <point x="419" y="706" type="line"/>
      <point x="419" y="716" type="line"/>
      <point x="159" y="716" type="line"/>
    </contour>
  </outline>
</glyph>
<glyph name="Scedilla" format="2">
  <advance width="909"/>
  <unicode hex="015E"/>
  <outline>
    <contour>
      <point x="469" y="842" type="line"/>
      <point x="421" y="830"/>
      <point x="395" y="760"/>
      <point x="395" y="717" type="curve" smooth="yes"/>
      <point x="395" y="584"/>
      <point x="509" y="502"/>
      <point x="653" y="498" type="curve" smooth="yes"/>
      <point x="710" y="497"/>
      <point x="762" y="508"/>
      <point x="810" y="529" type="curve"/>
      <point x="796" y="405"/>
      <point x="783" y="278"/>
      <point x="732" y="172" type="curve" smooth="yes"/>
      <point x="652" y="-1"/>
      <point x="490" y="-115"/>
      <point x="319" y="-115" type="curve" smooth="yes"/>
      <point x="130" y="-115"/>
      <point x="8" y="22"/>
      <point x="8" y="202" type="curve" smooth="yes"/>
      <point x="8" y="383"/>
      <point x="165" y="525"/>
      <point x="312" y="525" type="curve" smooth="yes"/>
      <point x="422" y="525"/>
      <point x="486" y="448"/>
      <point x="486" y="368" type="curve" smooth="yes"/>
      <point x="486" y="281"/>
      <point x="411" y="177"/>
      <point x="309" y="177" type="curve" smooth="yes"/>
      <point x="294" y="177"/>
      <point x="239" y="179"/>
      <point x="221" y="232" type="curve"/>
      <point x="211" y="227" type="line"/>
      <point x="234" y="175"/>
      <point x="281" y="166"/>
      <point x="313" y="166" type="curve" smooth="yes"/>
      <point x="429" y="166"/>
      <point x="501" y="279"/>
      <point x="501" y="369" type="curve" smooth="yes"/>
      <point x="501" y="460"/>
      <point x="425" y="535"/>
      <point x="311" y="535" type="curve" smooth="yes"/>
      <point x="152" y="535"/>
      <point x="-14" y="392"/>
      <point x="-14" y="197" type="curve" smooth="yes"/>
      <point x="-14" y="24"/>
      <point x="114" y="-110"/>
      <point x="294" y="-123" type="curve"/>
      <point x="290" y="-139"/>
      <point x="296" y="-154"/>
      <point x="301" y="-166" type="curve" smooth="yes"/>
      <point x="304" y="-174"/>
      <point x="309" y="-187"/>
      <point x="309" y="-195" type="curve" smooth="yes"/>
      <point x="309" y="-227"/>
      <point x="281" y="-274"/>
      <point x="215" y="-286" type="curve"/>
      <point x="215" y="-290" type="line"/>
      <point x="283" y="-280"/>
      <point x="327" y="-243"/>
      <point x="327" y="-208" type="curve" smooth="yes"/>
      <point x="327" y="-195"/>
      <point x="321" y="-184"/>
      <point x="315" y="-172" type="curve" smooth="yes"/>
      <point x="306" y="-156"/>
      <point x="297" y="-140"/>
      <point x="303" y="-123" type="curve"/>
      <point x="312" y="-123" type="line" smooth="yes"/>
      <point x="316" y="-123"/>
      <point x="320" y="-124"/>
      <point x="324" y="-124" type="curve" smooth="yes"/>
      <point x="493" y="-124"/>
      <point x="669" y="-19"/>
      <point x="754" y="159" type="curve" smooth="yes"/>
      <point x="798" y="252"/>
      <point x="807" y="362"/>
      <point x="815" y="467" type="curve" smooth="yes"/>
      <point x="821" y="534" type="line"/>
      <point x="966" y="606"/>
      <point x="1065" y="765"/>
      <point x="1065" y="883" type="curve" smooth="yes"/>
      <point x="1065" y="922"/>
      <point x="1045" y="959"/>
      <point x="1012" y="959" type="curve" smooth="yes"/>
      <point x="973" y="959"/>
      <point x="932" y="927"/>
      <point x="896" y="870" type="curve" smooth="yes"/>
      <point x="841" y="783"/>
      <point x="825" y="665"/>
      <point x="811" y="544" type="curve"/>
      <point x="764" y="521"/>
      <point x="708" y="506"/>
      <point x="652" y="508" type="curve" smooth="yes"/>
      <point x="515" y="511"/>
      <point x="410" y="596"/>
      <point x="410" y="727" type="curve" smooth="yes"/>
      <point x="410" y="762"/>
      <point x="428" y="825"/>
      <point x="468" y="836" type="curve"/>
    </contour>
    <contour>
      <point x="913" y="861" type="curve" smooth="yes"/>
      <point x="949" y="918"/>
      <point x="984" y="951"/>
      <point x="1012" y="951" type="curve" smooth="yes"/>
      <point x="1038" y="951"/>
      <point x="1049" y="921"/>
      <point x="1049" y="893" type="curve" smooth="yes"/>
      <point x="1049" y="776"/>
      <point x="960" y="622"/>
      <point x="821" y="549" type="curve"/>
      <point x="831" y="655"/>
      <point x="850" y="761"/>
    </contour>
  </outline>
</glyph>
<glyph name="tcommaaccent" format="2">
  <advance width="186"/>
  <unicode hex="0163"/>
  <outline>
    <contour>
      <point x="-115" y="-136" type="curve" smooth="yes"/>
      <point x="-131" y="-136"/>
      <point x="-146" y="-150"/>
      <point x="-146" y="-165" type="curve" smooth="yes"/>
      <point x="-146" y="-174"/>
      <point x="-141" y="-183"/>
      <point x="-129" y="-183" type="curve" smooth="yes"/>
      <point x="-122" y="-183" type="line"/>
      <point x="-121" y="-185"/>
      <point x="-123" y="-191"/>
      <point x="-124" y="-193" type="curve"/>
      <point x="-138" y="-213"/>
      <point x="-153" y="-231"/>
      <point x="-173" y="-245" type="curve"/>
      <point x="-171" y="-254" type="line"/>
      <point x="-140" y="-233"/>
      <point x="-97" y="-190"/>
      <point x="-97" y="-159" type="curve" smooth="yes"/>
      <point x="-97" y="-145"/>
      <point x="-106" y="-136"/>
    </contour>
    <contour>
      <point x="5" y="619" type="line"/>
      <point x="151" y="619" type="line"/>
      <point x="-58" y="162" type="line" smooth="yes"/>
      <point x="-74" y="127"/>
      <point x="-81" y="95"/>
      <point x="-81" y="68" type="curve" smooth="yes"/>
      <point x="-81" y="26"/>
      <point x="-63" y="-2"/>
      <point x="-36" y="-2" type="curve" smooth="yes"/>
      <point x="34" y="-2"/>
      <point x="130" y="146"/>
      <point x="192" y="282" type="curve"/>
      <point x="184" y="284" type="line"/>
      <point x="125" y="156"/>
      <point x="30" y="6"/>
      <point x="-35" y="6" type="curve" smooth="yes"/>
      <point x="-56" y="6"/>
      <point x="-68" y="27"/>
      <point x="-68" y="60" type="curve" smooth="yes"/>
      <point x="-68" y="84"/>
      <point x="-61" y="117"/>
      <point x="-45" y="151" type="curve" smooth="yes"/>
      <point x="175" y="619" type="line"/>
      <point x="337" y="619" type="line"/>
      <point x="337" y="627" type="line"/>
      <point x="178" y="627" type="line"/>
      <point x="258" y="796" type="line"/>
      <point x="232" y="796" type="line"/>
      <point x="154" y="627" type="line"/>
      <point x="5" y="627" type="line"/>
    </contour>
  </outline>
</glyph>
<glyph name="Tcaron" format="2">
  <advance width="586"/>
  <unicode hex="0164"/>
  <outline>
    <contour>
      <point x="36" y="508" type="curve"/>
      <point x="25" y="522"/>
      <point x="20" y="539"/>
      <point x="20" y="555" type="curve" smooth="yes"/>
      <point x="20" y="636"/>
      <point x="104" y="717"/>
      <point x="202" y="717" type="curve" smooth="yes"/>
      <point x="271" y="717"/>
      <point x="335" y="670"/>
      <point x="335" y="574" type="curve" smooth="yes"/>
      <point x="335" y="431"/>
      <point x="198" y="309"/>
      <point x="70" y="301" type="curve"/>
      <point x="-74" y="304"/>
      <point x="-137" y="415"/>
      <point x="-137" y="520" type="curve" smooth="yes"/>
      <point x="-137" y="728"/>
      <point x="87" y="952"/>
      <point x="395" y="952" type="curve" smooth="yes"/>
      <point x="626" y="952"/>
      <point x="900" y="815"/>
      <point x="1120" y="815" type="curve" smooth="yes"/>
      <point x="1181" y="815"/>
      <point x="1233" y="827"/>
      <point x="1278" y="861" type="curve"/>
      <point x="1276" y="870" type="line"/>
      <point x="1230" y="836"/>
      <point x="1177" y="823"/>
      <point x="1120" y="823" type="curve" smooth="yes"/>
      <point x="905" y="823"/>
      <point x="627" y="962"/>
      <point x="391" y="962" type="curve" smooth="yes"/>
      <point x="74" y="962"/>
      <point x="-150" y="747"/>
      <point x="-150" y="532" type="curve" smooth="yes"/>
      <point x="-150" y="419"/>
      <point x="-84" y="297"/>
      <point x="60" y="293" type="curve" smooth="yes"/>
      <point x="200" y="293"/>
      <point x="352" y="423"/>
      <point x="352" y="573" type="curve" smooth="yes"/>
      <point x="352" y="671"/>
      <point x="282" y="725"/>
      <point x="203" y="725" type="curve" smooth="yes"/>
      <point x="109" y="725"/>
      <point x="7" y="639"/>
      <point x="7" y="559" type="curve" smooth="yes"/>
      <point x="7" y="539"/>
      <point x="13" y="513"/>
    </contour>
    <contour>
      <point x="737" y="801" type="line"/>
      <point x="584" y="751"/>
      <point x="460" y="511"/>
      <point x="375" y="344" type="curve" smooth="yes"/>
      <point x="364" y="323"/>
      <point x="354" y="302"/>
      <point x="344" y="284" type="curve" smooth="yes"/>
      <point x="277" y="157"/>
      <point x="128" y="-60"/>
      <point x="-44" y="-50" type="curve" smooth="yes"/>
      <point x="-86" y="-48"/>
      <point x="-148" y="-15"/>
      <point x="-148" y="48" type="curve" smooth="yes"/>
      <point x="-148" y="61"/>
      <point x="-145" y="76"/>
      <point x="-138" y="93" type="curve"/>
      <point x="-142" y="95" type="line"/>
      <point x="-152" y="76"/>
      <point x="-155" y="57"/>
      <point x="-155" y="40" type="curve" smooth="yes"/>
      <point x="-155" y="-26"/>
      <point x="-92" y="-58"/>
      <point x="-44" y="-60" type="curve" smooth="yes"/>
      <point x="164" y="-71"/>
      <point x="287" y="125"/>
      <point x="373" y="290" type="curve" smooth="yes"/>
      <point x="413" y="370" type="line" smooth="yes"/>
      <point x="491" y="531"/>
      <point x="597" y="751"/>
      <point x="734" y="785" type="curve"/>
    </contour>
    <contour>
      <point x="896" y="1249" type="line"/>
      <point x="896" y="1249"/>
      <point x="768" y="1158"/>
      <point x="743" y="1140" type="curve"/>
      <point x="695" y="1243" type="line"/>
      <point x="688" y="1242" type="line"/>
      <point x="732" y="1104" type="line"/>
      <point x="899" y="1242" type="line"/>
    </contour>
  </outline>
</glyph>
<glyph name="hungarumlaut" format="2">
  <advance width="351"/>
  <unicode hex="02DD"/>
  <outline>
    <contour>
      <point x="138" y="692" type="line"/>
      <point x="181" y="712"/>
      <point x="229" y="736"/>
      <point x="272" y="757" type="curve"/>
      <point x="281" y="762"/>
      <point x="289" y="768"/>
      <point x="289" y="777" type="curve" smooth="yes"/>
      <point x="289" y="785"/>
      <point x="284" y="790"/>
      <point x="275" y="790" type="curve" smooth="yes"/>
      <point x="266" y="790"/>
      <point x="258" y="786"/>
      <point x="254" y="783" type="curve" smooth="yes"/>
      <point x="135" y="698" type="line"/>
    </contour>
    <contour>
      <point x="247" y="692" type="line"/>
      <point x="290" y="712"/>
      <point x="338" y="736"/>
      <point x="381" y="757" type="curve"/>
      <point x="390" y="762"/>
      <point x="398" y="768"/>
      <point x="398" y="777" type="curve" smooth="yes"/>
      <point x="398" y="785"/>
      <point x="393" y="790"/>
      <point x="384" y="790" type="curve" smooth="yes"/>
      <point x="375" y="790"/>
      <point x="367" y="786"/>
      <point x="363" y="783" type="curve" smooth="yes"/>
      <point x="244" y="698" type="line"/>
    </contour>
  </outline>
</glyph>
<glyph name="gravecomb" format="2">
  <advance width="257"/>
  <unicode hex="0300"/>
  <outline>
    <contour>
      <point x="290" y="697" type="line"/>
      <point x="169" y="783" type="line" smooth="yes"/>
      <point x="165" y="786"/>
      <point x="157" y="790"/>
      <point x="148" y="790" type="curve" smooth="yes"/>
      <point x="139" y="790"/>
      <point x="134" y="785"/>
      <point x="134" y="777" type="curve" smooth="yes"/>
      <point x="134" y="768"/>
      <point x="142" y="762"/>
      <point x="151" y="757" type="curve"/>
      <point x="284" y="692" type="line"/>
    </contour>
  </outline>
</glyph>
<glyph name="tildecomb" format="2">
  <advance width="561"/>
  <unicode hex="0303"/>
  <outline>
    <contour>
      <point x="287" y="684" type="line"/>
      <point x="307" y="717"/>
      <point x="334" y="729"/>
      <point x="359" y="729" type="curve" smooth="yes"/>
      <point x="382" y="729"/>
      <point x="405" y="720"/>
      <point x="427" y="710" type="curve" smooth="yes"/>
      <point x="448" y="701"/>
      <point x="469" y="691"/>
      <point x="492" y="691" type="curve" smooth="yes"/>
      <point x="519" y="691"/>
      <point x="541" y="708"/>
      <point x="550" y="732" type="curve"/>
      <point x="546" y="734" type="line"/>
      <point x="536" y="715"/>
      <point x="516" y="708"/>
      <point x="498" y="708" type="curve" smooth="yes"/>
      <point x="487" y="708"/>
      <point x="465" y="716"/>
      <point x="443" y="725" type="curve" smooth="yes"/>
      <point x="418" y="735"/>
      <point x="390" y="745"/>
      <point x="373" y="745" type="curve" smooth="yes"/>
      <point x="339" y="745"/>
      <point x="302" y="727"/>
      <point x="279" y="686" type="curve"/>
    </contour>
  </outline>
</glyph>
<glyph name="daggerdbl" format="2">
  <advance width="523"/>
  <unicode hex="2021"/>
  <outline>
    <contour>
      <point x="274" y="-62" type="line"/>
      <point x="274" y="-37"/>
      <point x="286" y="-10"/>
      <point x="302" y="23" type="curve" smooth="yes"/>
      <point x="327" y="77"/>
      <point x="361" y="149"/>
      <point x="361" y="253" type="curve" smooth="yes"/>
      <point x="361" y="318"/>
      <point x="347" y="380"/>
      <point x="334" y="443" type="curve" smooth="yes"/>
      <point x="322" y="499"/>
      <point x="310" y="556"/>
      <point x="307" y="620" type="curve"/>
      <point x="298" y="620" type="line"/>
      <point x="300" y="559"/>
      <point x="313" y="504"/>
      <point x="325" y="448" type="curve" smooth="yes"/>
      <point x="339" y="385"/>
      <point x="352" y="321"/>
      <point x="352" y="253" type="curve" smooth="yes"/>
      <point x="352" y="152"/>
      <point x="318" y="82"/>
      <point x="293" y="29" type="curve" smooth="yes"/>
      <point x="285" y="13"/>
      <point x="279" y="-1"/>
      <point x="274" y="-14" type="curve"/>
      <point x="274" y="197" type="line"/>
      <point x="289" y="203"/>
      <point x="304" y="217"/>
      <point x="304" y="232" type="curve" smooth="yes"/>
      <point x="304" y="252"/>
      <point x="286" y="270"/>
      <point x="266" y="270" type="curve" smooth="yes"/>
      <point x="246" y="270"/>
      <point x="229" y="252"/>
      <point x="229" y="232" type="curve" smooth="yes"/>
      <point x="229" y="217"/>
      <point x="242" y="203"/>
      <point x="257" y="197" type="curve"/>
      <point x="257" y="-14" type="line"/>
      <point x="252" y="2"/>
      <point x="247" y="7"/>
      <point x="238" y="27" type="curve" smooth="yes"/>
      <point x="212" y="80"/>
      <point x="179" y="151"/>
      <point x="179" y="253" type="curve" smooth="yes"/>
      <point x="179" y="321"/>
      <point x="192" y="385"/>
      <point x="206" y="448" type="curve" smooth="yes"/>
      <point x="218" y="504"/>
      <point x="231" y="559"/>
      <point x="233" y="620" type="curve"/>
      <point x="224" y="620" type="line"/>
      <point x="221" y="556"/>
      <point x="209" y="499"/>
      <point x="197" y="443" type="curve" smooth="yes"/>
      <point x="184" y="380"/>
      <point x="170" y="318"/>
      <point x="170" y="253" type="curve" smooth="yes"/>
      <point x="170" y="149"/>
      <point x="204" y="77"/>
      <point x="229" y="23" type="curve" smooth="yes"/>
      <point x="245" y="-10"/>
      <point x="257" y="-37"/>
      <point x="257" y="-62" type="curve"/>
    </contour>
    <contour>
      <point x="238" y="232" type="curve" smooth="yes"/>
      <point x="238" y="247"/>
      <point x="251" y="260"/>
      <point x="266" y="260" type="curve" smooth="yes"/>
      <point x="282" y="260"/>
      <point x="294" y="247"/>
      <point x="294" y="232" type="curve" smooth="yes"/>
      <point x="294" y="219"/>
      <point x="282" y="208"/>
      <point x="266" y="205" type="curve"/>
      <point x="249" y="208"/>
      <point x="238" y="221"/>
    </contour>
    <contour>
      <point x="265" y="652" type="curve" smooth="yes"/>
      <point x="291" y="652"/>
      <point x="321" y="646"/>
      <point x="331" y="636" type="curve"/>
      <point x="334" y="638" type="line"/>
      <point x="323" y="655"/>
      <point x="292" y="662"/>
      <point x="265" y="662" type="curve" smooth="yes"/>
      <point x="239" y="662"/>
      <point x="208" y="654"/>
      <point x="191" y="637" type="curve"/>
      <point x="198" y="635" type="line"/>
      <point x="209" y="646"/>
      <point x="239" y="652"/>
    </contour>
    <contour>
      <point x="265" y="630" type="curve" smooth="yes"/>
      <point x="291" y="630"/>
      <point x="322" y="622"/>
      <point x="334" y="610" type="curve"/>
      <point x="336" y="617" type="line"/>
      <point x="322" y="632"/>
      <point x="292" y="639"/>
      <point x="265" y="639" type="curve" smooth="yes"/>
      <point x="239" y="639"/>
      <point x="208" y="632"/>
      <point x="193" y="617" type="curve"/>
      <point x="198" y="612" type="line"/>
      <point x="209" y="623"/>
      <point x="239" y="630"/>
    </contour>
    <contour>
      <point x="265" y="675" type="curve" smooth="yes"/>
      <point x="291" y="675"/>
      <point x="322" y="667"/>
      <point x="334" y="655" type="curve"/>
      <point x="336" y="662" type="line"/>
      <point x="322" y="676"/>
      <point x="291" y="684"/>
      <point x="265" y="684" type="curve" smooth="yes"/>
      <point x="239" y="684"/>
      <point x="208" y="676"/>
      <point x="193" y="662" type="curve"/>
      <point x="198" y="657" type="line"/>
      <point x="209" y="668"/>
      <point x="239" y="675"/>
    </contour>
    <contour>
      <point x="347" y="-127" type="line"/>
      <point x="283" y="-125"/>
      <point x="274" y="-87"/>
      <point x="274" y="-81" type="curve"/>
      <point x="256" y="-81" type="line"/>
      <point x="256" y="-97"/>
      <point x="294" y="-133"/>
      <point x="345" y="-133" type="curve"/>
    </contour>
  </outline>
</glyph>
<glyph name="perthousand" format="2">
  <advance width="518"/>
  <unicode hex="2030"/>
  <outline>
    <contour>
      <point x="537" y="626" type="line"/>
      <point x="-34" y="4" type="line"/>
      <point x="-27" y="2" type="line"/>
      <point x="546" y="627" type="line"/>
    </contour>
    <contour>
      <point x="84" y="472" type="curve" smooth="yes"/>
      <point x="80" y="427"/>
      <point x="117" y="391"/>
      <point x="167" y="391" type="curve" smooth="yes"/>
      <point x="217" y="391"/>
      <point x="262" y="427"/>
      <point x="266" y="472" type="curve" smooth="yes"/>
      <point x="271" y="517"/>
      <point x="233" y="553"/>
      <point x="183" y="553" type="curve" smooth="yes"/>
      <point x="133" y="553"/>
      <point x="89" y="517"/>
    </contour>
    <contour>
      <point x="102" y="472" type="curve" smooth="yes"/>
      <point x="106" y="513"/>
      <point x="142" y="545"/>
      <point x="183" y="545" type="curve" smooth="yes"/>
      <point x="224" y="545"/>
      <point x="252" y="513"/>
      <point x="248" y="472" type="curve" smooth="yes"/>
      <point x="244" y="431"/>
      <point x="208" y="399"/>
      <point x="167" y="399" type="curve" smooth="yes"/>
      <point x="126" y="399"/>
      <point x="98" y="431"/>
    </contour>
    <contour>
      <point x="254" y="158" type="curve" smooth="yes"/>
      <point x="250" y="113"/>
      <point x="287" y="77"/>
      <point x="337" y="77" type="curve" smooth="yes"/>
      <point x="387" y="77"/>
      <point x="432" y="113"/>
      <point x="436" y="158" type="curve" smooth="yes"/>
      <point x="441" y="203"/>
      <point x="403" y="239"/>
      <point x="353" y="239" type="curve" smooth="yes"/>
      <point x="303" y="239"/>
      <point x="259" y="203"/>
    </contour>
    <contour>
      <point x="272" y="158" type="curve" smooth="yes"/>
      <point x="276" y="199"/>
      <point x="312" y="231"/>
      <point x="353" y="231" type="curve" smooth="yes"/>
      <point x="394" y="231"/>
      <point x="422" y="199"/>
      <point x="418" y="158" type="curve" smooth="yes"/>
      <point x="414" y="117"/>
      <point x="378" y="85"/>
      <point x="337" y="85" type="curve" smooth="yes"/>
      <point x="296" y="85"/>
      <point x="268" y="117"/>
    </contour>
  </outline>
</glyph>
<glyph name="guilsinglleft" format="2">
  <advance width="486"/>
  <unicode hex="2039"/>
  <outline>
    <contour>
      <point x="322" y="119" type="line"/>
      <point x="266" y="169"/>
      <point x="207" y="224"/>
      <point x="151" y="274" type="curve"/>
      <point x="322" y="429" type="line"/>
      <point x="320" y="438" type="line"/>
      <point x="124" y="274" type="line"/>
      <point x="320" y="110" type="line"/>
    </contour>
  </outline>
</glyph>
<glyph name="fraction" format="2">
  <advance width="416"/>
  <unicode hex="2044"/>
  <outline>
    <contour>
      <point x="15" y="-126" type="line"/>
      <point x="475" y="775" type="line"/>
      <point x="466" y="777" type="line"/>
      <point x="6" y="-123" type="line"/>
    </contour>
  </outline>
</glyph>
<glyph name="f_f" format="2">
  <advance width="430"/>
  <unicode hex="FB00"/>
  <outline>
    <contour>
      <point x="104" y="509" type="line"/>
      <point x="102" y="503"/>
      <point x="96" y="495"/>
      <point x="93" y="489" type="curve"/>
      <point x="16" y="489" type="line"/>
      <point x="16" y="481" type="line"/>
      <point x="89" y="481" type="line"/>
      <point x="28" y="360"/>
      <point x="-27" y="234"/>
      <point x="-74" y="129" type="curve" smooth="yes"/>
      <point x="-141" y="-16"/>
      <point x="-294" y="-333"/>
      <point x="-461" y="-482" type="curve"/>
      <point x="-477" y="-487" type="line" smooth="yes"/>
      <point x="-525" y="-500"/>
      <point x="-571" y="-508"/>
      <point x="-610" y="-514" type="curve" smooth="yes"/>
      <point x="-673" y="-523"/>
      <point x="-719" y="-531"/>
      <point x="-719" y="-550" type="curve" smooth="yes"/>
      <point x="-719" y="-568"/>
      <point x="-696" y="-581"/>
      <point x="-645" y="-581" type="curve" smooth="yes"/>
      <point x="-575" y="-581"/>
      <point x="-496" y="-538"/>
      <point x="-435" y="-486" type="curve"/>
      <point x="-310" y="-447"/>
      <point x="-150" y="-374"/>
      <point x="-54" y="-254" type="curve" smooth="yes"/>
      <point x="54" y="-113"/>
      <point x="128" y="51"/>
      <point x="196" y="212" type="curve" smooth="yes"/>
      <point x="233" y="299"/>
      <point x="272" y="390"/>
      <point x="318" y="481" type="curve"/>
      <point x="470" y="481" type="line"/>
      <point x="470" y="489" type="line"/>
      <point x="322" y="489" type="line"/>
      <point x="339" y="524"/>
      <point x="357" y="558"/>
      <point x="378" y="594" type="curve"/>
      <point x="510" y="664"/>
      <point x="609" y="797"/>
      <point x="623" y="879" type="curve" smooth="yes"/>
      <point x="624" y="884"/>
      <point x="623" y="889"/>
      <point x="623" y="894" type="curve" smooth="yes"/>
      <point x="623" y="900" type="line"/>
      <point x="657" y="922"/>
      <point x="689" y="936"/>
      <point x="721" y="936" type="curve" smooth="yes"/>
      <point x="728" y="936"/>
      <point x="739" y="935"/>
      <point x="749" y="931" type="curve"/>
      <point x="771" y="924"/>
      <point x="776" y="953"/>
      <point x="738" y="953" type="curve" smooth="yes"/>
      <point x="693" y="953"/>
      <point x="651" y="931"/>
      <point x="621" y="911" type="curve"/>
      <point x="612" y="951"/>
      <point x="586" y="981"/>
      <point x="541" y="981" type="curve" smooth="yes"/>
      <point x="390" y="981"/>
      <point x="253" y="781"/>
      <point x="128" y="554" type="curve"/>
      <point x="1" y="572"/>
      <point x="-93" y="659"/>
      <point x="-78" y="787" type="curve" smooth="yes"/>
      <point x="-65" y="911"/>
      <point x="31" y="1000"/>
      <point x="135" y="1000" type="curve" smooth="yes"/>
      <point x="208" y="1000"/>
      <point x="265" y="945"/>
      <point x="257" y="881" type="curve" smooth="yes"/>
      <point x="250" y="822"/>
      <point x="210" y="762"/>
      <point x="133" y="762" type="curve" smooth="yes"/>
      <point x="119" y="762"/>
      <point x="82" y="762"/>
      <point x="68" y="787" type="curve"/>
      <point x="58" y="785" type="line"/>
      <point x="78" y="754"/>
      <point x="119" y="754"/>
      <point x="133" y="754" type="curve" smooth="yes"/>
      <point x="215" y="754"/>
      <point x="262" y="819"/>
      <point x="270" y="879" type="curve" smooth="yes"/>
      <point x="277" y="947"/>
      <point x="215" y="1008"/>
      <point x="136" y="1008" type="curve" smooth="yes"/>
      <point x="24" y="1008"/>
      <point x="-80" y="914"/>
      <point x="-96" y="789" type="curve" smooth="yes"/>
      <point x="-108" y="658"/>
      <point x="-10" y="564"/>
      <point x="124" y="546" type="curve"/>
    </contour>
    <contour>
      <point x="304" y="481" type="line"/>
      <point x="255" y="386"/>
      <point x="220" y="305"/>
      <point x="184" y="224" type="curve" smooth="yes"/>
      <point x="119" y="76"/>
      <point x="45" y="-76"/>
      <point x="-69" y="-232" type="curve" smooth="yes"/>
      <point x="-165" y="-357"/>
      <point x="-298" y="-428"/>
      <point x="-417" y="-468" type="curve"/>
      <point x="-257" y="-316"/>
      <point x="-132" y="-45"/>
      <point x="-64" y="101" type="curve" smooth="yes"/>
      <point x="-53" y="124" type="line" smooth="yes"/>
      <point x="-33" y="167"/>
      <point x="-13" y="214"/>
      <point x="8" y="263" type="curve" smooth="yes"/>
      <point x="39" y="333"/>
      <point x="71" y="409"/>
      <point x="106" y="481" type="curve"/>
    </contour>
    <contour>
      <point x="539" y="973" type="curve" smooth="yes"/>
      <point x="580" y="973"/>
      <point x="606" y="943"/>
      <point x="609" y="901" type="curve"/>
      <point x="532" y="844"/>
      <point x="442" y="733"/>
      <point x="365" y="599" type="curve"/>
      <point x="309" y="571"/>
      <point x="244" y="551"/>
      <point x="177" y="551" type="curve" smooth="yes"/>
      <point x="165" y="551"/>
      <point x="154" y="552"/>
      <point x="142" y="553" type="curve"/>
      <point x="262" y="781"/>
      <point x="397" y="973"/>
    </contour>
    <contour>
      <point x="110" y="489" type="line"/>
      <point x="138" y="545" type="line"/>
      <point x="150" y="543"/>
      <point x="164" y="543"/>
      <point x="177" y="543" type="curve" smooth="yes"/>
      <point x="242" y="543"/>
      <point x="301" y="558"/>
      <point x="356" y="584" type="curve"/>
      <point x="338" y="553"/>
      <point x="325" y="524"/>
      <point x="309" y="489" type="curve"/>
    </contour>
    <contour>
      <point x="388" y="611" type="curve"/>
      <point x="453" y="721"/>
      <point x="531" y="830"/>
      <point x="609" y="889" type="curve"/>
      <point x="609" y="886" type="line"/>
      <point x="595" y="809"/>
      <point x="510" y="683"/>
    </contour>
    <contour>
      <point x="-695" y="-552" type="curve" smooth="yes"/>
      <point x="-695" y="-537"/>
      <point x="-653" y="-531"/>
      <point x="-597" y="-521" type="curve" smooth="yes"/>
      <point x="-562" y="-515"/>
      <point x="-522" y="-510"/>
      <point x="-481" y="-499" type="curve"/>
      <point x="-533" y="-541"/>
      <point x="-593" y="-572"/>
      <point x="-645" y="-572" type="curve" smooth="yes"/>
      <point x="-683" y="-572"/>
      <point x="-695" y="-565"/>
    </contour>
  </outline>
</glyph>
<glyph name="A.001" format="2">
  <advance width="852"/>
  <outline>
    <contour>
      <point x="910" y="714" type="line" smooth="yes"/>
      <point x="939" y="777"/>
      <point x="994" y="889"/>
      <point x="1027" y="913" type="curve" smooth="yes"/>
      <point x="1039" y="921"/>
      <point x="1050" y="933"/>
      <point x="1050" y="942" type="curve" smooth="yes"/>
      <point x="1050" y="960"/>
      <point x="1041" y="984"/>
      <point x="1009" y="984" type="curve" smooth="yes"/>
      <point x="866" y="984"/>
      <point x="719" y="772"/>
      <point x="568" y="552" type="curve" smooth="yes"/>
      <point x="514" y="474"/>
      <point x="455" y="388"/>
      <point x="398" y="314" type="curve" smooth="yes"/>
      <point x="387" y="300" type="line"/>
      <point x="298" y="300" type="line"/>
      <point x="298" y="291" type="line"/>
      <point x="380" y="291" type="line"/>
      <point x="214" y="77"/>
      <point x="13" y="-88"/>
      <point x="-218" y="-75" type="curve" smooth="yes"/>
      <point x="-255" y="-73"/>
      <point x="-305" y="-45"/>
      <point x="-305" y="8" type="curve" smooth="yes"/>
      <point x="-305" y="25"/>
      <point x="-299" y="45"/>
      <point x="-286" y="68" type="curve"/>
      <point x="-290" y="70" type="line"/>
      <point x="-308" y="43"/>
      <point x="-314" y="20"/>
      <point x="-314" y="-1" type="curve" smooth="yes"/>
      <point x="-314" y="-55"/>
      <point x="-261" y="-82"/>
      <point x="-219" y="-85" type="curve" smooth="yes"/>
      <point x="-210" y="-86"/>
      <point x="-197" y="-86"/>
      <point x="-188" y="-86" type="curve" smooth="yes"/>
      <point x="-66" y="-86"/>
      <point x="45" y="-48"/>
      <point x="144" y="23" type="curve" smooth="yes"/>
      <point x="239" y="89"/>
      <point x="321" y="190"/>
      <point x="398" y="291" type="curve"/>
      <point x="681" y="291" type="line" smooth="yes"/>
      <point x="685" y="291"/>
      <point x="690" y="290"/>
      <point x="685" y="280" type="curve" smooth="yes"/>
      <point x="599" y="94" type="line" smooth="yes"/>
      <point x="561" y="8"/>
      <point x="551" y="-63"/>
      <point x="551" y="-107" type="curve" smooth="yes"/>
      <point x="551" y="-220"/>
      <point x="617" y="-282"/>
      <point x="687" y="-282" type="curve" smooth="yes"/>
      <point x="718" y="-282"/>
      <point x="762" y="-268"/>
      <point x="777" y="-227" type="curve"/>
      <point x="768" y="-226" type="line"/>
      <point x="756" y="-261"/>
      <point x="709" y="-271"/>
      <point x="681" y="-271" type="curve" smooth="yes"/>
      <point x="621" y="-271"/>
      <point x="564" y="-219"/>
      <point x="564" y="-113" type="curve" smooth="yes"/>
      <point x="564" y="-67"/>
      <point x="582" y="4"/>
      <point x="613" y="69" type="curve" smooth="yes"/>
    </contour>
    <contour>
      <point x="411" y="308" type="line"/>
      <point x="468" y="384"/>
      <point x="522" y="465"/>
      <point x="574" y="542" type="curve" smooth="yes"/>
      <point x="663" y="674"/>
      <point x="747" y="799"/>
      <point x="829" y="878" type="curve"/>
      <point x="829" y="877" type="line"/>
      <point x="883" y="924"/>
      <point x="935" y="967"/>
      <point x="995" y="967" type="curve" smooth="yes"/>
      <point x="1022" y="967"/>
      <point x="1042" y="956"/>
      <point x="1042" y="942" type="curve" smooth="yes"/>
      <point x="1042" y="936"/>
      <point x="1035" y="927"/>
      <point x="1023" y="921" type="curve" smooth="yes"/>
      <point x="987" y="901"/>
      <point x="917" y="780"/>
      <point x="887" y="716" type="curve" smooth="yes"/>
      <point x="827" y="584"/>
      <point x="760" y="441"/>
      <point x="699" y="309" type="curve"/>
      <point x="696" y="304"/>
      <point x="690" y="300"/>
      <point x="684" y="300" type="curve" smooth="yes"/>
      <point x="404" y="300" type="line"/>
    </contour>
    <contour>
      <point x="757" y="929" type="line"/>
      <point x="728" y="858"/>
      <point x="678" y="833"/>
      <point x="602" y="833" type="curve" smooth="yes"/>
      <point x="552" y="833"/>
      <point x="490" y="846"/>
      <point x="439" y="857" type="curve" smooth="yes"/>
      <point x="391" y="868"/>
      <point x="343" y="878"/>
      <point x="305" y="878" type="curve" smooth="yes"/>
      <point x="142" y="878"/>
      <point x="-1" y="728"/>
      <point x="-1" y="580" type="curve" smooth="yes"/>
      <point x="-1" y="480"/>
      <point x="58" y="371"/>
      <point x="185" y="368" type="curve" smooth="yes"/>
      <point x="314" y="368"/>
      <point x="440" y="481"/>
      <point x="440" y="615" type="curve" smooth="yes"/>
      <point x="440" y="700"/>
      <point x="378" y="745"/>
      <point x="309" y="745" type="curve" smooth="yes"/>
      <point x="221" y="745"/>
      <point x="137" y="672"/>
      <point x="137" y="599" type="curve" smooth="yes"/>
      <point x="137" y="581"/>
      <point x="141" y="567"/>
      <point x="156" y="552" type="curve"/>
      <point x="165" y="554" type="line"/>
      <point x="155" y="570"/>
      <point x="151" y="583"/>
      <point x="151" y="596" type="curve" smooth="yes"/>
      <point x="151" y="667"/>
      <point x="223" y="736"/>
      <point x="308" y="736" type="curve" smooth="yes"/>
      <point x="368" y="736"/>
      <point x="422" y="699"/>
      <point x="422" y="616" type="curve" smooth="yes"/>
      <point x="422" y="489"/>
      <point x="307" y="386"/>
      <point x="194" y="376" type="curve"/>
      <point x="69" y="378"/>
      <point x="14" y="476"/>
      <point x="14" y="568" type="curve" smooth="yes"/>
      <point x="14" y="695"/>
      <point x="142" y="867"/>
      <point x="313" y="867" type="curve" smooth="yes"/>
      <point x="350" y="867"/>
      <point x="393" y="857"/>
      <point x="438" y="847" type="curve" smooth="yes"/>
      <point x="488" y="836"/>
      <point x="540" y="824"/>
      <point x="590" y="824" type="curve" smooth="yes"/>
      <point x="674" y="824"/>
      <point x="732" y="847"/>
      <point x="767" y="919" type="curve"/>
    </contour>
  </outline>
</glyph>
<glyph name="A.002" format="2">
  <advance width="852"/>
  <outline>
    <contour>
      <point x="581" y="-2" type="line"/>
      <point x="910" y="714" type="line" smooth="yes"/>
      <point x="939" y="777"/>
      <point x="994" y="889"/>
      <point x="1027" y="913" type="curve" smooth="yes"/>
      <point x="1039" y="921"/>
      <point x="1050" y="933"/>
      <point x="1050" y="942" type="curve" smooth="yes"/>
      <point x="1050" y="960"/>
      <point x="1041" y="984"/>
      <point x="1009" y="984" type="curve" smooth="yes"/>
      <point x="865" y="984"/>
      <point x="722" y="776"/>
      <point x="567" y="551" type="curve" smooth="yes"/>
      <point x="522" y="485"/>
      <point x="474" y="416"/>
      <point x="427" y="352" type="curve"/>
      <point x="321" y="352" type="line"/>
      <point x="321" y="343" type="line"/>
      <point x="419" y="343" type="line"/>
      <point x="398" y="314" type="line" smooth="yes"/>
      <point x="241" y="106"/>
      <point x="48" y="-79"/>
      <point x="-166" y="-79" type="curve" smooth="yes"/>
      <point x="-237" y="-79"/>
      <point x="-287" y="-38"/>
      <point x="-287" y="25" type="curve" smooth="yes"/>
      <point x="-287" y="44"/>
      <point x="-281" y="67"/>
      <point x="-270" y="91" type="curve"/>
      <point x="-274" y="93" type="line"/>
      <point x="-291" y="64"/>
      <point x="-298" y="38"/>
      <point x="-298" y="14" type="curve" smooth="yes"/>
      <point x="-298" y="-54"/>
      <point x="-235" y="-89"/>
      <point x="-164" y="-89" type="curve" smooth="yes"/>
      <point x="-56" y="-89"/>
      <point x="55" y="-39"/>
      <point x="144" y="23" type="curve" smooth="yes"/>
      <point x="243" y="95"/>
      <point x="331" y="201"/>
      <point x="411" y="308" type="curve" smooth="yes"/>
      <point x="436" y="343" type="line"/>
      <point x="715" y="343" type="line"/>
      <point x="556" y="-2" type="line"/>
    </contour>
    <contour>
      <point x="829" y="877" type="line"/>
      <point x="883" y="924"/>
      <point x="935" y="967"/>
      <point x="995" y="967" type="curve" smooth="yes"/>
      <point x="1022" y="967"/>
      <point x="1042" y="956"/>
      <point x="1042" y="942" type="curve" smooth="yes"/>
      <point x="1042" y="936"/>
      <point x="1035" y="927"/>
      <point x="1023" y="921" type="curve" smooth="yes"/>
      <point x="987" y="901"/>
      <point x="917" y="780"/>
      <point x="887" y="716" type="curve" smooth="yes"/>
      <point x="718" y="352" type="line"/>
      <point x="443" y="352" type="line"/>
      <point x="489" y="415"/>
      <point x="534" y="482"/>
      <point x="576" y="545" type="curve" smooth="yes"/>
      <point x="662" y="672"/>
      <point x="750" y="801"/>
      <point x="829" y="878" type="curve"/>
    </contour>
    <contour>
      <point x="757" y="929" type="line"/>
      <point x="728" y="858"/>
      <point x="678" y="833"/>
      <point x="602" y="833" type="curve" smooth="yes"/>
      <point x="552" y="833"/>
      <point x="490" y="846"/>
      <point x="439" y="857" type="curve" smooth="yes"/>
      <point x="391" y="868"/>
      <point x="343" y="878"/>
      <point x="305" y="878" type="curve" smooth="yes"/>
      <point x="142" y="878"/>
      <point x="-1" y="728"/>
      <point x="-1" y="580" type="curve" smooth="yes"/>
      <point x="-1" y="480"/>
      <point x="58" y="371"/>
      <point x="185" y="368" type="curve" smooth="yes"/>
      <point x="314" y="368"/>
      <point x="440" y="481"/>
      <point x="440" y="615" type="curve" smooth="yes"/>
      <point x="440" y="700"/>
      <point x="378" y="745"/>
      <point x="309" y="745" type="curve" smooth="yes"/>
      <point x="221" y="745"/>
      <point x="137" y="672"/>
      <point x="137" y="599" type="curve" smooth="yes"/>
      <point x="137" y="581"/>
      <point x="142" y="565"/>
      <point x="156" y="552" type="curve"/>
      <point x="165" y="554" type="line"/>
      <point x="155" y="570"/>
      <point x="151" y="583"/>
      <point x="151" y="596" type="curve" smooth="yes"/>
      <point x="151" y="667"/>
      <point x="223" y="736"/>
      <point x="308" y="736" type="curve" smooth="yes"/>
      <point x="368" y="736"/>
      <point x="422" y="699"/>
      <point x="422" y="616" type="curve" smooth="yes"/>
      <point x="422" y="489"/>
      <point x="307" y="386"/>
      <point x="194" y="376" type="curve"/>
      <point x="69" y="378"/>
      <point x="14" y="476"/>
      <point x="14" y="568" type="curve" smooth="yes"/>
      <point x="14" y="695"/>
      <point x="142" y="867"/>
      <point x="313" y="867" type="curve" smooth="yes"/>
      <point x="350" y="867"/>
      <point x="393" y="857"/>
      <point x="438" y="847" type="curve" smooth="yes"/>
      <point x="488" y="836"/>
      <point x="540" y="824"/>
      <point x="590" y="824" type="curve" smooth="yes"/>
      <point x="674" y="824"/>
      <point x="732" y="847"/>
      <point x="767" y="919" type="curve"/>
    </contour>
  </outline>
</glyph>
<glyph name="A.big" format="2">
  <advance width="1015"/>
  <outline>
    <contour>
      <point x="852" y="276" type="curve" smooth="yes"/>
      <point x="1138" y="897" type="line" smooth="yes"/>
      <point x="1172" y="971"/>
      <point x="1237" y="1106"/>
      <point x="1280" y="1133" type="curve" smooth="yes"/>
      <point x="1296" y="1142"/>
      <point x="1307" y="1156"/>
      <point x="1307" y="1167" type="curve" smooth="yes"/>
      <point x="1307" y="1188"/>
      <point x="1297" y="1216"/>
      <point x="1259" y="1216" type="curve" smooth="yes"/>
      <point x="1094" y="1216"/>
      <point x="916" y="960"/>
      <point x="739" y="703" type="curve" smooth="yes"/>
      <point x="674" y="609"/>
      <point x="608" y="512"/>
      <point x="540" y="423" type="curve"/>
      <point x="536" y="417"/>
      <point x="530" y="412"/>
      <point x="526" y="406" type="curve"/>
      <point x="422" y="406" type="line"/>
      <point x="422" y="396" type="line"/>
      <point x="519" y="396" type="line"/>
      <point x="329" y="152"/>
      <point x="122" y="-50"/>
      <point x="-142" y="-50" type="curve" smooth="yes"/>
      <point x="-184" y="-50"/>
      <point x="-297" y="-24"/>
      <point x="-297" y="60" type="curve" smooth="yes"/>
      <point x="-297" y="81"/>
      <point x="-292" y="106"/>
      <point x="-273" y="125" type="curve"/>
      <point x="-275" y="127" type="line"/>
      <point x="-301" y="102"/>
      <point x="-308" y="74"/>
      <point x="-308" y="50" type="curve" smooth="yes"/>
      <point x="-308" y="-38"/>
      <point x="-188" y="-61"/>
      <point x="-136" y="-61" type="curve" smooth="yes"/>
      <point x="4" y="-61"/>
      <point x="127" y="-3"/>
      <point x="240" y="76" type="curve" smooth="yes"/>
      <point x="344" y="151"/>
      <point x="449" y="283"/>
      <point x="536" y="396" type="curve"/>
      <point x="869" y="396" type="line" smooth="yes"/>
      <point x="872" y="396"/>
      <point x="877" y="395"/>
      <point x="877" y="391" type="curve" smooth="yes"/>
      <point x="877" y="390"/>
      <point x="876" y="387"/>
      <point x="874" y="383" type="curve" smooth="yes"/>
      <point x="825" y="278" type="line" smooth="yes"/>
      <point x="773" y="166"/>
      <point x="738" y="47"/>
      <point x="738" y="-39" type="curve" smooth="yes"/>
      <point x="738" y="-229"/>
      <point x="839" y="-387"/>
      <point x="983" y="-500" type="curve"/>
      <point x="879" y="-546"/>
      <point x="773" y="-576"/>
      <point x="671" y="-576" type="curve" smooth="yes"/>
      <point x="459" y="-576"/>
      <point x="248" y="-490"/>
      <point x="248" y="-274" type="curve" smooth="yes"/>
      <point x="248" y="-164"/>
      <point x="348" y="-93"/>
      <point x="438" y="-93" type="curve" smooth="yes"/>
      <point x="454" y="-93"/>
      <point x="474" y="-96"/>
      <point x="496" y="-103" type="curve"/>
      <point x="498" y="-94" type="line"/>
      <point x="478" y="-88"/>
      <point x="458" y="-85"/>
      <point x="438" y="-85" type="curve" smooth="yes"/>
      <point x="334" y="-85"/>
      <point x="237" y="-168"/>
      <point x="237" y="-278" type="curve" smooth="yes"/>
      <point x="237" y="-498"/>
      <point x="437" y="-591"/>
      <point x="653" y="-591" type="curve" smooth="yes"/>
      <point x="765" y="-591"/>
      <point x="880" y="-557"/>
      <point x="992" y="-508" type="curve"/>
      <point x="1150" y="-627"/>
      <point x="1358" y="-691"/>
      <point x="1542" y="-691" type="curve" smooth="yes"/>
      <point x="1829" y="-691"/>
      <point x="2244" y="-540"/>
      <point x="2244" y="-284" type="curve" smooth="yes"/>
      <point x="2244" y="-178"/>
      <point x="2131" y="-79"/>
      <point x="1963" y="-79" type="curve" smooth="yes"/>
      <point x="1745" y="-79"/>
      <point x="1523" y="-200"/>
      <point x="1310" y="-326" type="curve" smooth="yes"/>
      <point x="1210" y="-385"/>
      <point x="1098" y="-449"/>
      <point x="993" y="-496" type="curve"/>
      <point x="857" y="-387"/>
      <point x="756" y="-232"/>
      <point x="756" y="-49" type="curve" smooth="yes"/>
      <point x="756" y="42"/>
      <point x="800" y="176"/>
    </contour>
    <contour>
      <point x="1314" y="-335" type="curve" smooth="yes"/>
      <point x="1526" y="-209"/>
      <point x="1745" y="-91"/>
      <point x="1952" y="-91" type="curve" smooth="yes"/>
      <point x="2117" y="-91"/>
      <point x="2221" y="-182"/>
      <point x="2221" y="-288" type="curve" smooth="yes"/>
      <point x="2221" y="-537"/>
      <point x="1809" y="-683"/>
      <point x="1546" y="-683" type="curve" smooth="yes"/>
      <point x="1364" y="-683"/>
      <point x="1160" y="-621"/>
      <point x="1002" y="-504" type="curve"/>
      <point x="1108" y="-456"/>
      <point x="1213" y="-395"/>
    </contour>
    <contour>
      <point x="551" y="416" type="line"/>
      <point x="615" y="501"/>
      <point x="675" y="591"/>
      <point x="734" y="677" type="curve" smooth="yes"/>
      <point x="843" y="837"/>
      <point x="948" y="992"/>
      <point x="1051" y="1087" type="curve" smooth="yes"/>
      <point x="1113" y="1142"/>
      <point x="1171" y="1197"/>
      <point x="1243" y="1197" type="curve" smooth="yes"/>
      <point x="1275" y="1197"/>
      <point x="1299" y="1184"/>
      <point x="1299" y="1167" type="curve" smooth="yes"/>
      <point x="1299" y="1160"/>
      <point x="1290" y="1149"/>
      <point x="1276" y="1142" type="curve"/>
      <point x="1237" y="1119"/>
      <point x="1151" y="977"/>
      <point x="1113" y="899" type="curve" smooth="yes"/>
      <point x="891" y="417" type="line" smooth="yes"/>
      <point x="888" y="411"/>
      <point x="880" y="406"/>
      <point x="872" y="406" type="curve" smooth="yes"/>
      <point x="542" y="406" type="line"/>
    </contour>
    <contour>
      <point x="922" y="1115" type="line"/>
      <point x="893" y="1044"/>
      <point x="843" y="1019"/>
      <point x="767" y="1019" type="curve" smooth="yes"/>
      <point x="717" y="1019"/>
      <point x="655" y="1032"/>
      <point x="604" y="1043" type="curve" smooth="yes"/>
      <point x="556" y="1054"/>
      <point x="508" y="1064"/>
      <point x="470" y="1064" type="curve" smooth="yes"/>
      <point x="307" y="1064"/>
      <point x="164" y="914"/>
      <point x="164" y="766" type="curve" smooth="yes"/>
      <point x="164" y="666"/>
      <point x="223" y="557"/>
      <point x="350" y="554" type="curve" smooth="yes"/>
      <point x="479" y="554"/>
      <point x="605" y="667"/>
      <point x="605" y="801" type="curve" smooth="yes"/>
      <point x="605" y="886"/>
      <point x="543" y="931"/>
      <point x="474" y="931" type="curve" smooth="yes"/>
      <point x="386" y="931"/>
      <point x="302" y="858"/>
      <point x="302" y="785" type="curve" smooth="yes"/>
      <point x="302" y="767"/>
      <point x="306" y="751"/>
      <point x="321" y="738" type="curve"/>
      <point x="330" y="740" type="line"/>
      <point x="320" y="756"/>
      <point x="316" y="769"/>
      <point x="316" y="782" type="curve" smooth="yes"/>
      <point x="316" y="853"/>
      <point x="388" y="922"/>
      <point x="473" y="922" type="curve" smooth="yes"/>
      <point x="533" y="922"/>
      <point x="587" y="885"/>
      <point x="587" y="802" type="curve" smooth="yes"/>
      <point x="587" y="675"/>
      <point x="472" y="572"/>
      <point x="359" y="562" type="curve"/>
      <point x="234" y="564"/>
      <point x="179" y="662"/>
      <point x="179" y="754" type="curve" smooth="yes"/>
      <point x="179" y="881"/>
      <point x="307" y="1053"/>
      <point x="478" y="1053" type="curve" smooth="yes"/>
      <point x="515" y="1053"/>
      <point x="558" y="1043"/>
      <point x="603" y="1033" type="curve" smooth="yes"/>
      <point x="653" y="1022"/>
      <point x="705" y="1010"/>
      <point x="755" y="1010" type="curve" smooth="yes"/>
      <point x="839" y="1010"/>
      <point x="897" y="1033"/>
      <point x="932" y="1105" type="curve"/>
    </contour>
  </outline>
</glyph>
<glyph name="B.001" format="2">
  <advance width="884"/>
  <outline>
    <contour>
      <point x="642" y="938" type="curve" smooth="yes"/>
      <point x="378" y="938"/>
      <point x="153" y="693"/>
      <point x="126" y="492" type="curve"/>
      <point x="118" y="383"/>
      <point x="167" y="253"/>
      <point x="300" y="236" type="curve"/>
      <point x="232" y="145"/>
      <point x="140" y="65"/>
      <point x="31" y="36" type="curve"/>
      <point x="4" y="47"/>
      <point x="-28" y="56"/>
      <point x="-65" y="57" type="curve" smooth="yes"/>
      <point x="-89" y="57"/>
      <point x="-102" y="48"/>
      <point x="-102" y="38" type="curve" smooth="yes"/>
      <point x="-102" y="27"/>
      <point x="-86" y="16"/>
      <point x="-58" y="16" type="curve" smooth="yes"/>
      <point x="-26" y="16"/>
      <point x="6" y="19"/>
      <point x="33" y="24" type="curve"/>
      <point x="45" y="20"/>
      <point x="59" y="11"/>
      <point x="70" y="5" type="curve" smooth="yes"/>
      <point x="102" y="-12" type="line"/>
      <point x="127" y="-25" type="line" smooth="yes"/>
      <point x="182" y="-53"/>
      <point x="231" y="-79"/>
      <point x="329" y="-83" type="curve" smooth="yes"/>
      <point x="491" y="-90"/>
      <point x="766" y="28"/>
      <point x="786" y="274" type="curve" smooth="yes"/>
      <point x="796" y="390"/>
      <point x="716" y="438"/>
      <point x="676" y="454" type="curve"/>
      <point x="782" y="468"/>
      <point x="878" y="557"/>
      <point x="904" y="655" type="curve" smooth="yes"/>
      <point x="909" y="675"/>
      <point x="912" y="694"/>
      <point x="912" y="714" type="curve" smooth="yes"/>
      <point x="912" y="842"/>
      <point x="798" y="938"/>
    </contour>
    <contour>
      <point x="766" y="284" type="curve" smooth="yes"/>
      <point x="741" y="55"/>
      <point x="481" y="-80"/>
      <point x="329" y="-75" type="curve" smooth="yes"/>
      <point x="232" y="-71"/>
      <point x="166" y="-35"/>
      <point x="109" y="-3" type="curve" smooth="yes"/>
      <point x="91" y="7"/>
      <point x="69" y="18"/>
      <point x="50" y="27" type="curve"/>
      <point x="170" y="55"/>
      <point x="260" y="138"/>
      <point x="327" y="235" type="curve"/>
      <point x="332" y="235" type="line" smooth="yes"/>
      <point x="463" y="238"/>
      <point x="588" y="346"/>
      <point x="604" y="478" type="curve" smooth="yes"/>
      <point x="612" y="551"/>
      <point x="584" y="601"/>
      <point x="540" y="626" type="curve"/>
      <point x="582" y="699"/>
      <point x="623" y="767"/>
      <point x="662" y="816" type="curve" smooth="yes"/>
      <point x="696" y="858"/>
      <point x="758" y="910"/>
      <point x="795" y="889" type="curve"/>
      <point x="856" y="850"/>
      <point x="890" y="782"/>
      <point x="890" y="715" type="curve" smooth="yes"/>
      <point x="890" y="698"/>
      <point x="888" y="681"/>
      <point x="884" y="665" type="curve" smooth="yes"/>
      <point x="856" y="562"/>
      <point x="763" y="462"/>
      <point x="650" y="462" type="curve"/>
      <point x="650" y="461"/>
      <point x="649" y="460"/>
      <point x="649" y="459" type="curve"/>
      <point x="646" y="457" type="line"/>
      <point x="650" y="453" type="line" smooth="yes"/>
      <point x="652" y="451"/>
      <point x="664" y="448"/>
      <point x="664" y="448" type="curve"/>
      <point x="698" y="438"/>
      <point x="773" y="396"/>
    </contour>
    <contour>
      <point x="666" y="450" type="line"/>
      <point x="666" y="451" type="line"/>
      <point x="663" y="449" type="line"/>
      <point x="664" y="448" type="line"/>
    </contour>
    <contour>
      <point x="306" y="439" type="line"/>
      <point x="291" y="459"/>
      <point x="289" y="480"/>
      <point x="292" y="500" type="curve" smooth="yes"/>
      <point x="301" y="571"/>
      <point x="379" y="636"/>
      <point x="463" y="636" type="curve" smooth="yes"/>
      <point x="482" y="636"/>
      <point x="501" y="633"/>
      <point x="519" y="625" type="curve"/>
      <point x="480" y="559"/>
      <point x="444" y="489"/>
      <point x="412" y="428" type="curve" smooth="yes"/>
      <point x="375" y="357" type="line" smooth="yes"/>
      <point x="356" y="320"/>
      <point x="332" y="280"/>
      <point x="306" y="244" type="curve"/>
      <point x="176" y="260"/>
      <point x="130" y="376"/>
      <point x="139" y="477" type="curve" smooth="yes"/>
      <point x="156" y="678"/>
      <point x="384" y="927"/>
      <point x="650" y="927" type="curve" smooth="yes"/>
      <point x="697" y="926"/>
      <point x="737" y="919"/>
      <point x="772" y="902" type="curve"/>
      <point x="737" y="900"/>
      <point x="690" y="864"/>
      <point x="653" y="822" type="curve" smooth="yes"/>
      <point x="610" y="772"/>
      <point x="565" y="704"/>
      <point x="524" y="634" type="curve"/>
      <point x="506" y="641"/>
      <point x="485" y="645"/>
      <point x="464" y="645" type="curve" smooth="yes"/>
      <point x="375" y="645"/>
      <point x="289" y="574"/>
      <point x="279" y="500" type="curve" smooth="yes"/>
      <point x="275" y="476"/>
      <point x="282" y="455"/>
      <point x="298" y="436" type="curve"/>
    </contour>
    <contour>
      <point x="588" y="479" type="curve" smooth="yes"/>
      <point x="571" y="349"/>
      <point x="459" y="245"/>
      <point x="333" y="243" type="curve"/>
      <point x="357" y="280"/>
      <point x="380" y="320"/>
      <point x="402" y="362" type="curve" smooth="yes"/>
      <point x="437" y="432"/>
      <point x="485" y="526"/>
      <point x="535" y="616" type="curve"/>
      <point x="572" y="593"/>
      <point x="596" y="549"/>
    </contour>
    <contour>
      <point x="-58" y="25" type="curve" smooth="yes"/>
      <point x="-75" y="25"/>
      <point x="-82" y="31"/>
      <point x="-82" y="36" type="curve" smooth="yes"/>
      <point x="-82" y="42"/>
      <point x="-74" y="48"/>
      <point x="-58" y="48" type="curve" smooth="yes"/>
      <point x="-30" y="47"/>
      <point x="-8" y="41"/>
      <point x="15" y="32" type="curve"/>
      <point x="-8" y="27"/>
      <point x="-33" y="25"/>
    </contour>
  </outline>
</glyph>
<glyph name="B.big" format="2">
  <advance width="1248"/>
  <outline>
    <contour>
      <point x="-69" y="33" type="curve" smooth="yes"/>
      <point x="-116" y="33"/>
      <point x="-136" y="15"/>
      <point x="-136" y="-2" type="curve" smooth="yes"/>
      <point x="-136" y="-29"/>
      <point x="-72" y="-66"/>
      <point x="35" y="-66" type="curve" smooth="yes"/>
      <point x="85" y="-66"/>
      <point x="134" y="-61"/>
      <point x="179" y="-51" type="curve"/>
      <point x="285" y="-101"/>
      <point x="412" y="-161"/>
      <point x="571" y="-161" type="curve" smooth="yes"/>
      <point x="844" y="-161"/>
      <point x="1172" y="43"/>
      <point x="1172" y="346" type="curve" smooth="yes"/>
      <point x="1172" y="474"/>
      <point x="1081" y="560"/>
      <point x="1005" y="583" type="curve"/>
      <point x="1146" y="609"/>
      <point x="1268" y="752"/>
      <point x="1268" y="907" type="curve" smooth="yes"/>
      <point x="1268" y="1121"/>
      <point x="1044" y="1238"/>
      <point x="865" y="1238" type="curve" smooth="yes"/>
      <point x="432" y="1238"/>
      <point x="93" y="866"/>
      <point x="93" y="544" type="curve" smooth="yes"/>
      <point x="93" y="381"/>
      <point x="187" y="180"/>
      <point x="409" y="180" type="curve" smooth="yes"/>
      <point x="454" y="180"/>
      <point x="501" y="188"/>
      <point x="544" y="202" type="curve"/>
      <point x="453" y="98"/>
      <point x="317" y="3"/>
      <point x="175" y="-38" type="curve"/>
      <point x="97" y="-2"/>
      <point x="16" y="31"/>
    </contour>
    <contour>
      <point x="1152" y="365" type="curve" smooth="yes"/>
      <point x="1152" y="52"/>
      <point x="832" y="-151"/>
      <point x="552" y="-151" type="curve" smooth="yes"/>
      <point x="411" y="-147"/>
      <point x="299" y="-95"/>
      <point x="196" y="-48" type="curve"/>
      <point x="363" y="-8"/>
      <point x="491" y="94"/>
      <point x="587" y="218" type="curve"/>
      <point x="738" y="287"/>
      <point x="861" y="438"/>
      <point x="861" y="607" type="curve" smooth="yes"/>
      <point x="861" y="624"/>
      <point x="859" y="642"/>
      <point x="856" y="658" type="curve"/>
      <point x="904" y="732"/>
      <point x="964" y="819"/>
      <point x="1007" y="868" type="curve" smooth="yes"/>
      <point x="1049" y="917"/>
      <point x="1122" y="975"/>
      <point x="1164" y="949" type="curve"/>
      <point x="1165" y="959" type="line"/>
      <point x="1126" y="979"/>
      <point x="1058" y="936"/>
      <point x="999" y="875" type="curve" smooth="yes"/>
      <point x="948" y="822"/>
      <point x="898" y="755"/>
      <point x="851" y="683" type="curve"/>
      <point x="819" y="786"/>
      <point x="723" y="843"/>
      <point x="623" y="843" type="curve" smooth="yes"/>
      <point x="467" y="843"/>
      <point x="322" y="716"/>
      <point x="322" y="587" type="curve" smooth="yes"/>
      <point x="322" y="557"/>
      <point x="333" y="531"/>
      <point x="353" y="505" type="curve"/>
      <point x="364" y="510" type="line"/>
      <point x="347" y="533"/>
      <point x="340" y="558"/>
      <point x="340" y="583" type="curve" smooth="yes"/>
      <point x="340" y="709"/>
      <point x="471" y="832"/>
      <point x="621" y="832" type="curve" smooth="yes"/>
      <point x="716" y="832"/>
      <point x="811" y="769"/>
      <point x="833" y="655" type="curve"/>
      <point x="786" y="582"/>
      <point x="741" y="506"/>
      <point x="701" y="438" type="curve" smooth="yes"/>
      <point x="683" y="407"/>
      <point x="665" y="378"/>
      <point x="649" y="352" type="curve"/>
      <point x="625" y="308"/>
      <point x="594" y="262"/>
      <point x="559" y="219" type="curve"/>
      <point x="512" y="201"/>
      <point x="460" y="190"/>
      <point x="411" y="190" type="curve" smooth="yes"/>
      <point x="194" y="190"/>
      <point x="111" y="373"/>
      <point x="111" y="525" type="curve" smooth="yes"/>
      <point x="111" y="842"/>
      <point x="436" y="1228"/>
      <point x="865" y="1228" type="curve" smooth="yes"/>
      <point x="1090" y="1228"/>
      <point x="1249" y="1077"/>
      <point x="1249" y="925" type="curve" smooth="yes"/>
      <point x="1249" y="767"/>
      <point x="1112" y="590"/>
      <point x="959" y="590" type="curve"/>
      <point x="958" y="579" type="line"/>
      <point x="966" y="579"/>
      <point x="975" y="579"/>
      <point x="980" y="580" type="curve"/>
      <point x="981" y="580"/>
      <point x="982" y="579"/>
      <point x="984" y="579" type="curve" smooth="yes"/>
      <point x="988" y="579" type="line"/>
      <point x="991" y="577"/>
      <point x="1000" y="575"/>
      <point x="1000" y="575" type="curve"/>
      <point x="1064" y="558"/>
      <point x="1152" y="487"/>
    </contour>
    <contour>
      <point x="1002" y="577" type="line"/>
      <point x="1002" y="578" type="line"/>
      <point x="999" y="576" type="line"/>
      <point x="1000" y="575" type="line"/>
    </contour>
    <contour>
      <point x="679" y="362" type="curve" smooth="yes"/>
      <point x="720" y="435"/>
      <point x="776" y="530"/>
      <point x="836" y="625" type="curve"/>
      <point x="836" y="620" type="line" smooth="yes"/>
      <point x="836" y="616"/>
      <point x="837" y="612"/>
      <point x="837" y="608" type="curve" smooth="yes"/>
      <point x="837" y="446"/>
      <point x="738" y="308"/>
      <point x="603" y="239" type="curve"/>
      <point x="631" y="278"/>
      <point x="657" y="320"/>
    </contour>
    <contour>
      <point x="35" y="-56" type="curve" smooth="yes"/>
      <point x="-58" y="-56"/>
      <point x="-108" y="-24"/>
      <point x="-108" y="-2" type="curve" smooth="yes"/>
      <point x="-108" y="11"/>
      <point x="-86" y="21"/>
      <point x="-53" y="21" type="curve" smooth="yes"/>
      <point x="16" y="21"/>
      <point x="84" y="-7"/>
      <point x="158" y="-41" type="curve"/>
      <point x="118" y="-50"/>
      <point x="77" y="-56"/>
    </contour>
    <contour>
      <point x="165" y="-40" type="line"/>
      <point x="163" y="-40"/>
      <point x="160" y="-41"/>
      <point x="158" y="-41" type="curve"/>
      <point x="164" y="-44" type="line"/>
    </contour>
  </outline>
</glyph>
<glyph name="C.big" format="2">
  <advance width="882"/>
  <outline>
    <contour>
      <point x="1186" y="949" type="curve" smooth="yes"/>
      <point x="1186" y="832"/>
      <point x="1076" y="671"/>
      <point x="897" y="671" type="curve" smooth="yes"/>
      <point x="764" y="671"/>
      <point x="707" y="761"/>
      <point x="707" y="837" type="curve" smooth="yes"/>
      <point x="707" y="917"/>
      <point x="770" y="1017"/>
      <point x="883" y="1017" type="curve" smooth="yes"/>
      <point x="970" y="1017"/>
      <point x="1015" y="957"/>
      <point x="1015" y="912" type="curve" smooth="yes"/>
      <point x="1015" y="888"/>
      <point x="1002" y="846"/>
      <point x="965" y="829" type="curve"/>
      <point x="967" y="820" type="line"/>
      <point x="1009" y="839"/>
      <point x="1023" y="886"/>
      <point x="1023" y="912" type="curve" smooth="yes"/>
      <point x="1023" y="961"/>
      <point x="975" y="1025"/>
      <point x="881" y="1025" type="curve" smooth="yes"/>
      <point x="763" y="1025"/>
      <point x="691" y="925"/>
      <point x="691" y="842" type="curve" smooth="yes"/>
      <point x="691" y="769"/>
      <point x="747" y="663"/>
      <point x="899" y="663" type="curve" smooth="yes"/>
      <point x="1082" y="663"/>
      <point x="1204" y="818"/>
      <point x="1204" y="937" type="curve" smooth="yes"/>
      <point x="1204" y="1044"/>
      <point x="1122" y="1198"/>
      <point x="869" y="1198" type="curve" smooth="yes"/>
      <point x="390" y="1198"/>
      <point x="-44" y="641"/>
      <point x="-44" y="260" type="curve" smooth="yes"/>
      <point x="-44" y="69"/>
      <point x="62" y="-136"/>
      <point x="315" y="-136" type="curve" smooth="yes"/>
      <point x="603" y="-136"/>
      <point x="834" y="129"/>
      <point x="834" y="341" type="curve" smooth="yes"/>
      <point x="834" y="462"/>
      <point x="758" y="595"/>
      <point x="580" y="595" type="curve" smooth="yes"/>
      <point x="398" y="595"/>
      <point x="213" y="456"/>
      <point x="213" y="268" type="curve" smooth="yes"/>
      <point x="213" y="144"/>
      <point x="294" y="76"/>
      <point x="387" y="76" type="curve" smooth="yes"/>
      <point x="496" y="76"/>
      <point x="606" y="168"/>
      <point x="606" y="260" type="curve" smooth="yes"/>
      <point x="606" y="286"/>
      <point x="596" y="305"/>
      <point x="580" y="323" type="curve"/>
      <point x="573" y="322" type="line"/>
      <point x="585" y="303"/>
      <point x="593" y="284"/>
      <point x="593" y="262" type="curve" smooth="yes"/>
      <point x="593" y="177"/>
      <point x="494" y="85"/>
      <point x="391" y="85" type="curve" smooth="yes"/>
      <point x="318" y="85"/>
      <point x="233" y="132"/>
      <point x="233" y="264" type="curve" smooth="yes"/>
      <point x="233" y="445"/>
      <point x="392" y="586"/>
      <point x="577" y="586" type="curve" smooth="yes"/>
      <point x="749" y="586"/>
      <point x="817" y="464"/>
      <point x="817" y="349" type="curve" smooth="yes"/>
      <point x="817" y="135"/>
      <point x="580" y="-126"/>
      <point x="313" y="-126" type="curve" smooth="yes"/>
      <point x="98" y="-126"/>
      <point x="-24" y="42"/>
      <point x="-24" y="245" type="curve" smooth="yes"/>
      <point x="-24" y="613"/>
      <point x="394" y="1189"/>
      <point x="867" y="1189" type="curve" smooth="yes"/>
      <point x="1073" y="1189"/>
      <point x="1186" y="1079"/>
    </contour>
  </outline>
</glyph>
<glyph name="D.001" format="2">
  <advance width="961"/>
  <outline>
    <contour>
      <point x="-86" y="16" type="curve" smooth="yes"/>
      <point x="-53" y="16"/>
      <point x="-21" y="18"/>
      <point x="7" y="24" type="curve"/>
      <point x="26" y="16"/>
      <point x="52" y="4"/>
      <point x="72" y="-7" type="curve" smooth="yes"/>
      <point x="137" y="-41"/>
      <point x="209" y="-79"/>
      <point x="318" y="-79" type="curve" smooth="yes"/>
      <point x="616" y="-79"/>
      <point x="929" y="224"/>
      <point x="952" y="539" type="curve" smooth="yes"/>
      <point x="960" y="741"/>
      <point x="848" y="939"/>
      <point x="599" y="939" type="curve" smooth="yes"/>
      <point x="329" y="939"/>
      <point x="108" y="693"/>
      <point x="93" y="490" type="curve" smooth="yes"/>
      <point x="89" y="383"/>
      <point x="141" y="254"/>
      <point x="269" y="234" type="curve"/>
      <point x="201" y="144"/>
      <point x="111" y="66"/>
      <point x="3" y="37" type="curve"/>
      <point x="-27" y="49"/>
      <point x="-58" y="58"/>
      <point x="-94" y="58" type="curve" smooth="yes"/>
      <point x="-118" y="58"/>
      <point x="-130" y="49"/>
      <point x="-130" y="39" type="curve" smooth="yes"/>
      <point x="-130" y="28"/>
      <point x="-115" y="16"/>
    </contour>
    <contour>
      <point x="308" y="231" type="line" smooth="yes"/>
      <point x="488" y="231"/>
      <point x="654" y="371"/>
      <point x="669" y="540" type="curve" smooth="yes"/>
      <point x="677" y="638"/>
      <point x="631" y="698"/>
      <point x="566" y="717" type="curve"/>
      <point x="589" y="755"/>
      <point x="612" y="788"/>
      <point x="634" y="816" type="curve" smooth="yes"/>
      <point x="667" y="855"/>
      <point x="725" y="903"/>
      <point x="760" y="893" type="curve"/>
      <point x="875" y="837"/>
      <point x="935" y="701"/>
      <point x="931" y="559" type="curve"/>
      <point x="902" y="255"/>
      <point x="611" y="-71"/>
      <point x="316" y="-71" type="curve" smooth="yes"/>
      <point x="213" y="-71"/>
      <point x="141" y="-33"/>
      <point x="77" y="1" type="curve" smooth="yes"/>
      <point x="61" y="10"/>
      <point x="42" y="20"/>
      <point x="24" y="28" type="curve"/>
      <point x="140" y="57"/>
      <point x="231" y="139"/>
      <point x="297" y="231" type="curve"/>
    </contour>
    <contour>
      <point x="339" y="497" type="line"/>
      <point x="325" y="517"/>
      <point x="320" y="541"/>
      <point x="323" y="564" type="curve" smooth="yes"/>
      <point x="330" y="644"/>
      <point x="415" y="718"/>
      <point x="509" y="718" type="curve" smooth="yes"/>
      <point x="522" y="718"/>
      <point x="534" y="717"/>
      <point x="546" y="714" type="curve"/>
      <point x="487" y="624"/>
      <point x="431" y="516"/>
      <point x="384" y="426" type="curve" smooth="yes"/>
      <point x="347" y="357" type="line" smooth="yes"/>
      <point x="327" y="320"/>
      <point x="301" y="277"/>
      <point x="275" y="241" type="curve"/>
      <point x="155" y="259"/>
      <point x="106" y="379"/>
      <point x="106" y="475" type="curve"/>
      <point x="122" y="676"/>
      <point x="343" y="925"/>
      <point x="608" y="925" type="curve" smooth="yes"/>
      <point x="659" y="925"/>
      <point x="701" y="918"/>
      <point x="740" y="902" type="curve"/>
      <point x="706" y="897"/>
      <point x="660" y="862"/>
      <point x="625" y="822" type="curve" smooth="yes"/>
      <point x="601" y="793"/>
      <point x="575" y="760"/>
      <point x="551" y="723" type="curve"/>
      <point x="538" y="726"/>
      <point x="525" y="726"/>
      <point x="512" y="726" type="curve" smooth="yes"/>
      <point x="413" y="726"/>
      <point x="320" y="646"/>
      <point x="309" y="564" type="curve" smooth="yes"/>
      <point x="306" y="536"/>
      <point x="314" y="512"/>
      <point x="333" y="491" type="curve"/>
    </contour>
    <contour>
      <point x="309" y="239" type="curve" smooth="yes"/>
      <point x="302" y="239" type="line"/>
      <point x="328" y="277"/>
      <point x="351" y="319"/>
      <point x="374" y="362" type="curve" smooth="yes"/>
      <point x="382" y="377" type="line" smooth="yes"/>
      <point x="430" y="471"/>
      <point x="496" y="603"/>
      <point x="561" y="709" type="curve"/>
      <point x="615" y="688"/>
      <point x="657" y="632"/>
      <point x="650" y="541" type="curve" smooth="yes"/>
      <point x="632" y="377"/>
      <point x="480" y="239"/>
    </contour>
    <contour>
      <point x="-86" y="26" type="curve" smooth="yes"/>
      <point x="-103" y="26"/>
      <point x="-111" y="30"/>
      <point x="-111" y="35" type="curve" smooth="yes"/>
      <point x="-111" y="40"/>
      <point x="-102" y="46"/>
      <point x="-86" y="46" type="curve" smooth="yes"/>
      <point x="-62" y="46"/>
      <point x="-35" y="41"/>
      <point x="-13" y="33" type="curve"/>
      <point x="-36" y="29"/>
      <point x="-60" y="26"/>
    </contour>
  </outline>
</glyph>
<glyph name="D.big" format="2">
  <advance width="1451"/>
  <outline>
    <contour>
      <point x="-69" y="33" type="curve" smooth="yes"/>
      <point x="-116" y="33"/>
      <point x="-136" y="15"/>
      <point x="-136" y="-2" type="curve" smooth="yes"/>
      <point x="-136" y="-29"/>
      <point x="-72" y="-66"/>
      <point x="35" y="-66" type="curve" smooth="yes"/>
      <point x="88" y="-66"/>
      <point x="138" y="-60"/>
      <point x="184" y="-50" type="curve"/>
      <point x="293" y="-100"/>
      <point x="435" y="-162"/>
      <point x="600" y="-162" type="curve" smooth="yes"/>
      <point x="1004" y="-162"/>
      <point x="1432" y="232"/>
      <point x="1432" y="669" type="curve" smooth="yes"/>
      <point x="1432" y="970"/>
      <point x="1203" y="1238"/>
      <point x="865" y="1238" type="curve" smooth="yes"/>
      <point x="432" y="1238"/>
      <point x="93" y="866"/>
      <point x="93" y="544" type="curve" smooth="yes"/>
      <point x="93" y="359"/>
      <point x="221" y="136"/>
      <point x="474" y="128" type="curve"/>
      <point x="397" y="53"/>
      <point x="297" y="-10"/>
      <point x="183" y="-38" type="curve"/>
      <point x="102" y="-2"/>
      <point x="18" y="31"/>
    </contour>
    <contour>
      <point x="865" y="1228" type="curve" smooth="yes"/>
      <point x="1196" y="1228"/>
      <point x="1411" y="973"/>
      <point x="1411" y="677" type="curve" smooth="yes"/>
      <point x="1411" y="238"/>
      <point x="992" y="-152"/>
      <point x="587" y="-152" type="curve" smooth="yes"/>
      <point x="431" y="-152"/>
      <point x="311" y="-97"/>
      <point x="201" y="-47" type="curve"/>
      <point x="319" y="-18"/>
      <point x="419" y="49"/>
      <point x="500" y="128" type="curve"/>
      <point x="726" y="138"/>
      <point x="943" y="331"/>
      <point x="943" y="555" type="curve" smooth="yes"/>
      <point x="943" y="618"/>
      <point x="922" y="671"/>
      <point x="890" y="709" type="curve"/>
      <point x="925" y="763"/>
      <point x="966" y="821"/>
      <point x="1007" y="868" type="curve" smooth="yes"/>
      <point x="1049" y="917"/>
      <point x="1122" y="975"/>
      <point x="1164" y="949" type="curve"/>
      <point x="1165" y="959" type="line"/>
      <point x="1126" y="979"/>
      <point x="1057" y="935"/>
      <point x="999" y="875" type="curve" smooth="yes"/>
      <point x="953" y="827"/>
      <point x="911" y="773"/>
      <point x="876" y="722" type="curve"/>
      <point x="831" y="768"/>
      <point x="769" y="791"/>
      <point x="705" y="791" type="curve" smooth="yes"/>
      <point x="549" y="791"/>
      <point x="404" y="664"/>
      <point x="404" y="535" type="curve" smooth="yes"/>
      <point x="404" y="505"/>
      <point x="415" y="479"/>
      <point x="435" y="453" type="curve"/>
      <point x="446" y="458" type="line"/>
      <point x="429" y="481"/>
      <point x="422" y="506"/>
      <point x="422" y="531" type="curve" smooth="yes"/>
      <point x="422" y="657"/>
      <point x="553" y="780"/>
      <point x="703" y="780" type="curve" smooth="yes"/>
      <point x="764" y="780"/>
      <point x="826" y="756"/>
      <point x="867" y="708" type="curve"/>
      <point x="823" y="643"/>
      <point x="784" y="576"/>
      <point x="743" y="508" type="curve" smooth="yes"/>
      <point x="664" y="376"/>
      <point x="580" y="238"/>
      <point x="484" y="138" type="curve"/>
      <point x="238" y="148"/>
      <point x="111" y="351"/>
      <point x="111" y="525" type="curve" smooth="yes"/>
      <point x="111" y="842"/>
      <point x="436" y="1228"/>
    </contour>
    <contour>
      <point x="919" y="556" type="curve" smooth="yes"/>
      <point x="919" y="329"/>
      <point x="717" y="147"/>
      <point x="510" y="138" type="curve"/>
      <point x="615" y="246"/>
      <point x="691" y="378"/>
      <point x="770" y="512" type="curve" smooth="yes"/>
      <point x="805" y="573"/>
      <point x="840" y="634"/>
      <point x="879" y="693" type="curve"/>
      <point x="904" y="658"/>
      <point x="919" y="611"/>
    </contour>
    <contour>
      <point x="877" y="696" type="line"/>
      <point x="877" y="695"/>
      <point x="878" y="694"/>
      <point x="879" y="693" type="curve"/>
      <point x="879" y="694"/>
      <point x="880" y="695"/>
      <point x="881" y="696" type="curve"/>
    </contour>
    <contour>
      <point x="35" y="-56" type="curve" smooth="yes"/>
      <point x="-58" y="-56"/>
      <point x="-108" y="-24"/>
      <point x="-108" y="-2" type="curve" smooth="yes"/>
      <point x="-108" y="11"/>
      <point x="-86" y="21"/>
      <point x="-53" y="21" type="curve" smooth="yes"/>
      <point x="18" y="21"/>
      <point x="88" y="-7"/>
      <point x="165" y="-41" type="curve"/>
      <point x="124" y="-50"/>
      <point x="81" y="-55"/>
    </contour>
    <contour>
      <point x="172" y="-40" type="line"/>
      <point x="170" y="-40"/>
      <point x="167" y="-41"/>
      <point x="165" y="-41" type="curve"/>
      <point x="171" y="-44" type="line"/>
    </contour>
  </outline>
</glyph>
<glyph name="E.big" format="2">
  <advance width="850"/>
  <outline>
    <contour>
      <point x="273" y="-126" type="curve" smooth="yes"/>
      <point x="513" y="-126"/>
      <point x="774" y="86"/>
      <point x="774" y="316" type="curve" smooth="yes"/>
      <point x="774" y="427"/>
      <point x="699" y="541"/>
      <point x="549" y="541" type="curve" smooth="yes"/>
      <point x="375" y="541"/>
      <point x="230" y="419"/>
      <point x="214" y="257" type="curve" smooth="yes"/>
      <point x="205" y="140"/>
      <point x="278" y="78"/>
      <point x="365" y="78" type="curve" smooth="yes"/>
      <point x="450" y="78"/>
      <point x="562" y="159"/>
      <point x="562" y="243" type="curve" smooth="yes"/>
      <point x="562" y="265"/>
      <point x="552" y="284"/>
      <point x="538" y="301" type="curve"/>
      <point x="534" y="299" type="line"/>
      <point x="548" y="275"/>
      <point x="548" y="253"/>
      <point x="548" y="234" type="curve"/>
      <point x="539" y="159"/>
      <point x="457" y="86"/>
      <point x="369" y="86" type="curve" smooth="yes"/>
      <point x="291" y="86"/>
      <point x="221" y="138"/>
      <point x="232" y="257" type="curve" smooth="yes"/>
      <point x="245" y="416"/>
      <point x="380" y="533"/>
      <point x="546" y="533" type="curve" smooth="yes"/>
      <point x="691" y="533"/>
      <point x="761" y="418"/>
      <point x="758" y="314" type="curve" smooth="yes"/>
      <point x="752" y="121"/>
      <point x="530" y="-117"/>
      <point x="275" y="-117" type="curve" smooth="yes"/>
      <point x="94" y="-117"/>
      <point x="-1" y="24"/>
      <point x="-1" y="178" type="curve" smooth="yes"/>
      <point x="-1" y="424"/>
      <point x="272" y="679"/>
      <point x="515" y="711" type="curve"/>
      <point x="560" y="649"/>
      <point x="637" y="618"/>
      <point x="679" y="618" type="curve" smooth="yes"/>
      <point x="733" y="618"/>
      <point x="743" y="641"/>
      <point x="743" y="653" type="curve" smooth="yes"/>
      <point x="743" y="671"/>
      <point x="702" y="721"/>
      <point x="559" y="721" type="curve" smooth="yes"/>
      <point x="548" y="721"/>
      <point x="535" y="720"/>
      <point x="525" y="719" type="curve"/>
      <point x="508" y="749"/>
      <point x="496" y="786"/>
      <point x="496" y="830" type="curve" smooth="yes"/>
      <point x="496" y="975"/>
      <point x="625" y="1079"/>
      <point x="768" y="1079" type="curve" smooth="yes"/>
      <point x="871" y="1079"/>
      <point x="941" y="1008"/>
      <point x="941" y="933" type="curve" smooth="yes"/>
      <point x="941" y="891"/>
      <point x="922" y="827"/>
      <point x="872" y="814" type="curve"/>
      <point x="873" y="804" type="line"/>
      <point x="928" y="819"/>
      <point x="957" y="882"/>
      <point x="957" y="927" type="curve" smooth="yes"/>
      <point x="957" y="1006"/>
      <point x="875" y="1088"/>
      <point x="768" y="1088" type="curve" smooth="yes"/>
      <point x="617" y="1088"/>
      <point x="477" y="979"/>
      <point x="477" y="833" type="curve" smooth="yes"/>
      <point x="477" y="787"/>
      <point x="491" y="748"/>
      <point x="510" y="718" type="curve"/>
      <point x="261" y="691"/>
      <point x="-9" y="446"/>
      <point x="-22" y="196" type="curve" smooth="yes"/>
      <point x="-30" y="37"/>
      <point x="73" y="-126"/>
    </contour>
    <contour>
      <point x="672" y="627" type="curve" smooth="yes"/>
      <point x="632" y="627"/>
      <point x="567" y="653"/>
      <point x="529" y="712" type="curve"/>
      <point x="539" y="713"/>
      <point x="549" y="714"/>
      <point x="560" y="714" type="curve" smooth="yes"/>
      <point x="689" y="714"/>
      <point x="726" y="669"/>
      <point x="726" y="653" type="curve" smooth="yes"/>
      <point x="726" y="639"/>
      <point x="704" y="627"/>
    </contour>
  </outline>
</glyph>
<glyph name="F.big" format="2">
  <advance width="649"/>
  <outline>
    <contour>
      <point x="54" y="632" type="line"/>
      <point x="34" y="657"/>
      <point x="30" y="686"/>
      <point x="35" y="714" type="curve" smooth="yes"/>
      <point x="50" y="808"/>
      <point x="150" y="896"/>
      <point x="263" y="896" type="curve" smooth="yes"/>
      <point x="354" y="896"/>
      <point x="437" y="843"/>
      <point x="437" y="720" type="curve" smooth="yes"/>
      <point x="437" y="710"/>
      <point x="436" y="696"/>
      <point x="435" y="685" type="curve"/>
      <point x="410" y="522"/>
      <point x="254" y="381"/>
      <point x="96" y="369" type="curve"/>
      <point x="-87" y="373"/>
      <point x="-168" y="516"/>
      <point x="-168" y="650" type="curve" smooth="yes"/>
      <point x="-168" y="913"/>
      <point x="115" y="1195"/>
      <point x="504" y="1195" type="curve" smooth="yes"/>
      <point x="641" y="1195"/>
      <point x="802" y="1151"/>
      <point x="964" y="1107" type="curve" smooth="yes"/>
      <point x="1125" y="1063"/>
      <point x="1286" y="1019"/>
      <point x="1424" y="1019" type="curve" smooth="yes"/>
      <point x="1500" y="1019"/>
      <point x="1567" y="1035"/>
      <point x="1624" y="1078" type="curve"/>
      <point x="1618" y="1086" type="line"/>
      <point x="1562" y="1044"/>
      <point x="1497" y="1029"/>
      <point x="1424" y="1029" type="curve" smooth="yes"/>
      <point x="1295" y="1029"/>
      <point x="1130" y="1073"/>
      <point x="980" y="1114" type="curve" smooth="yes"/>
      <point x="822" y="1158"/>
      <point x="649" y="1204"/>
      <point x="502" y="1204" type="curve" smooth="yes"/>
      <point x="101" y="1204"/>
      <point x="-181" y="933"/>
      <point x="-181" y="661" type="curve" smooth="yes"/>
      <point x="-181" y="519"/>
      <point x="-98" y="365"/>
      <point x="84" y="360" type="curve" smooth="yes"/>
      <point x="261" y="360"/>
      <point x="430" y="505"/>
      <point x="451" y="684" type="curve" smooth="yes"/>
      <point x="452" y="696"/>
      <point x="453" y="708"/>
      <point x="453" y="719" type="curve" smooth="yes"/>
      <point x="453" y="842"/>
      <point x="364" y="906"/>
      <point x="264" y="906" type="curve" smooth="yes"/>
      <point x="148" y="906"/>
      <point x="34" y="810"/>
      <point x="19" y="714" type="curve" smooth="yes"/>
      <point x="14" y="683"/>
      <point x="18" y="650"/>
      <point x="45" y="630" type="curve"/>
    </contour>
    <contour>
      <point x="446" y="550" type="line"/>
      <point x="560" y="550" type="line"/>
      <point x="527" y="490"/>
      <point x="499" y="435"/>
      <point x="472" y="382" type="curve" smooth="yes"/>
      <point x="430" y="301" type="line" smooth="yes"/>
      <point x="346" y="141"/>
      <point x="176" y="-135"/>
      <point x="-61" y="-121" type="curve" smooth="yes"/>
      <point x="-114" y="-118"/>
      <point x="-192" y="-76"/>
      <point x="-192" y="3" type="curve" smooth="yes"/>
      <point x="-192" y="20"/>
      <point x="-189" y="39"/>
      <point x="-180" y="60" type="curve"/>
      <point x="-184" y="62" type="line"/>
      <point x="-196" y="38"/>
      <point x="-201" y="15"/>
      <point x="-201" y="-6" type="curve" smooth="yes"/>
      <point x="-201" y="-87"/>
      <point x="-123" y="-126"/>
      <point x="-63" y="-129" type="curve" smooth="yes"/>
      <point x="193" y="-136"/>
      <point x="353" y="108"/>
      <point x="460" y="313" type="curve" smooth="yes"/>
      <point x="475" y="342"/>
      <point x="492" y="375"/>
      <point x="509" y="410" type="curve" smooth="yes"/>
      <point x="530" y="453"/>
      <point x="554" y="502"/>
      <point x="579" y="550" type="curve"/>
      <point x="747" y="550" type="line"/>
      <point x="747" y="560" type="line"/>
      <point x="585" y="560" type="line"/>
      <point x="675" y="729"/>
      <point x="787" y="900"/>
      <point x="922" y="935" type="curve"/>
      <point x="926" y="953" type="line"/>
      <point x="786" y="909"/>
      <point x="662" y="731"/>
      <point x="566" y="560" type="curve"/>
      <point x="446" y="560" type="line"/>
    </contour>
  </outline>
</glyph>
<glyph name="G.big" format="2">
  <advance width="1034"/>
  <outline>
    <contour>
      <point x="481" y="-76" type="curve" smooth="yes"/>
      <point x="563" y="-76"/>
      <point x="642" y="-46"/>
      <point x="710" y="-1" type="curve"/>
      <point x="699" y="-118"/>
      <point x="678" y="-244"/>
      <point x="615" y="-375" type="curve" smooth="yes"/>
      <point x="536" y="-539"/>
      <point x="356" y="-664"/>
      <point x="182" y="-664" type="curve" smooth="yes"/>
      <point x="24" y="-664"/>
      <point x="-90" y="-544"/>
      <point x="-93" y="-381" type="curve"/>
      <point x="-85" y="-215"/>
      <point x="54" y="-83"/>
      <point x="193" y="-83" type="curve" smooth="yes"/>
      <point x="295" y="-83"/>
      <point x="352" y="-155"/>
      <point x="352" y="-233" type="curve"/>
      <point x="350" y="-309"/>
      <point x="286" y="-407"/>
      <point x="189" y="-407" type="curve" smooth="yes"/>
      <point x="174" y="-407"/>
      <point x="126" y="-404"/>
      <point x="110" y="-356" type="curve"/>
      <point x="98" y="-358" type="line"/>
      <point x="121" y="-408"/>
      <point x="164" y="-415"/>
      <point x="193" y="-415" type="curve" smooth="yes"/>
      <point x="301" y="-415"/>
      <point x="368" y="-310"/>
      <point x="368" y="-228" type="curve" smooth="yes"/>
      <point x="368" y="-142"/>
      <point x="297" y="-74"/>
      <point x="193" y="-74" type="curve" smooth="yes"/>
      <point x="40" y="-74"/>
      <point x="-114" y="-207"/>
      <point x="-114" y="-385" type="curve" smooth="yes"/>
      <point x="-114" y="-555"/>
      <point x="21" y="-674"/>
      <point x="189" y="-674" type="curve" smooth="yes"/>
      <point x="374" y="-674"/>
      <point x="567" y="-531"/>
      <point x="635" y="-387" type="curve" smooth="yes"/>
      <point x="699" y="-250"/>
      <point x="715" y="-116"/>
      <point x="724" y="8" type="curve"/>
      <point x="825" y="81"/>
      <point x="910" y="189"/>
      <point x="948" y="273" type="curve" smooth="yes"/>
      <point x="971" y="324"/>
      <point x="991" y="382"/>
      <point x="991" y="421" type="curve" smooth="yes"/>
      <point x="991" y="463"/>
      <point x="972" y="487"/>
      <point x="946" y="487" type="curve" smooth="yes"/>
      <point x="848" y="487"/>
      <point x="738" y="287"/>
      <point x="711" y="16" type="curve"/>
      <point x="643" y="-31"/>
      <point x="562" y="-64"/>
      <point x="481" y="-64" type="curve" smooth="yes"/>
      <point x="283" y="-64"/>
      <point x="166" y="97"/>
      <point x="166" y="311" type="curve" smooth="yes"/>
      <point x="167" y="360"/>
      <point x="176" y="417"/>
      <point x="193" y="475" type="curve"/>
      <point x="272" y="426"/>
      <point x="372" y="396"/>
      <point x="493" y="396" type="curve" smooth="yes"/>
      <point x="922" y="396"/>
      <point x="1267" y="757"/>
      <point x="1267" y="1003" type="curve" smooth="yes"/>
      <point x="1267" y="1155"/>
      <point x="1149" y="1216"/>
      <point x="1021" y="1216" type="curve" smooth="yes"/>
      <point x="891" y="1216"/>
      <point x="771" y="1176"/>
      <point x="660" y="1109" type="curve"/>
      <point x="618" y="1207"/>
      <point x="516" y="1274"/>
      <point x="393" y="1274" type="curve" smooth="yes"/>
      <point x="202" y="1274"/>
      <point x="65" y="1099"/>
      <point x="19" y="960" type="curve" smooth="yes"/>
      <point x="7" y="919"/>
      <point x="-4" y="859"/>
      <point x="-4" y="817" type="curve" smooth="yes"/>
      <point x="-4" y="689"/>
      <point x="58" y="567"/>
      <point x="174" y="487" type="curve"/>
      <point x="156" y="425"/>
      <point x="147" y="369"/>
      <point x="147" y="315" type="curve" smooth="yes"/>
      <point x="147" y="102"/>
      <point x="259" y="-76"/>
    </contour>
    <contour>
      <point x="493" y="405" type="curve" smooth="yes"/>
      <point x="373" y="405"/>
      <point x="274" y="437"/>
      <point x="198" y="488" type="curve"/>
      <point x="221" y="564"/>
      <point x="256" y="639"/>
      <point x="303" y="716" type="curve"/>
      <point x="329" y="704"/>
      <point x="358" y="699"/>
      <point x="392" y="699" type="curve" smooth="yes"/>
      <point x="521" y="699"/>
      <point x="682" y="810"/>
      <point x="682" y="1003" type="curve" smooth="yes"/>
      <point x="682" y="1037"/>
      <point x="677" y="1066"/>
      <point x="666" y="1095" type="curve"/>
      <point x="777" y="1164"/>
      <point x="898" y="1206"/>
      <point x="1025" y="1206" type="curve" smooth="yes"/>
      <point x="1136" y="1206"/>
      <point x="1251" y="1147"/>
      <point x="1251" y="1024" type="curve" smooth="yes"/>
      <point x="1251" y="780"/>
      <point x="917" y="405"/>
    </contour>
    <contour>
      <point x="212" y="872" type="curve" smooth="yes"/>
      <point x="212" y="910"/>
      <point x="224" y="953"/>
      <point x="262" y="988" type="curve"/>
      <point x="253" y="992" type="line"/>
      <point x="213" y="954"/>
      <point x="195" y="912"/>
      <point x="195" y="871" type="curve" smooth="yes"/>
      <point x="195" y="812"/>
      <point x="228" y="757"/>
      <point x="284" y="726" type="curve"/>
      <point x="238" y="649"/>
      <point x="203" y="576"/>
      <point x="179" y="502" type="curve"/>
      <point x="73" y="583"/>
      <point x="16" y="705"/>
      <point x="16" y="829" type="curve" smooth="yes"/>
      <point x="16" y="877"/>
      <point x="23" y="926"/>
      <point x="39" y="974" type="curve" smooth="yes"/>
      <point x="81" y="1107"/>
      <point x="205" y="1265"/>
      <point x="393" y="1265" type="curve" smooth="yes"/>
      <point x="510" y="1265"/>
      <point x="606" y="1198"/>
      <point x="644" y="1099" type="curve"/>
      <point x="499" y="1009"/>
      <point x="377" y="877"/>
      <point x="290" y="736" type="curve"/>
      <point x="241" y="764"/>
      <point x="212" y="817"/>
    </contour>
    <contour>
      <point x="292" y="735" type="line"/>
      <point x="291" y="735"/>
      <point x="290" y="735"/>
      <point x="290" y="736" type="curve"/>
      <point x="289" y="735"/>
      <point x="289" y="734"/>
      <point x="289" y="734" type="curve"/>
    </contour>
    <contour>
      <point x="661" y="1005" type="curve" smooth="yes"/>
      <point x="661" y="808"/>
      <point x="507" y="709"/>
      <point x="393" y="709" type="curve" smooth="yes"/>
      <point x="361" y="709"/>
      <point x="333" y="714"/>
      <point x="308" y="726" type="curve"/>
      <point x="393" y="865"/>
      <point x="512" y="994"/>
      <point x="649" y="1083" type="curve"/>
      <point x="656" y="1059"/>
      <point x="661" y="1032"/>
    </contour>
    <contour>
      <point x="648" y="1086" type="line"/>
      <point x="648" y="1085"/>
      <point x="648" y="1084"/>
      <point x="649" y="1083" type="curve"/>
      <point x="649" y="1084"/>
      <point x="650" y="1084"/>
      <point x="651" y="1085" type="curve"/>
    </contour>
    <contour>
      <point x="946" y="479" type="curve" smooth="yes"/>
      <point x="968" y="479"/>
      <point x="973" y="464"/>
      <point x="973" y="434" type="curve" smooth="yes"/>
      <point x="973" y="387"/>
      <point x="955" y="340"/>
      <point x="940" y="301" type="curve" smooth="yes"/>
      <point x="931" y="279" type="line" smooth="yes"/>
      <point x="893" y="195"/>
      <point x="819" y="96"/>
      <point x="725" y="26" type="curve"/>
      <point x="746" y="271"/>
      <point x="875" y="479"/>
    </contour>
  </outline>
</glyph>
